<svg width="50" height="50" viewBox="0 0 50 50" fill="none" xmlns="http://www.w3.org/2000/svg">
<mask id="mask0_216_1361" style="mask-type:alpha" maskUnits="userSpaceOnUse" x="0" y="0" width="50" height="50">
<rect width="50" height="50" fill="#D9D9D9"/>
</mask>
<g mask="url(#mask0_216_1361)">
<path d="M63.3335 73.9019C63.3335 73.8039 63.2355 73.8039 63.2355 73.7059C63.2355 73.8039 63.2355 73.9019 63.3335 73.9019Z" fill="black"/>
<path d="M63.8237 81.451C63.8237 81.0588 63.7257 80.6666 63.8237 80.2745C63.9218 79.2941 63.7257 78.3137 63.7257 77.3333C63.7257 76.647 63.5296 75.8627 63.4316 75.1764C63.4316 74.7843 63.3335 74.4902 63.3335 74.098L63.2355 73.3137C63.1374 73.1176 63.1374 72.9215 63.0394 72.7255C62.8433 71.647 62.5492 70.6666 62.157 69.5882C61.8629 68.8039 61.5688 68.0196 61.2747 67.2353C60.8825 66.2549 60.5884 65.3725 60.0982 64.3921C59.9021 64 59.7061 63.6078 59.51 63.2157C59.2159 62.5294 58.8237 61.9412 58.4316 61.2549C58.3335 61.1568 58.2355 61.0588 58.1374 60.9608C57.9414 60.7647 57.7453 60.6666 57.5492 60.4706C57.2551 60.1764 56.8629 59.7843 56.5688 59.4902C56.4708 59.3921 56.3727 59.2941 56.3727 59.098C55.9806 58.3137 55.6865 57.5294 55.2943 56.7451C54.3139 54.9804 53.2355 53.3137 51.7649 51.9412C51.5688 51.7451 51.3727 51.549 51.2747 51.2549C51.1767 51.0588 51.0786 50.8627 50.9806 50.7647C50.6865 50.2745 50.3923 49.7843 50.1963 49.2941C49.9021 48.8039 49.7061 48.2157 49.4119 47.7255C49.1178 47.1372 48.8237 46.549 48.5296 45.9608C48.2355 45.3725 47.9414 44.6863 47.6472 44.098C47.2551 43.3137 46.961 42.5294 46.6669 41.647C46.2747 40.3725 45.8825 39 45.4904 37.7255C45.0982 36.549 44.7061 35.3725 44.4119 34.1961C44.1178 33.3137 44.0198 32.3333 43.8237 31.451C43.6276 30.3725 43.4316 29.2941 43.2355 28.3137C43.0394 27.4314 42.9414 26.549 42.8433 25.7647C42.7453 24.8823 42.6472 24 42.6472 23.1176C42.5492 21.647 42.3531 20.1764 42.1571 18.7059C41.961 17.5294 41.7649 16.451 41.3727 15.2745C41.0786 14.3921 40.8825 13.4117 40.5884 12.5294C40.2943 11.451 39.9021 10.4706 39.3139 9.49017C39.2159 9.2941 39.1178 8.99998 38.9218 8.8039C38.6276 8.21566 38.3335 7.72547 37.8433 7.23527C37.4512 6.84311 36.961 6.45096 36.5688 5.96076C36.1767 5.56861 35.6865 5.37253 35.2943 4.98037C34.51 4.39213 33.7257 4.09802 32.8433 3.8039C31.961 3.50978 31.0786 3.21566 30.1963 2.92155C29.2159 2.62743 28.3335 2.43135 27.2551 2.33331C27.059 2.33331 26.8629 2.23527 26.6669 2.23527C26.4708 2.13723 26.2747 2.13723 25.9806 2.23527C25.7845 2.33331 25.5884 2.33331 25.3923 2.23527C25.2943 2.13723 25.0982 2.13723 25.0002 2.33331C25.0002 2.33331 24.8041 2.43135 24.8041 2.33331C24.608 2.23527 24.51 2.33331 24.3139 2.33331C24.2159 2.33331 24.1178 2.33331 24.1178 2.33331C24.0198 2.33331 23.9218 2.33331 23.8237 2.43135C23.7257 2.43135 23.6276 2.52939 23.5296 2.52939C23.0394 2.62743 22.5492 2.82351 22.1571 2.92155C21.3727 3.11762 20.5884 3.41174 19.8041 3.8039C19.51 3.90194 19.2159 4.09802 19.0198 4.29409C18.6276 4.58821 18.1374 4.88233 17.7453 5.17645C17.3531 5.47057 16.961 5.76468 16.6669 6.0588L16.5688 6.15684C16.0786 6.549 15.5884 7.03919 15.1963 7.52939C14.8041 7.92155 14.412 8.3137 14.1178 8.8039C13.6276 9.39213 13.1374 9.88233 12.7453 10.5686C12.5492 10.8627 12.3531 11.1568 12.1571 11.451C11.961 11.7451 11.7649 12.0392 11.5688 12.3333C11.1767 12.9215 10.8825 13.5098 10.5884 14.1961C10.3923 14.5882 10.1963 14.8823 10.0002 15.1764C9.80411 15.4706 9.50999 15.7647 9.31391 16.0588C8.72568 16.9412 8.23548 17.8235 8.0394 18.8039C7.94136 19.2941 7.84333 19.6863 7.74529 20.1764C7.64725 21.1568 7.74528 22.0392 7.84332 23.0196C7.94136 23.8039 7.94136 24.5882 7.74529 25.3725C7.64725 26.0588 7.35313 26.7451 7.15705 27.5294C6.86293 28.2157 6.56881 29 6.47077 29.7843C6.37274 30.2745 6.2747 30.7647 6.37274 31.3529C6.47077 31.9412 6.56881 32.5294 6.66685 33.1176C6.96097 34.1961 6.96097 35.2745 6.76489 36.3529C6.56882 37.7255 6.37274 39 6.2747 40.3725C6.17666 40.9608 6.2747 41.647 6.37274 42.2353C6.47077 43.1176 6.76489 44 7.05901 44.8823C7.64725 46.451 8.13744 48.0196 8.62764 49.5882C8.72568 49.9804 8.72568 50.2745 8.62764 50.6666C8.5296 50.8627 8.5296 50.9608 8.43156 51.1568C8.0394 51.8431 7.64725 52.5294 7.25509 53.1176C6.76489 53.9019 6.2747 54.6863 5.68646 55.3725C5.39234 55.8627 5.00019 56.2549 4.70607 56.647C4.11783 57.5294 3.5296 58.4117 2.94136 59.2941C2.74528 59.5882 2.54921 59.8823 2.35313 60.0784C1.76489 60.9608 1.17666 61.8431 0.588422 62.7255C-0.195892 64 -0.980204 65.3725 -1.56844 66.8431C-1.76452 67.2353 -1.86256 67.7255 -2.05864 68.1176C-2.35275 68.8039 -2.45079 69.4902 -2.45079 70.1764C-2.45079 70.8627 -2.54883 71.549 -2.54883 72.2353C-2.54883 73.0196 -2.74491 73.8039 -2.94099 74.5882C-3.43119 75.8627 -4.01942 77.1372 -4.60766 78.4117C-5.19589 79.6863 -5.78413 80.9608 -6.37236 82.3333C-7.05864 84.1961 -7.74491 86.0588 -8.03903 88.0196C-8.13707 88.8039 -8.23511 89.5882 -8.23511 90.2745C-8.23511 90.4706 -8.13707 90.6666 -8.23511 90.9608V91.0588C-8.23511 91.2549 -8.13707 91.3529 -8.13707 91.549C-8.13707 91.8431 -7.94099 92.1372 -7.74491 92.3333C-7.64687 92.4313 -7.54883 92.5294 -7.54883 92.6274C-7.45079 92.7255 -7.45079 92.8235 -7.35275 92.9215C-7.15668 93.2157 -7.05864 93.6078 -6.86256 93.9019C-6.37236 94.5882 -5.88217 95.2745 -5.39197 95.9608C-4.99981 96.451 -4.60766 96.8431 -4.2155 97.2353C-3.33315 98.1176 -2.15668 98.6078 -0.980206 99C-0.0978529 99.2941 0.686461 99.3921 1.56881 99.4902C2.84332 99.5882 4.11783 99.3921 5.39234 99C5.68646 98.9019 5.98058 98.8039 6.2747 98.7059C6.47078 98.6078 6.56882 98.6078 6.76489 98.5098C6.86293 98.5098 6.86293 98.5098 6.96097 98.5098C7.15705 98.5098 7.35313 98.6078 7.54921 98.6078C8.0394 98.6078 8.5296 98.5098 9.01979 98.5098C9.11783 98.5098 9.31391 98.5098 9.41195 98.5098V98.6078L9.31391 98.7059C8.92175 99.1961 8.5296 99.7843 8.33352 100.373C7.94136 101.549 8.13744 102.824 8.72568 103.902C9.0198 104.588 9.60803 105.078 10.1963 105.373C10.3923 105.471 10.5884 105.569 10.7845 105.765C10.7845 105.765 10.7845 105.863 10.8825 105.863C11.2747 106.157 11.5688 106.549 12.059 106.647L12.1571 106.745C12.2551 106.843 12.3531 107.039 12.3531 107.137C12.2551 107.529 12.1571 107.824 12.059 108.118C11.961 108.51 12.059 109 12.1571 109.392C12.2551 109.686 12.5492 109.882 12.8433 109.882C13.1374 109.882 13.4316 109.882 13.6276 109.588L13.7257 109.49C13.9218 109.686 14.0198 109.784 14.2159 109.98C14.412 110.078 14.608 110.274 14.8041 110.373C16.4708 111.353 18.2355 111.843 20.1963 112.137C21.1767 112.235 22.059 112.333 23.0394 112.333C25.2943 112.333 27.6472 112.333 29.9021 112.333C30.8825 112.333 31.8629 112.235 32.8433 112.235C32.9414 112.235 33.0394 112.137 33.2355 112.137C33.8237 112.137 34.4119 112.137 35.0982 112.137C35.9806 112.137 36.961 112.137 37.8433 112.039C38.7257 111.941 39.608 111.941 40.4904 111.941C40.6865 111.941 40.8825 111.843 41.0786 111.843C41.3727 111.843 41.6669 111.843 41.8629 111.843C42.059 111.843 42.3531 111.843 42.5492 111.843C42.9414 111.843 43.2355 111.647 43.5296 111.549C43.6276 111.549 43.6276 111.451 43.6276 111.451C43.5296 111.255 43.4316 111.255 43.2355 111.255C42.4512 111.255 41.6669 111.255 40.8825 111.255C40.0982 111.255 39.2159 111.255 38.4316 111.255C37.6472 111.255 36.7649 111.353 35.9806 111.353C34.608 111.353 33.2355 111.451 31.8629 111.451C28.6276 111.451 25.3923 111.451 22.1571 111.451C21.3727 111.451 20.5884 111.353 19.7061 111.255C18.7257 111.157 17.8433 110.863 16.961 110.569C16.1767 110.373 15.4904 109.98 14.8041 109.588C14.51 109.392 14.2159 109.196 14.0198 108.902C14.412 108.412 14.51 107.824 14.7061 107.235C14.8041 106.843 15.0982 106.549 15.2943 106.157C15.5884 105.765 15.7845 105.373 16.0786 104.98C16.2747 104.686 16.5688 104.392 16.7649 104.098C16.8629 104 16.961 103.902 17.059 103.902C17.2551 103.804 17.5492 103.804 17.7453 103.804C17.8433 103.804 17.9414 103.902 17.9414 103.902C18.1374 104.098 18.3335 104.196 18.5296 104.392C19.0198 104.784 19.3139 105.274 19.51 105.863C19.608 106.255 19.7061 106.647 19.8041 107.137C19.9021 107.922 19.9021 108.706 19.608 109.392C19.608 109.49 19.51 109.588 19.51 109.784C19.51 109.98 19.608 110.078 19.8041 109.98C20.0002 109.882 20.1963 109.784 20.3923 109.588C20.5884 109.392 20.6865 109.196 20.6865 109V108.902C20.8825 108.51 20.8825 108.118 20.7845 107.725C20.6865 107.235 20.6865 106.745 20.5884 106.353C20.4904 105.863 20.1963 105.373 20.0002 104.98C19.8041 104.588 19.412 104.294 19.1178 104C19.0198 103.902 18.9218 103.804 18.8237 103.706C18.9218 103.706 19.0198 103.706 19.0198 103.608C19.51 103.51 20.0002 103.412 20.5884 103.314C21.1767 103.118 21.6669 102.922 22.2551 102.627C22.4512 102.529 22.6472 102.431 22.8433 102.529C23.1374 102.627 23.4316 102.627 23.7257 102.725C24.0198 102.824 24.4119 102.627 24.7061 102.725H24.8041C24.9021 102.627 25.0982 102.627 25.2943 102.627C25.5884 102.725 25.8825 102.725 26.1767 102.725C26.2747 102.725 26.3727 102.725 26.3727 102.725C26.7649 102.824 27.2551 102.922 27.6472 102.725H27.7453C27.9414 102.725 28.1374 102.627 28.3335 102.627C28.6276 102.824 28.9218 103.118 29.3139 103.216C29.51 103.314 29.8041 103.412 30.0982 103.51C30.3923 103.608 30.6865 103.608 31.0786 103.608C31.2747 103.608 31.5688 103.608 31.7649 103.608C32.8433 103.902 33.8237 104.294 34.9021 104.588C35.6865 104.784 36.5688 105.078 37.3531 105.176C37.8433 105.274 38.4316 105.274 38.9218 105.373C39.9021 105.569 40.7845 105.667 41.7649 105.667C42.5492 105.667 43.2355 105.765 44.0198 105.765C44.412 105.765 44.7061 105.863 44.9021 106.059C45.0002 106.157 45.0982 106.157 45.1963 106.255C45.7845 106.647 46.3727 106.843 47.059 107.039C47.7453 107.235 48.4316 107.431 49.1178 107.529C49.3139 107.529 49.412 107.725 49.608 107.529H49.7061C50.0982 107.529 50.3923 107.529 50.7845 107.529C51.1767 107.529 51.5688 107.431 51.961 107.333C52.9414 107.039 53.8237 106.353 54.51 105.569C55.0002 104.98 55.4904 104.392 55.8825 103.706C56.2747 103.02 56.6669 102.431 56.961 101.647C57.059 101.255 57.2551 100.863 57.3531 100.471C57.3531 100.176 57.3531 99.9804 57.3531 99.7843C57.3531 99.3921 57.2551 99.098 57.157 98.8039C57.059 98.5098 57.059 98.3137 57.157 98.1176C57.2551 97.9215 57.4512 97.7255 57.5492 97.5294C58.0394 96.647 58.4316 95.6666 58.7257 94.7843C58.8237 94.5882 58.8237 94.3921 58.9218 94.1961C58.9218 94.1961 58.9218 94.098 59.0198 94.098C59.1178 95.1765 59.0198 96.2549 59.0198 97.3333C59.0198 98.4117 58.9218 99.4902 58.7257 100.569C58.8237 100.569 58.8237 100.569 58.8237 100.569C59.1178 100.176 59.4119 99.8823 59.51 99.3921C59.608 98.7059 59.7061 98.1176 59.7061 97.4314C59.8041 96.7451 59.8041 96.0588 59.9021 95.3725C59.9021 94.8823 60.0002 94.3921 59.9021 93.9019C59.9021 93.7059 59.8041 93.6078 59.8041 93.4117C59.8041 92.9215 59.7061 92.4314 59.7061 92.0392C59.7061 91.7451 59.608 91.3529 59.608 91.0588C59.608 90.8627 59.7061 90.6666 59.7061 90.4706C59.7061 89.8823 59.7061 89.2941 59.7061 88.8039C59.7061 88.1176 59.608 87.4314 59.51 86.7451C59.4119 85.8627 59.3139 84.9804 59.2159 84.1961C59.1178 83.8039 59.2159 83.4117 59.0198 83.0196C59.0198 83.0196 59.0198 83.0196 59.0198 82.9215C59.0198 82.7255 59.0198 82.5294 58.9218 82.2353C58.9218 81.9412 58.8237 81.549 58.7257 81.2549C58.6276 80.7647 58.7257 80.1764 58.4316 79.6863V79.5882C58.4316 79.4902 58.4316 79.2941 58.4316 79.1961C58.1374 78.0196 57.9414 76.8431 57.6472 75.5686C57.6472 75.4706 57.6472 75.4706 57.6472 75.3725C57.7453 75.3725 57.7453 75.4706 57.7453 75.4706C57.8433 75.7647 58.0394 76.0588 58.1374 76.3529C58.5296 77.4314 58.8237 78.5098 59.2159 79.5882C59.9021 81.647 60.4904 83.8039 60.9806 85.9608C61.1767 86.7451 61.3727 87.6274 61.4708 88.5098C61.5688 89.1961 61.7649 89.8823 61.8629 90.6666C62.059 91.7451 62.1571 92.8235 62.2551 94C62.2551 94 62.2551 94.098 62.3531 94.1961C62.5492 94 62.5492 93.7059 62.5492 93.5098C62.6472 92.6274 62.6472 91.7451 62.5492 90.8627C62.3531 89.6863 62.157 88.6078 61.961 87.4313C61.8629 86.451 61.4708 85.4706 61.2747 84.4902C61.2747 84.1961 61.1767 83.9019 61.0786 83.6078C60.7845 82.7255 60.5884 81.8431 60.2943 80.9608C60.0002 79.9804 59.7061 78.9019 59.3139 77.9215C59.1178 77.2353 58.9218 76.451 58.6276 75.7647C58.2355 74.6863 57.7453 73.5098 57.2551 72.4314C57.059 71.8431 56.7649 71.2549 56.4708 70.6666C56.2747 70.3725 56.1767 69.9804 56.0786 69.6863C55.9806 69.1961 55.7845 68.8039 55.5884 68.3137C55.4904 67.9215 55.2943 67.6274 55.1963 67.2353C55.0002 66.647 54.8041 66.0588 54.608 65.4706C54.608 65.3725 54.51 65.3725 54.51 65.2745C54.51 65.0784 54.412 64.9804 54.412 64.7843C54.412 64.5882 54.3139 64.4902 54.3139 64.2941C54.51 64.3921 54.608 64.4902 54.8041 64.5882C55.1963 64.7843 55.5884 65.1764 55.9806 65.4706C56.6669 65.9608 57.2551 66.549 57.7453 67.3333C58.1374 67.9215 58.3335 68.5098 58.6276 69C58.6276 69.098 58.7257 69.1961 58.7257 69.2941C58.7257 69.3921 58.8237 69.4902 58.9218 69.5882C59.0198 69.6863 59.2159 69.5882 59.2159 69.4902C59.2159 69.3921 59.2159 69.2941 59.2159 69.2941C59.1178 69.098 59.1178 68.8039 59.0198 68.6078C58.7257 67.9215 58.3335 67.2353 57.9414 66.647C57.4512 65.8627 56.8629 65.2745 56.0786 64.6863C55.5884 64.2941 55.0002 63.9019 54.412 63.5098C54.2159 63.3137 53.9218 63.2157 53.6276 63.1176C52.2551 62.6274 50.7845 62.4314 49.4119 62.2353C47.3531 62.0392 45.1963 62.1372 43.1374 62.5294C42.2551 62.6274 41.4708 62.9215 40.5884 63.2157C39.608 63.6078 38.6276 63.9019 37.7453 64.2941C35.8825 65.1764 34.2159 66.0588 32.4512 67.2353C31.6669 67.7255 30.8825 68.2157 30.0982 68.8039C29.1178 69.5882 28.1374 70.3725 27.059 71.1568C26.6669 71.451 26.1767 71.8431 25.7845 72.1372C25.0982 72.7255 24.51 73.4117 23.9218 74C23.8237 74.098 23.7257 74.1961 23.6276 74.1961C23.6276 74.098 23.6276 74 23.6276 74C23.8237 73.6078 23.9218 73.3137 24.1178 72.9216C24.51 72.1372 24.9022 71.3529 25.3923 70.6666C25.8825 70.0784 26.2747 69.3921 26.7649 68.8039C27.7453 67.5294 28.9218 66.549 30.1963 65.6666C30.8825 65.1765 31.5688 64.6863 32.3531 64.1961C33.3335 63.5098 34.4119 62.9215 35.4904 62.4313C35.7845 62.3333 36.0786 62.1372 36.3727 62.0392C37.3531 61.647 38.3335 61.2549 39.3139 60.8627C39.608 60.7647 39.9021 60.6666 40.1963 60.6666C40.8825 60.4706 41.6669 60.2745 42.3531 60.0784C42.4512 60.0784 42.6472 59.9804 42.7453 59.9804C42.9414 59.8823 43.0394 59.7843 43.2355 59.7843C43.3335 59.7843 43.4316 59.6863 43.3335 59.5882C43.2355 59.4902 43.1374 59.3921 43.0394 59.3921C42.3531 59.3921 41.7649 59.4902 41.0786 59.6863C40.5884 59.7843 40.1963 59.9804 39.7061 60.0784C38.8237 60.1764 37.9414 60.5686 37.1571 60.9608C36.4708 61.2549 35.7845 61.549 35.1963 61.8431C34.7061 62.0392 34.3139 62.2353 33.8237 62.4313C32.9414 62.9215 32.059 63.5098 31.1767 64.098C30.2943 64.6863 29.412 65.3725 28.5296 66.0588C28.5296 66.0588 28.4316 66.0588 28.4316 66.1568C28.6276 65.6666 28.9218 65.0784 29.1178 64.5882C29.51 64 29.8041 63.3137 30.2943 62.7255C30.7845 62.0392 31.1767 61.451 31.7649 60.8627C31.8629 60.7647 31.961 60.5686 32.059 60.4706C32.4512 59.9804 32.9414 59.4902 33.4316 59C33.7257 58.8039 34.0198 58.5098 34.2159 58.3137C34.51 57.9215 34.9021 57.6274 35.3923 57.4314C36.3727 56.7451 37.4512 56.1568 38.6276 55.7647C39.7061 55.3725 40.7845 55.0784 41.961 54.6863C42.2551 54.5882 42.5492 54.4902 42.8433 54.3921C43.2355 54.2941 43.7257 54.1961 44.1178 54.098C44.51 54 44.9021 54 45.2943 54C45.5884 54 45.8825 54 46.1767 54C46.2747 54 46.3727 54 46.4708 54C46.7649 54 47.059 54 47.3531 54C47.5492 54 47.6472 53.9019 47.8433 53.8039C47.9414 53.7059 48.0394 53.6078 48.0394 53.5098C47.7453 53.4117 47.5492 53.4117 47.2551 53.4117C47.059 53.4117 46.7649 53.4117 46.5688 53.4117C46.1767 53.4117 45.7845 53.3137 45.4904 53.3137C45.0982 53.3137 44.7061 53.3137 44.3139 53.3137C43.5296 53.4117 42.7453 53.6078 41.961 53.8039C40.4904 54.1961 38.9218 54.6863 37.4512 55.3725C37.4512 55.3725 37.4512 55.3725 37.3531 55.3725C37.4512 55.2745 37.5492 55.0784 37.6472 55.0784C38.0394 54.7843 38.4316 54.4902 38.8237 54.1961C39.0198 54 39.3139 53.9019 39.51 53.7059C40.0002 53.2157 40.5884 53.0196 41.1767 52.7255C41.6669 52.4313 42.157 52.2353 42.7453 52.0392C42.9414 51.9412 43.2355 51.8431 43.4316 51.7451C43.9218 51.549 44.3139 51.549 44.8041 51.451C45.0982 51.451 45.4904 51.3529 45.7845 51.3529C46.4708 51.3529 47.157 51.3529 47.7453 51.451C48.2355 51.549 48.7257 51.647 49.2159 51.8431C49.7061 52.0392 50.0982 52.2353 50.5884 52.5294C51.0786 52.8235 51.5688 53.2157 51.961 53.6078C52.3531 54.098 52.7453 54.5882 53.1374 55.0784C54.0198 56.2549 54.8041 57.5294 55.2943 58.9019C55.2943 59 55.3923 59.098 55.3923 59.1961C55.0982 59 54.9021 58.9019 54.608 58.7059C53.9218 58.2157 53.2355 57.8235 52.4512 57.5294C51.8629 57.3333 51.1767 57.1372 50.5884 56.8431C49.9021 56.647 49.2159 56.451 48.4316 56.3529C48.1374 56.3529 47.8433 56.3529 47.5492 56.2549C47.2551 56.2549 46.961 56.2549 46.7649 56.2549C45.4904 56.2549 44.1178 56.2549 42.8433 56.3529C42.5492 56.3529 42.2551 56.3529 42.059 56.451C41.1767 56.647 40.3923 56.7451 39.51 56.9412C38.5296 57.1372 37.6472 57.5294 36.8629 58.0196C36.7649 58.1176 36.6669 58.2157 36.5688 58.2157L36.4708 58.3137V58.4117L36.5688 58.5098C36.6669 58.5098 36.6669 58.5098 36.7649 58.4117C37.3531 58.2157 37.9414 57.9216 38.5296 57.7255C38.9218 57.6274 39.412 57.4314 39.8041 57.3333C40.0002 57.2353 40.2943 57.2353 40.4904 57.2353C41.1767 57.0392 41.961 56.9412 42.6472 56.8431C43.1374 56.8431 43.7257 56.7451 44.2159 56.7451C44.412 56.7451 44.608 56.7451 44.7061 56.7451C44.8041 56.7451 44.9021 56.7451 45.0002 56.7451C45.0982 56.7451 45.1963 56.7451 45.2943 56.7451C46.0786 56.7451 46.7649 56.7451 47.5492 56.7451C48.2355 56.7451 48.8237 56.7451 49.4119 56.9412C50.0982 57.0392 50.8825 57.3333 51.5688 57.5294C52.2551 57.8235 53.0394 58.0196 53.6276 58.4117C53.8237 58.6078 54.1178 58.7059 54.3139 58.9019C54.608 59.098 54.9021 59.3921 55.1963 59.5882C55.4904 59.7843 55.7845 59.9804 56.0786 60.2745C56.6669 60.7647 57.157 61.3529 57.7453 61.9412C58.2355 62.4313 58.6276 63.0196 58.9218 63.6078C59.0198 63.9019 59.2159 64.1961 59.3139 64.3921C59.608 65.0784 60.0002 65.6666 60.2943 66.3529C60.6865 67.1372 60.9806 68.0196 61.2747 68.9019C62.059 70.7647 62.5492 72.6274 62.9414 74.6863C63.1374 75.6666 63.2355 76.647 63.3335 77.6274C63.4316 78.3137 63.5296 79 63.5296 79.6863C63.6276 80.6666 63.6276 81.647 63.6276 82.6274C63.6276 83.8039 63.5296 84.9804 63.4316 86.2549C63.4316 86.7451 63.3335 87.2353 63.3335 87.7255C63.3335 87.8235 63.3335 87.8235 63.3335 87.9215C63.5296 87.8235 63.5296 87.8235 63.5296 87.6274C63.7257 87.1372 63.8237 86.549 63.9218 86.0588C63.7257 84.098 63.8237 82.7255 63.8237 81.451ZM10.9806 41.7451C10.9806 41.8431 10.9806 42.0392 10.9806 42.1372C10.9806 41.9412 10.9806 41.8431 10.9806 41.7451ZM10.8825 28.8039C10.8825 28.9019 10.8825 29 10.8825 29.098C10.8825 29.098 10.8825 29 10.8825 28.8039ZM8.0394 58.1176C8.13744 57.7255 8.13744 57.2353 8.13744 56.8431C8.23548 56.0588 8.33352 55.2745 8.43156 54.4902C8.5296 53.9019 8.5296 53.4117 8.62764 52.8235C8.62764 52.3333 8.72568 51.8431 8.72568 51.3529C8.72568 51.2549 8.72568 51.1568 8.82372 51.0588C8.82372 51.3529 8.92176 51.549 8.92176 51.8431C8.92176 52.2353 9.01979 52.7255 9.01979 53.1176C9.01979 53.9019 8.92175 54.6863 8.82372 55.4706C8.62764 56.549 8.5296 57.5294 8.33352 58.6078C8.23548 59.2941 8.13744 60.0784 8.0394 60.7647C8.0394 60.8627 8.0394 61.0588 7.94136 61.1568C7.94136 60.1765 7.94136 59.1961 8.0394 58.1176ZM7.84332 69.8823C8.0394 68.5098 8.5296 67.3333 8.92176 66.0588C9.11783 65.5686 9.21587 65.1765 9.41195 64.5882C10.0982 64.9804 10.6865 65.3725 11.2747 65.7647C10.4904 66.647 9.90215 67.6274 9.31391 68.6078C8.72568 69.5882 8.0394 70.4706 7.64725 71.549C7.64725 71.549 7.64725 71.549 7.54921 71.549C7.54921 71.451 7.54921 71.451 7.54921 71.3529C7.54921 70.8627 7.74528 70.3725 7.84332 69.8823ZM10.9806 72.9216C10.9806 73.0196 11.0786 73.0196 11.0786 73.1176C11.1767 73.1176 11.2747 73.1176 11.2747 73.0196C11.3727 73.0196 11.3727 72.9215 11.3727 72.8235C11.7649 72.0392 12.1571 71.2549 12.6472 70.4706C12.8433 70.1765 12.9414 69.8823 13.1374 69.5882C13.4316 69 13.7257 68.4117 14.0198 67.8235C14.2159 67.5294 14.412 67.2353 14.51 66.9412C14.7061 67.0392 14.8041 67.0392 15.0002 67.1372C14.9021 67.5294 14.9021 67.9215 14.8041 68.3137C14.7061 69 14.608 69.6863 14.412 70.3725C14.3139 71.0588 14.1178 71.8431 14.0198 72.5294C14.0198 72.7255 14.0198 72.9215 14.0198 73.1176V73.2157L14.1178 73.3137L14.2159 73.2157C14.3139 73.0196 14.412 72.8235 14.412 72.6274C14.7061 71.7451 14.9021 70.7647 15.0002 69.7843C15.0982 68.9019 15.2943 68.1176 15.4904 67.2353V67.1372C16.3727 67.3333 17.2551 67.5294 18.0394 67.7255C18.0394 67.8235 18.0394 67.9216 18.0394 68.0196C18.0394 68.7059 18.0394 69.3921 18.0394 70.1764C18.0394 70.4706 17.9414 70.7647 17.9414 71.0588C17.9414 71.647 17.8433 72.2353 17.8433 72.8235C17.8433 73.2157 17.7453 73.6078 17.7453 73.9019C17.7453 74 17.7453 74.1961 17.8433 74.2941C17.8433 74.3921 17.9414 74.4902 18.0394 74.5882C18.1374 74.4902 18.1374 74.4902 18.1374 74.3921C18.4316 73.8039 18.5296 73.2157 18.6276 72.5294C18.7257 71.2549 18.8237 69.9804 18.8237 68.7059C18.8237 68.5098 18.8237 68.4117 18.8237 68.2157C18.8237 68.1176 18.8237 68.0196 18.8237 67.9215C19.9021 68.0196 20.8825 68.1176 21.8629 68.2157C22.059 69.098 22.2551 70.0784 22.3531 71.0588C22.4512 71.549 22.4512 72.0392 22.5492 72.4314C22.5492 72.5294 22.5492 72.6274 22.5492 72.6274C22.3531 73.2157 22.1571 73.8039 21.961 74.4902C21.961 74.5882 21.8629 74.5882 21.8629 74.6863C21.5688 74.9804 21.3727 75.3725 21.0786 75.6666C20.1963 76.7451 19.412 77.8235 18.8237 79.098C18.6276 79.4902 18.5296 79.9804 18.4316 80.3725C18.1374 81.2549 17.9414 82.0392 17.9414 82.9215C17.9414 83.3137 17.9414 83.6078 17.9414 84C17.9414 84.098 17.9414 84.1961 17.8433 84.2941C17.2551 84.6863 16.6669 85.1764 16.0786 85.5686C16.0786 85.5686 15.9806 85.5686 15.8825 85.6666C15.8825 85.1765 15.9806 84.7843 15.9806 84.2941C15.9806 83.8039 15.9806 83.4117 15.9806 82.9215C15.9806 82.4314 15.9806 82.0392 15.9806 81.549C15.9806 81.0588 15.9806 80.6666 15.9806 80.1764C15.9806 79.7843 15.9806 79.2941 16.0786 78.9019C15.8825 78.9019 15.8825 79 15.8825 79.098C15.7845 79.3921 15.7845 79.5882 15.6865 79.8823C15.5884 80.4706 15.4904 80.9608 15.4904 81.549C15.3923 82.3333 15.3923 83.2157 15.3923 84.098C15.3923 84.4902 15.3923 84.9804 15.1963 85.3725C14.9021 85.2745 14.7061 85.1764 14.412 85.0784C14.0198 84.8823 13.7257 84.7843 13.3335 84.5882C13.1374 84.4902 13.0394 84.3921 13.0394 84.1961C12.9414 83.7059 12.8433 83.3137 12.8433 82.8235C12.6472 81.647 12.4512 80.4706 12.2551 79.2941C12.157 78.9019 12.1571 78.5098 12.059 78.1176C11.961 77.7255 11.8629 77.4314 11.7649 77.0392C11.7649 77.0392 11.7649 76.9412 11.6669 76.9412C11.5688 77.0392 11.5688 77.1372 11.4708 77.2353C11.3727 77.8235 11.3727 78.3137 11.4708 78.9019C11.5688 79.4902 11.6669 80.1765 11.7649 80.7647C11.8629 81.2549 11.961 81.8431 11.961 82.3333L11.961 82.4314C11.8629 82.3333 11.8629 82.3333 11.8629 82.2353C11.4708 81.549 11.0786 80.7647 10.6865 80.0784C10.4904 79.7843 10.2943 79.3921 10.0982 79.098C10.0982 79.098 10.0982 79 10.0002 79C9.60803 78.6078 9.31391 78.2157 9.11783 77.8235C8.92176 77.5294 8.72568 77.2353 8.5296 76.9412C8.13744 76.3529 8.0394 75.7647 7.94136 75.0784C7.84332 74.6863 7.74529 74.1961 7.64725 73.8039C7.54921 73.4117 7.54921 72.9215 7.74529 72.5294C8.43156 70.9608 9.21587 69.4902 10.1963 68.1176C10.5884 67.5294 10.9806 66.9412 11.3727 66.3529C11.4708 66.1568 11.6669 65.9608 11.8629 65.7647C12.5492 65.9608 13.1374 66.2549 13.7257 66.451C13.7257 66.549 13.6276 66.549 13.6276 66.647C13.3335 67.1372 13.0394 67.7255 12.7453 68.2157C12.6472 68.3137 12.6472 68.4117 12.5492 68.6078C12.3531 69 12.2551 69.2941 12.059 69.6863C11.961 69.8823 11.8629 70.0784 11.7649 70.3725C11.5688 70.7647 11.3727 71.1568 11.1767 71.549C11.0786 71.7451 10.9806 72.0392 10.8825 72.2353C10.8825 72.6274 10.8825 72.8235 10.9806 72.9216ZM30.3923 74.6863C30.0002 75.3725 29.608 76.0588 29.2159 76.7451C28.5296 78.0196 27.7453 79.1961 26.8629 80.2745C26.1767 81.1568 25.5884 82.0392 24.9022 82.9215C24.51 83.4117 24.1178 83.9019 23.6276 84.4902C23.0394 85.1764 22.5492 85.7647 21.961 86.3529C21.7649 86.647 21.4708 86.8431 21.2747 87.1372C20.5884 86.8431 20.0002 86.549 19.2159 86.3529C18.5296 86.1568 17.8433 86.1568 17.059 86.1568C17.3531 85.9608 17.5492 85.7647 17.7453 85.5686C18.3335 85.1764 18.8237 84.7843 19.412 84.2941C20.0002 83.8039 20.5884 83.4117 21.1767 83.0196C21.8629 82.5294 22.5492 81.9412 23.2355 81.451C24.4119 80.4706 25.4904 79.3921 26.6669 78.4117C27.8433 77.4314 28.8237 76.3529 29.9021 75.2745C30.0982 74.9804 30.2943 74.7843 30.3923 74.6863C30.4904 74.6863 30.4904 74.5882 30.3923 74.6863ZM30.7845 80.8627C31.2747 80.1765 31.7649 79.3921 32.2551 78.7059C32.5492 78.3137 32.8433 77.8235 33.1374 77.4314C33.3335 77.0392 33.6276 76.647 33.8237 76.2549C34.2159 75.6666 34.7061 75.0784 35.0982 74.3921C35.3923 74 35.5884 73.7059 35.8825 73.3137C36.4708 72.5294 36.8629 71.7451 37.3531 70.8627C37.5492 70.5686 37.7453 70.2745 38.0394 70.0784C34.3139 76.0588 30.3923 81.9412 26.2747 87.6274C26.2747 87.6274 26.2747 87.6274 26.1767 87.6274C26.2747 87.5294 26.2747 87.4314 26.3727 87.3333C26.7649 86.7451 27.059 86.2549 27.4512 85.6666C27.7453 85.1765 28.0394 84.6863 28.4316 84.1961C29.2159 83.0196 30.0002 81.9412 30.7845 80.8627ZM25.7845 83.0196C25.4904 84 25.2943 84.9804 24.9022 85.9608C24.608 86.7451 24.2159 87.4314 23.8237 88.2157C23.2355 87.9215 22.6472 87.6274 22.059 87.4313C23.3335 85.9608 24.608 84.4902 25.7845 83.0196ZM5.19627 59.1961C5.19627 59.2941 5.29431 59.2941 5.29431 59.3921C5.49038 59.8823 5.58842 60.3725 5.7845 60.8627C5.88254 61.2549 6.07862 61.647 6.17666 62.0392C6.17666 62.0392 6.17666 62.1372 6.2747 62.2353C5.7845 61.7451 5.09823 59.8823 5.19627 59.1961ZM2.25509 65.9608C3.0394 66.9412 3.62764 68.0196 4.11783 69.098C4.31391 69.6863 4.50999 70.2745 4.70607 70.8627C4.31391 70.4706 2.15705 66.2549 2.05901 65.6666C2.15705 65.8627 2.15705 65.8627 2.25509 65.9608ZM2.54921 71.451C2.35313 71.451 0.88254 70.6666 0.588422 70.4706C1.2747 70.5686 1.86293 70.9608 2.54921 71.451ZM0.784501 74.4902C1.56881 74.4902 2.35313 74.6863 3.13744 74.8823C4.01979 75.0784 4.80411 75.4706 5.58842 75.7647C5.7845 75.8627 5.98058 75.9608 6.07862 76.0588C6.17666 76.0588 6.17666 76.1568 6.2747 76.2549C6.17666 76.2549 6.17666 76.2549 6.17666 76.2549C4.31391 75.5686 2.45117 74.9804 0.588422 74.5882C0.588422 74.4902 0.686462 74.4902 0.784501 74.4902ZM-2.84295 79.5882C-2.15668 79.098 -1.4704 78.6078 -0.686087 78.4117C-0.490009 78.3137 -0.195892 78.3137 0.000186332 78.2157C0.392343 78.1176 0.88254 78.0196 1.2747 77.9215C1.76489 77.8235 2.35313 77.8235 2.84333 77.7255C2.94136 77.7255 2.94136 77.7255 3.0394 77.7255C3.33352 77.8235 3.5296 77.8235 3.82372 77.9215C3.82372 77.9215 3.92176 77.9215 3.82372 78.0196C3.62764 78.0196 3.33352 78.1176 3.13744 78.1176C1.56881 78.2157 0.0982259 78.7059 -1.37236 79.1961C-1.86256 79.3921 -2.35275 79.4902 -2.84295 79.5882C-2.84295 79.6863 -2.84295 79.6863 -2.94099 79.6863C-2.94099 79.6863 -2.94099 79.6863 -2.84295 79.5882ZM8.62764 97.3333C8.0394 97.4313 7.35313 97.4314 6.76489 97.4314C6.2747 97.4314 5.88254 97.4313 5.39234 97.3333C3.5296 97.2353 1.86293 96.7451 0.196266 95.8627C-0.0978521 95.6666 -0.391969 95.4706 -0.588047 95.2745C-0.980204 94.9804 -1.27432 94.6863 -1.56844 94.2941C-2.15667 93.7059 -2.54883 93.0196 -2.84295 92.2353C-3.03903 91.7451 -3.23511 91.1568 -3.33315 90.5686C-3.33315 90.4706 -3.33315 90.3725 -3.33315 90.2745C-3.33315 90.0784 -3.33315 89.8823 -3.33315 89.7843C-3.33315 89.6863 -3.33315 89.4902 -3.33315 89.3921C-3.23511 88.8039 -3.23511 88.3137 -3.13707 87.7255C-3.13707 87.6274 -3.13707 87.5294 -3.13707 87.5294C-2.94099 86.9412 -2.74491 86.3529 -2.54883 85.8627C-2.45079 85.6666 -2.35275 85.4706 -2.25471 85.2745C-2.05864 84.9804 -1.86256 84.5882 -1.66648 84.2941C-1.27432 83.8039 -0.882166 83.4117 -0.39197 83.1176C-0.0978525 82.9215 0.098227 82.8235 0.392345 82.6274C0.882541 82.3333 1.37274 82.1372 1.96097 81.9412C2.05901 81.9412 2.25509 81.8431 2.45117 81.8431C2.64725 81.8431 2.94136 81.8431 3.13744 81.8431C3.23548 81.8431 3.23548 81.8431 3.33352 81.7451C3.43156 81.7451 3.5296 81.7451 3.5296 81.7451C3.62764 81.8431 3.82372 81.8431 3.92175 81.8431C5.2943 81.9412 6.66685 82.1372 7.94136 82.7255C8.13744 82.8235 8.33352 83.0196 8.5296 83.1176C9.60803 83.7059 10.6865 84.2941 11.6669 84.8823C12.3531 85.2745 13.1374 85.5686 13.8237 85.8627C14.0198 85.9608 14.2159 86.0588 14.412 86.2549C14.1178 86.2549 13.9218 86.3529 13.6276 86.3529C13.1374 86.451 12.5492 86.549 12.059 86.647C11.3727 86.7451 10.8825 87.1372 10.4904 87.7255C10.2943 88.0196 10.0002 88.3137 9.80411 88.7059C9.50999 89.4902 9.21587 90.2745 9.21587 91.1568C9.21587 91.647 9.21587 92.1372 9.31391 92.6274C9.31391 93.0196 9.41195 93.4117 9.50999 93.8039C9.80411 94.7843 10.3923 95.3725 11.2747 95.8627C11.3727 95.9608 11.4708 95.9608 11.6669 96.0588C11.4708 96.2549 11.2747 96.3529 11.0786 96.451C10.8825 96.647 10.6865 96.7451 10.4904 96.9412C10.2943 97.0392 10.0982 97.2353 9.90215 97.2353C9.50999 97.1372 9.0198 97.2353 8.62764 97.3333ZM20.1963 102.137C19.608 102.333 19.0198 102.431 18.4316 102.529C17.8433 102.627 17.2551 102.725 16.7649 102.824C16.3727 102.922 16.0786 103.02 15.8825 103.412C15.7845 103.51 15.6865 103.706 15.5884 103.804C15.1963 104.392 14.7061 105.078 14.3139 105.667C14.1178 105.961 13.9218 106.353 13.8237 106.745C13.6276 107.333 13.4316 107.824 13.1374 108.314C13.0394 108.51 12.8433 108.608 12.5492 108.804C12.4512 108.51 12.3531 108.314 12.4512 108.02C12.6472 107.529 12.7453 107.039 12.9414 106.451C13.1374 105.863 13.3335 105.274 13.5296 104.686C13.7257 104.294 13.8237 104 14.0198 103.608C14.2159 103.118 14.412 102.725 14.412 102.235C14.412 102.137 14.51 102.039 14.51 101.941C14.51 101.843 14.608 101.745 14.51 101.647C14.412 101.549 14.3139 101.353 14.2159 101.353C14.1178 101.353 14.0198 101.451 14.0198 101.549C13.9218 101.843 13.9218 102.137 13.8237 102.431C13.8237 102.529 13.7257 102.725 13.7257 102.824C13.3335 103.804 12.9414 104.686 12.5492 105.667C12.5492 105.667 12.5492 105.765 12.4512 105.863C12.4512 105.765 12.3531 105.667 12.3531 105.569C12.3531 105.176 12.3531 104.784 12.4512 104.392C12.5492 103.608 12.7453 102.824 12.9414 102.137C12.9414 101.941 13.0394 101.745 13.0394 101.549C13.1374 101.255 13.2355 100.961 13.3335 100.667C13.3335 100.471 13.4316 100.176 13.4316 99.9804C13.4316 99.8823 13.4316 99.7843 13.3335 99.6863C13.2355 99.5882 13.1374 99.4902 13.0394 99.4902C12.9414 99.4902 12.9414 99.5882 12.9414 99.6863C12.7453 100.471 12.5492 101.353 12.3531 102.137C12.3531 102.333 12.2551 102.529 12.1571 102.725C12.059 103.314 11.7649 104 11.8629 104.588C11.8629 104.882 11.7649 105.176 11.7649 105.569C11.4708 105.373 11.2747 105.176 11.0786 104.882C10.8825 104.588 10.8825 104.294 10.8825 104C10.8825 103.216 10.9806 102.431 11.2747 101.745C11.3727 101.353 11.5688 101.059 11.7649 100.667C11.961 100.176 12.157 99.6863 12.3531 99.1961C12.4512 99 12.4512 98.7059 12.5492 98.5098C12.5492 98.4117 12.5492 98.2157 12.4512 98.1176C12.2551 97.9215 12.059 97.9215 11.961 98.2157C11.7649 98.8039 11.4708 99.2941 11.2747 99.8823C11.1767 100.078 11.0786 100.274 10.8825 100.471C10.7845 100.569 10.6865 100.667 10.5884 100.765C10.3923 100.961 10.2943 101.255 10.3923 101.647C10.3923 101.745 10.4904 101.843 10.3923 101.941C10.0982 102.725 10.0982 103.51 10.0982 104.294V104.392C10.0002 104.294 9.90215 104.196 9.80411 104.196C9.41195 103.804 9.21587 103.412 9.01979 102.922C8.92176 102.431 8.82372 101.843 8.82372 101.353C8.82372 100.961 8.92176 100.667 9.01979 100.373C9.31391 99.6863 9.70607 99.098 10.1963 98.6078C10.3923 98.4117 10.5884 98.2157 10.6865 98.0196C10.8825 97.7255 11.2747 97.6274 11.4708 97.3333C11.5688 97.2353 11.6669 97.2353 11.7649 97.1372C11.961 97.0392 12.157 96.8431 12.3531 96.7451C12.5492 96.647 12.6472 96.549 12.8433 96.451C13.0394 96.3529 13.3335 96.1568 13.5296 96.0588C13.7257 95.9608 13.7257 95.9608 13.8237 96.1568C14.3139 96.8431 14.9021 97.4314 15.4904 98.0196C15.6865 98.2157 15.9806 98.3137 16.1767 98.5098C16.6669 98.9019 17.157 99.2941 17.6472 99.6863C18.2355 100.176 18.9218 100.667 19.608 100.961C20.0982 101.255 20.5884 101.451 21.1767 101.745C21.2747 101.745 21.2747 101.843 21.3727 101.843C20.8825 101.941 20.5884 102.039 20.1963 102.137ZM31.4708 101.941C31.2747 102.137 31.0786 102.333 30.7845 102.333C30.0002 102.431 29.3139 102.137 28.7257 101.745C28.4316 101.549 28.2355 101.451 27.9414 101.255C27.7453 101.157 27.5492 100.961 27.4512 100.863C27.059 100.471 26.6669 100.078 26.2747 99.7843C25.9806 99.5882 25.6865 99.2941 25.4904 99.098C24.9021 98.6078 24.3139 98.1176 23.7257 97.7255C23.3335 97.4313 22.8433 97.2353 22.3531 97.0392C22.2551 96.9412 22.059 96.9412 21.961 97.0392C21.8629 97.1372 21.961 97.3333 22.059 97.4314C22.059 97.4314 22.157 97.5294 22.2551 97.5294C22.3531 97.6274 22.5492 97.6274 22.6472 97.7255C22.9414 97.9215 23.2355 98.1176 23.5296 98.3137C24.0198 98.7059 24.51 99.098 25.0002 99.4902C25.5884 99.9804 26.0786 100.569 26.6669 100.961C26.8629 101.059 26.961 101.353 27.157 101.549C26.5688 101.549 26.0786 101.451 25.5884 101.451C25.0002 101.353 24.412 101.157 23.9218 100.863C23.2355 100.373 22.5492 99.8823 21.961 99.3921C21.5688 99.098 21.1767 98.8039 20.6865 98.5098C20.3923 98.3137 20.0982 98.3137 19.7061 98.3137C19.51 98.3137 19.412 98.4117 19.51 98.6078C19.51 98.7059 19.7061 98.8039 19.8041 98.8039C20.0982 98.8039 20.3923 98.9019 20.5884 99.098C20.8825 99.3921 21.2747 99.5882 21.5688 99.8823C21.961 100.176 22.3531 100.569 22.7453 100.863C22.9414 101.059 23.1374 101.157 23.3335 101.255C23.4316 101.353 23.5296 101.451 23.6276 101.451C23.6276 101.451 23.6276 101.451 23.6276 101.549C23.5296 101.549 23.5296 101.549 23.4316 101.549C22.5492 101.451 21.7649 101.157 20.9806 100.863C19.8041 100.274 18.6276 99.7843 17.5492 98.9019C17.059 98.5098 16.4708 98.1176 15.9806 97.7255C15.2943 97.1372 14.7061 96.549 14.1178 95.8627C13.7257 95.3725 13.4316 94.7843 13.1374 94.2941C13.0394 94.098 12.9414 94 12.8433 93.8039C12.7453 93.7059 12.7453 93.6078 12.6472 93.7059C12.5492 93.7059 12.5492 93.9019 12.5492 93.9019C12.6472 94.2941 12.7453 94.6863 12.9414 94.9804C12.9414 95.0784 13.0394 95.1764 13.0394 95.1764C12.9414 95.3725 12.7453 95.3725 12.5492 95.3725C12.3531 95.3725 12.2551 95.3725 12.059 95.2745C11.1767 94.8823 10.5884 94.1961 10.2943 93.2157C10.0982 92.6274 10.0002 92.0392 10.0002 91.451C10.0002 91.2549 10.0982 91.0588 10.0982 90.8627C10.1963 90.0784 10.3923 89.3921 10.6865 88.7059C10.7845 88.4117 10.9806 88.2157 11.1767 88.0196C11.2747 87.9215 11.3727 87.9215 11.4708 87.8235C11.8629 87.7255 12.2551 87.5294 12.6472 87.4313C12.8433 87.3333 13.1374 87.3333 13.3335 87.3333C14.1178 87.2353 15.0002 87.1372 15.7845 87.0392C16.1767 87.0392 16.4708 86.9412 16.8629 86.9412C16.961 86.9412 17.1571 86.9412 17.2551 86.9412C17.4512 86.9412 17.6472 86.9412 17.8433 86.9412C17.9414 86.9412 18.0394 86.9412 18.1374 86.9412C18.2355 86.9412 18.4316 87.0392 18.5296 87.0392C18.9218 87.1372 19.2159 87.2353 19.608 87.3333C19.9021 87.4314 20.0982 87.4313 20.2943 87.5294C20.4904 87.6274 20.5884 87.6274 20.6865 87.7255C20.7845 87.8235 20.8825 87.8235 20.9806 87.9215C21.5688 88.2157 22.157 88.5098 22.7453 88.7059C22.8433 88.7059 22.8433 88.8039 22.9414 88.8039C23.2355 88.9019 23.5296 89.098 23.9218 89.1961C24.412 89.2941 24.8041 89.5882 25.1963 89.7843C26.1767 90.2745 27.2551 90.4706 28.3335 90.7647C28.7257 90.8627 29.0198 90.9608 29.412 91.0588C29.7061 91.1568 29.9021 91.2549 30.1963 91.3529C30.4904 91.451 30.5884 91.549 30.7845 91.7451C30.4904 92.3333 30.5884 92.3333 29.9021 92.2353C29.51 92.1372 29.1178 91.9412 28.8237 91.7451C28.6276 91.549 28.4316 91.451 28.2355 91.2549C28.1374 91.2549 28.1374 91.1568 28.0394 91.1568C27.8433 91.1568 27.7453 91.2549 27.8433 91.3529C27.9414 91.451 28.0394 91.647 28.1374 91.7451C28.7257 92.3333 29.3139 92.8235 30.0002 93.2157C30.5884 93.6078 31.2747 94.098 31.8629 94.5882C32.4512 94.9804 32.8433 95.5686 33.1374 96.2549C33.2355 96.3529 33.2355 96.549 33.2355 96.647C33.2355 97.0392 32.8433 97.3333 32.4512 97.1372C32.059 96.9412 31.7649 96.7451 31.4708 96.451C31.1767 96.0588 30.7845 95.7647 30.4904 95.3725L30.3923 95.2745C29.608 94.6863 28.7257 94.098 27.7453 93.9019C27.059 93.8039 26.3727 93.7059 25.6865 93.9019C25.3923 94 25.1963 94.098 25.0002 94.2941C24.8041 94.4902 24.8041 94.6863 24.8041 94.9804C24.9021 95.4706 25.0982 95.9608 25.3923 96.3529C25.9806 97.1372 26.6669 97.9215 27.3531 98.6078C27.6472 98.9019 28.0394 99.098 28.3335 99.3921C28.8237 99.6863 29.3139 100.078 29.8041 100.373C30.0982 100.569 30.4904 100.765 30.7845 101.059C30.9806 101.255 31.1767 101.451 31.2747 101.647C31.5688 101.745 31.4708 101.843 31.4708 101.941ZM53.0394 100.373C52.8433 100.863 52.4512 101.255 52.059 101.647C51.4708 102.235 50.6865 102.627 49.9021 103.02C48.9218 103.412 47.9414 103.804 46.8629 104C46.3727 104.098 45.8825 104.196 45.3923 104.294C44.8041 104.392 44.3139 104.392 43.7257 104.392C43.2355 104.392 42.7453 104.392 42.2551 104.392C41.3727 104.392 40.3923 104.294 39.51 104.196C38.7257 104.098 37.9414 104 37.059 103.902C36.0786 103.804 35.0002 103.51 34.0198 103.216C33.3335 103.02 32.7453 102.824 32.059 102.627C31.961 102.627 31.961 102.627 31.8629 102.529C31.8629 102.431 31.961 102.235 31.961 102.137C32.059 101.941 32.059 101.745 31.961 101.549C31.7649 101.059 31.5688 100.667 31.1767 100.274C31.0786 100.176 30.8825 100.078 30.6865 99.8823C29.8041 99.2941 28.9218 98.7059 28.1374 98.1176C27.3531 97.6274 26.7649 96.9412 26.2747 96.1568C26.0786 95.9608 25.9806 95.7647 25.7845 95.5686C25.5884 95.3725 25.5884 95.1765 25.4904 94.9804C25.4904 94.7843 25.4904 94.6863 25.6865 94.5882C25.9806 94.4902 26.2747 94.3921 26.5688 94.2941H26.6669C27.157 94.4902 27.7453 94.3921 28.2355 94.6863C28.6276 94.8823 29.0198 94.9804 29.3139 95.1764C29.51 95.3725 29.8041 95.4706 30.0002 95.5686C30.0982 95.6666 30.1963 95.6666 30.2943 95.7647C30.6865 96.1568 30.9806 96.549 31.3727 96.9412C31.6669 97.2353 32.059 97.6274 32.4512 97.8235C33.0394 98.1176 33.9218 97.8235 33.9218 97.0392C33.9218 96.549 33.8237 96.0588 33.6276 95.6666C33.6276 95.5686 33.5296 95.4706 33.5296 95.3725C33.8237 95.4706 34.0198 95.5686 34.3139 95.6666C34.608 95.7647 34.9022 95.9608 35.1963 96.0588C35.5884 96.2549 35.8825 96.0588 35.9806 95.6666C35.9806 95.3725 35.9806 94.9804 35.8825 94.6863C35.8825 94.4902 35.8825 94.4902 36.0786 94.3921C36.2747 94.2941 36.4708 94.2941 36.6669 94.3921C37.059 94.5882 37.4512 94.7843 37.9414 94.9804C38.8237 95.3725 39.8041 95.8627 40.6865 96.2549C40.8825 96.3529 41.0786 96.451 41.3727 96.451C41.6669 96.451 41.8629 96.2549 41.961 95.8627C42.059 95.2745 41.961 94.5882 41.961 94C41.961 93.9019 41.961 93.7059 41.961 93.6078C41.961 93.4117 42.059 93.3137 42.2551 93.3137C42.4512 93.3137 42.7453 93.3137 42.9414 93.4117C43.9218 93.7059 45.0002 94.098 45.9806 94.3921C46.7649 94.5882 47.5492 94.8823 48.3335 95.0784C48.6276 95.1765 48.8237 95.1764 49.1178 95.1764C49.412 95.0784 49.4119 95.0784 49.4119 94.7843V94.6863H49.3139C49.0198 94.7843 48.6276 94.6863 48.3335 94.5882C47.2551 94.1961 46.0786 93.8039 45.0002 93.3137C44.3139 93.0196 43.6276 92.8235 42.8433 92.6274C42.6472 92.5294 42.3531 92.5294 42.059 92.6274C41.961 92.6274 41.7649 92.7255 41.7649 92.8235C41.6669 93.0196 41.5688 93.2157 41.5688 93.3137C41.5688 93.7059 41.4708 94.098 41.5688 94.4902C41.5688 94.7843 41.7649 95.1765 41.5688 95.5686C41.3727 95.5686 41.1767 95.5686 40.9806 95.4706C40.7845 95.3725 40.4904 95.2745 40.2943 95.1764C39.2159 94.6863 38.1374 94.1961 37.059 93.6078C36.7649 93.5098 36.4708 93.4117 36.1767 93.5098C35.7845 93.6078 35.4904 94.098 35.5884 94.4902C35.5884 94.7843 35.6865 95.0784 35.6865 95.4706C35.5884 95.3725 35.4904 95.3725 35.3923 95.3725C35.0002 95.1764 34.608 94.9804 34.2159 94.7843C33.9218 94.6863 33.5296 94.5882 33.1374 94.3921C33.0394 94.3921 32.9414 94.2941 32.8433 94.2941C32.3531 93.9019 31.8629 93.5098 31.3727 93.1176L31.2747 93.0196C31.5688 93.0196 31.7649 93.0196 31.961 92.9215C32.5492 92.8235 33.1374 92.7255 33.6276 92.5294C33.9218 92.4314 34.2159 92.4313 34.412 92.4313C34.7061 92.3333 35.0982 92.3333 35.3923 92.2353C35.6865 92.2353 35.9806 92.1372 36.3727 92.1372C36.5688 92.1372 36.7649 92.1372 37.059 92.0392C37.4512 92.0392 37.7453 91.9412 38.1374 91.9412C38.8237 91.8431 39.412 91.7451 40.0982 91.647C40.5884 91.549 41.1767 91.549 41.6669 91.451C42.1571 91.451 42.5492 91.3529 43.0394 91.3529C43.4316 91.3529 43.7257 91.3529 44.1178 91.3529C44.8041 91.3529 45.4904 91.549 46.0786 91.647C46.7649 91.8431 47.4512 91.9412 48.0394 92.2353C48.4316 92.4314 48.7257 92.5294 49.1178 92.7255C49.9021 93.1176 50.6865 93.5098 51.2747 94.1961C51.6669 94.5882 52.059 95.0784 52.4512 95.5686C52.8433 96.1568 53.1374 96.8431 53.3335 97.5294C53.4316 97.9215 53.5296 98.2157 53.5296 98.6078C53.4316 99.2941 53.3335 99.8823 53.0394 100.373ZM38.4316 88.6078C38.4316 88.6078 38.4316 88.5098 38.5296 88.5098C39.1178 87.9215 39.7061 87.4314 40.2943 86.8431C41.4708 85.6666 42.8433 84.6863 44.2159 83.8039C44.7061 83.5098 45.2943 83.2157 45.7845 83.0196C46.0786 82.8235 46.4708 82.6274 46.7649 82.5294C46.961 82.4313 47.157 82.3333 47.4512 82.2353C47.5492 82.2353 47.5492 82.1372 47.6472 82.1372C47.9414 82.0392 48.2355 81.9412 48.6276 81.7451C48.7257 81.7451 48.7257 81.7451 48.8237 81.7451C49.0198 81.7451 49.2159 81.7451 49.51 81.7451C49.608 81.7451 49.7061 81.7451 49.8041 81.7451C49.8041 81.7451 49.8041 81.7451 49.8041 81.8431C49.7061 81.8431 49.608 81.9412 49.51 81.9412C48.6276 82.3333 47.7453 82.6274 46.8629 83.0196C45.3923 83.7059 43.9218 84.4902 42.6472 85.4706C41.2747 86.549 40.0002 87.5294 38.6276 88.6078C38.6276 88.5098 38.5296 88.5098 38.4316 88.6078ZM53.6276 87.4313C53.9218 87.5294 54.2159 87.7255 54.51 87.8235C54.608 87.8235 54.608 87.9215 54.7061 88.0196C54.7061 88.0196 54.7061 88.0196 54.7061 88.1176C54.608 88.1176 54.51 88.1176 54.412 88.0196C53.3335 87.7255 52.1571 87.6274 50.9806 87.4313C50.2943 87.3333 49.608 87.2353 48.8237 87.1372C48.1374 87.1372 47.3531 87.1372 46.6669 87.1372C46.0786 87.1372 45.4904 87.1372 44.9021 87.2353C44.7061 87.2353 44.51 87.2353 44.3139 87.3333C44.7061 87.1372 45.0002 87.0392 45.3923 86.9412C45.8825 86.8431 46.3727 86.8431 46.8629 86.7451C47.059 86.7451 47.2551 86.7451 47.3531 86.7451C48.2355 86.7451 49.1178 86.7451 50.0002 86.8431C51.3727 86.7451 52.5492 86.9412 53.6276 87.4313ZM47.6472 75.2745C48.1374 74.9804 48.6276 74.6863 49.1178 74.4902C50.1963 73.9019 51.3727 73.4117 52.5492 73.0196C52.7453 72.9215 52.9414 72.9216 53.1374 72.9216C53.0394 72.9216 53.0394 73.0196 52.9414 73.0196C52.3531 73.3137 51.6669 73.7059 51.0786 74C49.7061 74.6863 48.4316 75.4706 47.2551 76.2549C46.7649 76.549 46.2747 76.9412 45.7845 77.2353C45.1963 77.6274 44.608 78.0196 44.1178 78.5098C43.7257 78.8039 43.4316 79.098 43.1374 79.2941C41.8629 80.3725 40.6865 81.451 39.4119 82.5294C38.8237 83.0196 38.2355 83.6078 37.6472 84.098C36.3727 85.3725 35.0982 86.647 33.9218 88.0196C33.8237 88.1176 33.8237 88.1176 33.7257 88.2157C34.0198 87.8235 34.2159 87.4314 34.51 87.1372C34.8041 86.7451 35.1963 86.3529 35.5884 85.9608C35.9806 85.5686 36.2747 85.0784 36.6669 84.6863C37.5492 83.8039 38.3335 82.9215 39.2159 82.0392C40.0002 81.2549 40.7845 80.5686 41.5688 79.7843C42.1571 79.2941 42.7453 78.8039 43.3335 78.3137C43.5296 78.2157 43.7257 78.0196 43.8237 77.9215C44.2159 77.5294 44.7061 77.2353 45.1963 76.9412C45.9806 76.451 46.7649 75.8627 47.6472 75.2745ZM40.2943 74.6863C40.5884 74 40.9806 73.4117 41.2747 72.7255C41.4708 72.3333 41.6669 71.9412 41.8629 71.549C41.961 71.2549 42.157 70.9608 42.3531 70.5686C42.5492 70.0784 42.8433 69.6863 43.0394 69.1961C43.3335 68.6078 43.5296 68.0196 43.7257 67.5294C43.9218 67.0392 44.1178 66.647 44.2159 66.1568C44.3139 65.8627 44.412 65.5686 44.51 65.2745C44.608 65.0784 44.7061 64.7843 44.8041 64.5882C45.0982 63.9019 45.3923 63.3137 45.4904 62.5294V62.4313C45.5884 62.4313 45.6865 62.4313 45.7845 62.4313C45.7845 62.5294 45.7845 62.5294 45.7845 62.6274C45.5884 63.4117 45.4904 64.2941 45.1963 65.0784C44.9021 65.7647 44.608 66.451 44.4119 67.1372C43.7257 69.098 42.8433 70.8627 41.961 72.7255C41.5688 73.5098 41.0786 74.1961 40.6865 74.8823C40.0002 76.0588 39.3139 77.1372 38.5296 78.2157C38.4316 78.4117 38.2355 78.6078 38.0394 78.8039C38.5296 77.9216 39.0198 77.1372 39.51 76.2549C39.608 76.0588 39.8041 75.7647 39.9021 75.5686C39.9021 75.2745 40.0982 74.9804 40.2943 74.6863ZM23.5296 74.3921C23.9218 74.098 24.3139 73.7059 24.7061 73.3137C25.0982 72.9215 25.4904 72.5294 25.8825 72.1372C26.4708 71.549 27.1571 71.0588 27.8433 70.5686C28.2355 70.2745 28.5296 70.0784 28.9218 69.7843C29.608 69.2941 30.1963 68.7059 30.8825 68.3137C31.6669 67.8235 32.4512 67.3333 33.2355 66.8431C33.7257 66.451 34.3139 66.2549 34.8041 65.9608C35.0982 65.7647 35.3923 65.5686 35.6865 65.4706C35.7845 65.3725 35.9806 65.3725 36.0786 65.2745C36.3727 65.0784 36.6669 64.9804 36.961 64.7843C37.7453 64.4902 38.5296 64.098 39.3139 63.8039H39.4119C39.4119 63.8039 39.4119 63.8039 39.4119 63.9019C38.6276 64.5882 38.0394 65.3725 37.4512 66.1568C36.1767 67.6274 34.8041 69.098 33.4316 70.5686C32.8433 71.1568 32.2551 71.8431 31.6669 72.4314C31.0786 73.0196 30.5884 73.6078 30.0002 74.098C29.7061 74.3921 29.51 74.6863 29.2159 74.8823C28.2355 75.8627 27.157 76.9412 26.1767 77.9215C25.1963 78.9019 24.1178 79.7843 23.0394 80.7647C22.5492 81.1568 22.059 81.549 21.5688 82.0392C21.4708 82.1372 21.3727 82.2353 21.1767 82.3333C21.1767 82.3333 21.1767 82.3333 21.0786 82.3333C21.1767 82.2353 21.1767 82.0392 21.2747 81.9412C21.7649 80.8627 22.4512 79.8823 23.1374 78.9019C23.2355 78.8039 23.3335 78.7059 23.3335 78.5098C23.7257 77.8235 24.2159 77.2353 24.8041 76.647C25.3923 76.0588 25.8825 75.4706 26.4708 74.8823C26.961 74.3921 27.5492 73.9019 28.0394 73.4117C28.9218 72.5294 29.9022 71.8431 30.7845 71.0588C30.9806 70.9608 31.0786 70.7647 31.2747 70.6666C31.3727 70.5686 31.3727 70.5686 31.3727 70.4706C31.2747 70.3725 31.2747 70.3725 31.1767 70.3725C31.0786 70.4706 30.9806 70.4706 30.8825 70.5686C30.4904 70.8627 30.0982 71.1568 29.608 71.451C29.0198 71.9412 28.4316 72.3333 27.8433 72.8235C27.7453 72.9215 27.5492 73.0196 27.4512 73.2157L27.3531 73.3137C26.8629 73.8039 26.2747 74.2941 25.7845 74.7843C25.1963 75.3725 24.51 75.9608 24.0198 76.647C23.5296 77.2353 23.0394 77.9215 22.6472 78.6078C22.4512 78.8039 22.3531 79.098 22.1571 79.3921C21.4708 80.3725 20.8825 81.451 20.3923 82.6274C20.3923 82.7255 20.2943 82.8235 20.2943 82.9215C20.2943 83.2157 20.0982 83.5098 19.8041 83.7059C19.608 83.9019 19.412 84.098 19.1178 84.098C19.0198 83.8039 19.1178 83.5098 19.1178 83.2157C19.2159 82.7255 19.3139 82.3333 19.412 81.8431C19.412 81.7451 19.412 81.7451 19.412 81.647C19.608 81.1568 19.7061 80.7647 19.9021 80.2745C20.0002 79.9804 20.0982 79.7843 20.1963 79.4902C20.4904 78.6078 21.0786 77.9215 21.5688 77.2353C21.7649 77.0392 21.8629 76.7451 22.059 76.549C22.157 76.451 22.2551 76.3529 22.3531 76.1568C22.4512 76.0588 22.4512 76.0588 22.5492 75.9608C22.6472 75.1765 23.0394 74.7843 23.5296 74.3921ZM23.3335 71.3529C23.1374 70.3725 23.0394 69.2941 22.8433 68.2157C23.6276 68.2157 24.51 68.2157 25.2943 68.0196C24.608 69.1961 23.9218 70.1764 23.3335 71.3529ZM27.157 65.3725C27.059 65.6666 26.8629 66.0588 26.8629 66.3529C26.8629 66.451 26.7649 66.451 26.7649 66.549C26.6669 66.647 26.5688 66.7451 26.4708 66.8431C26.3727 66.9412 26.3727 66.9412 26.2747 66.9412C26.0786 67.0392 25.9806 67.0392 25.7845 67.0392C25.0982 67.3333 24.412 67.4313 23.6276 67.3333C23.2355 67.3333 22.8433 67.3333 22.5492 67.3333C22.059 67.3333 21.6669 67.3333 21.1767 67.2353C20.0002 67.1372 18.8237 66.9412 17.6472 66.7451C15.7845 66.3529 13.9218 65.7647 12.1571 64.9804C11.6669 64.7843 11.1767 64.4902 10.7845 64.1961C10.5884 64.098 10.2943 63.9019 10.0982 63.8039C10.0002 63.7059 9.90215 63.7059 9.80411 63.6078C10.0982 62.8235 10.3923 62.1372 10.6865 61.3529C10.7845 61.451 10.8825 61.451 10.9806 61.549C12.3531 62.5294 13.8237 63.3137 15.3923 63.8039C16.0786 64 16.6669 64.098 17.3531 64.1961C17.9414 64.2941 18.5296 64.3921 19.1178 64.4902C20.0002 64.5882 20.8825 64.6863 21.7649 64.6863C22.5492 64.6863 23.2355 64.6863 24.0198 64.6863C25.0002 64.6863 25.9806 64.5882 26.961 64.3921C27.1571 64.3921 27.2551 64.2941 27.4512 64.2941C27.3531 64.7843 27.2551 65.0784 27.157 65.3725ZM32.4512 30.2745C32.157 30.9608 31.8629 31.549 31.5688 32.1372C31.3727 32.6274 31.1767 33.1176 31.0786 33.7059C31.0786 34 31.0786 34.2941 31.1767 34.5882C31.3727 35.0784 31.5688 35.4706 31.7649 35.8627C31.7649 35.9608 31.8629 36.0588 31.961 36.1568C32.157 36.549 32.2551 36.8431 32.059 37.2353C31.961 37.6274 31.7649 37.9215 31.4708 38.2157C31.2747 38.5098 31.0786 38.7059 30.8825 39C30.5884 39.3921 30.4904 39.7843 30.6865 40.1765C30.7845 40.3725 30.8825 40.6666 30.8825 40.8627C30.8825 40.9608 30.8825 41.1568 30.8825 41.2549C30.6865 41.647 30.6865 42.1372 30.6865 42.5294C30.6865 42.9215 30.7845 43.3137 30.9806 43.7059C31.0786 44 31.1767 44.1961 31.0786 44.4902C30.8825 45.2745 30.6865 46.0588 30.1963 46.7451C30.0002 47.1372 29.8041 47.4313 29.608 47.8235C29.4119 48.2157 29.51 48.5098 29.7061 48.9019C29.9021 49.098 30.0002 49.3921 30.1963 49.5882C30.4904 49.9804 30.5884 50.3725 30.3923 50.7647C30.3923 50.8627 30.2943 50.9608 30.2943 51.0588C30.0982 51.647 30.0982 52.1372 30.2943 52.7255C30.3923 53.0196 30.4904 53.2157 30.5884 53.5098C30.5884 53.6078 30.6865 53.7059 30.6865 53.8039C30.7845 54 30.6865 54.1961 30.4904 54.3921C30.3923 54.3921 30.3923 54.4902 30.2943 54.4902C30.0002 54.7843 29.9021 55.1764 29.9021 55.5686C29.9021 55.7647 30.0982 55.8627 30.1963 56.0588C30.3923 56.1568 30.5884 56.3529 30.6865 56.549C30.8825 56.8431 30.8825 56.8431 30.6865 57.1372C30.2943 57.0392 29.9021 57.1372 29.51 57.2353L29.412 57.3333C29.0198 57.7255 28.9218 58.3137 29.1178 58.8039C29.51 58.8039 29.51 58.3137 29.7061 58.1176C30.0982 58.4117 30.4904 58.6078 30.9806 58.9019C30.7845 59.098 30.5884 59.3921 30.3923 59.5882C29.8041 60.2745 29.2159 60.9608 28.7257 61.647C28.3335 62.2353 28.0394 62.7255 27.6472 63.3137C27.5492 63.5098 27.3531 63.6078 27.157 63.7059C26.5688 63.8039 26.0786 63.9019 25.4904 64C24.8041 64.098 24.1178 64.098 23.4316 64.098C22.7453 64.098 21.961 64.098 21.2747 64.098C21.1767 64.098 20.9806 64 20.8825 64.098H20.7845C20.5884 64 20.4904 64 20.2943 64.098H20.1963C19.8041 63.9019 19.412 64 19.0198 63.9019C18.9218 63.9019 18.8237 63.9019 18.7257 63.9019C18.6276 63.9019 18.4316 63.9019 18.3335 63.9019C18.4316 63.6078 18.5296 63.3137 18.6276 63.0196C18.9218 62.3333 19.3139 61.549 19.51 60.7647C19.608 60.5686 19.608 60.3725 19.608 60.1765C19.412 60.1765 19.1178 60.3725 18.9218 60.5686C18.8237 60.6666 18.8237 60.6666 18.7257 60.7647C18.2355 61.549 17.6472 62.3333 17.3531 63.2157C17.2551 63.3137 17.2551 63.5098 17.157 63.6078C16.7649 63.6078 16.3727 63.6078 16.0786 63.5098C14.9021 63.2157 13.8237 62.7255 12.7453 62.1372C12.4512 61.9412 12.157 61.8431 11.8629 61.647C11.5688 61.451 11.1767 61.2549 10.8825 60.9608C10.8825 60.9608 10.7845 60.8627 10.6865 60.8627C10.8825 60.3725 11.0786 59.9804 11.2747 59.4902C11.5688 58.8039 11.961 58.0196 12.2551 57.3333C12.3531 57.2353 12.3531 57.1372 12.2551 57.0392C12.157 56.8431 12.059 56.7451 12.059 56.549C12.059 56.451 12.059 56.451 12.059 56.3529C11.961 56.1568 11.961 56.0588 11.7649 56.0588C11.4708 56.0588 11.0786 56.0588 10.7845 55.9608C10.5884 55.9608 10.3923 55.8627 10.1963 55.7647C10.0982 55.7647 10.0982 55.6666 10.0982 55.5686C10.1963 55.2745 10.2943 55.0784 10.5884 54.9804C10.6865 54.9804 10.7845 54.8823 10.8825 54.7843C11.0786 54.6863 11.2747 54.3921 11.3727 54.1961C11.3727 54.098 11.3727 53.9019 11.2747 53.8039C10.9806 53.5098 10.8825 53.2157 10.8825 52.8235C10.8825 52.5294 10.9806 52.2353 10.9806 51.8431C11.0786 51.3529 10.9806 50.9608 10.5884 50.5686C10.2943 50.3725 10.0982 50.0784 9.90215 49.7843C9.70607 49.5882 9.41195 49.3921 9.11783 49.1961C8.82372 49 8.62764 48.7059 8.5296 48.4117C8.33352 47.8235 8.13744 47.3333 7.94136 46.7451C7.74528 46.2549 7.54921 45.6666 7.35313 45.1764C7.05901 44.2941 6.76489 43.4117 6.56881 42.4314C6.47078 42.0392 6.47077 41.7451 6.47077 41.3529C6.47077 40.6666 6.47077 40.0784 6.47077 39.3921C6.47077 39.098 6.56881 38.9019 6.56881 38.6078C6.56881 38.4117 6.66685 38.1176 6.66685 37.9215C6.76489 37.3333 6.76489 36.647 6.86293 36.0588C6.96097 35.5686 7.05901 34.9804 7.05901 34.3921C7.05901 34 6.96097 33.7059 6.96097 33.3137C6.86293 32.7255 6.66685 32.1372 6.56881 31.451C6.47078 30.9608 6.47078 30.5686 6.56881 30.0784C6.66685 29.5882 6.76489 29.098 6.86293 28.6078C6.96097 28.2157 7.15705 27.9215 7.25509 27.5294C7.54921 26.647 7.84332 25.7647 8.0394 24.7843C8.0394 24.5882 8.0394 24.3921 8.0394 24.1961C8.0394 24.098 8.0394 24 8.0394 23.8039C8.0394 23.7059 8.0394 23.5098 8.0394 23.4117C7.94136 22.9215 7.94136 22.5294 7.84332 22.0392C7.84332 21.7451 7.74529 21.549 7.74529 21.2549C7.74529 20.8627 7.74528 20.5686 7.84332 20.1764C7.94136 19.4902 8.0394 18.8039 8.33352 18.1176C8.62764 17.2353 9.11783 16.451 9.60803 15.7647C9.60803 15.7647 9.60803 15.7647 9.70607 15.7647C9.60803 16.549 9.70607 17.2353 9.80411 18.0196C9.80411 18.1176 9.80411 18.1176 9.80411 18.2157C9.70607 19.098 9.50999 19.8823 9.11783 20.6666C8.92176 21.1568 8.72568 21.647 8.62764 22.1372C8.62764 22.2353 8.62764 22.4314 8.62764 22.5294C8.72568 22.9215 8.82372 23.2157 9.01979 23.6078C9.50999 24.5882 9.60803 25.4706 9.50999 26.549C9.41195 27.5294 9.21587 28.4117 8.92176 29.2941C8.82372 29.6863 8.72568 30.1764 8.62764 30.5686C8.5296 31.0588 8.5296 31.647 8.62764 32.1372C8.72568 32.5294 8.82372 32.9215 9.01979 33.3137C9.21587 33.7059 9.21587 34.1961 9.21587 34.5882C9.11783 35.0784 9.01979 35.4706 8.92176 35.9608C8.82372 36.3529 8.82372 36.7451 8.82372 37.1372C8.82372 37.7255 8.92176 38.3137 9.01979 38.8039C9.01979 38.9019 9.01979 39.098 9.01979 39.2941C8.92176 40.0784 8.82372 40.9608 8.72568 41.7451C8.62764 42.1372 8.72568 42.6274 8.82372 43.0196C8.92175 43.4117 9.11783 43.8039 9.31391 44.098C9.60803 44.5882 9.70607 45.0784 9.60803 45.5686C9.60803 45.9608 9.41195 46.2549 9.31391 46.647C9.21587 47.0392 9.11783 47.4313 9.11783 47.8235C9.11783 48.2157 9.21587 48.6078 9.41195 48.9019C9.60803 49.098 9.80411 49.2941 10.0982 49.4902C10.1963 49.5882 10.3923 49.6863 10.5884 49.8823C10.6865 49.9804 10.8825 50.0784 10.9806 50.1764C11.2747 50.4706 11.4708 50.8627 11.2747 51.2549C11.1767 51.451 11.1767 51.7451 11.0786 51.9412C11.0786 52.1372 10.9806 52.3333 10.9806 52.5294C10.9806 52.6274 11.0786 52.8235 11.1767 52.9215C11.2747 53.0196 11.3727 53.1176 11.3727 53.2157C11.6669 53.6078 11.5688 54.1961 11.0786 54.4902C10.9806 54.5882 10.8825 54.5882 10.7845 54.6863C10.5884 54.7843 10.3923 54.8823 10.2943 55.0784C10.1963 55.1764 10.1963 55.3725 10.3923 55.4706C10.4904 55.4706 10.4904 55.4706 10.5884 55.5686C11.0786 55.6666 11.5688 55.6666 12.059 55.5686H12.1571C12.1571 55.6666 12.1571 55.7647 12.1571 55.8627C12.1571 56.1568 12.2551 56.3529 12.2551 56.647C12.3531 56.8431 12.4512 57.0392 12.6472 57.2353C12.8433 57.4314 13.1374 57.5294 13.3335 57.7255C13.4316 57.8235 13.6276 57.8235 13.7257 57.8235C13.8237 57.8235 13.8237 57.8235 13.9218 57.8235C14.2159 57.9215 14.51 57.7255 14.412 57.4314C14.412 57.3333 14.412 57.2353 14.412 57.0392C14.412 56.7451 14.51 56.549 14.7061 56.2549C15.0002 55.9608 15.2943 55.5686 15.4904 55.1764C15.5884 54.9804 15.6865 54.6863 15.6865 54.3921C15.6865 54.098 15.6865 53.8039 15.5884 53.5098C15.5884 53.3137 15.5884 53.2157 15.6865 53.0196C15.8825 52.7255 16.0786 52.4313 16.2747 52.1372C16.5688 51.8431 16.7649 51.549 16.7649 51.1568C16.7649 50.9608 16.7649 50.8627 16.7649 50.6666C16.7649 50.2745 16.6669 49.7843 16.6669 49.3921C16.6669 49 16.8629 48.7059 17.059 48.4117C17.4512 48.0196 17.9414 47.5294 18.4316 47.2353C19.2159 46.647 19.608 45.8627 19.7061 44.8823C19.8041 44.4902 19.8041 44.098 19.7061 43.7059C19.608 43.0196 19.51 42.4314 19.412 41.7451C19.412 41.549 19.3139 41.451 19.3139 41.2549C19.2159 40.7647 19.0198 40.1765 18.9218 39.6863C18.7257 39 18.5296 38.3137 18.3335 37.6274C18.3335 37.5294 18.3335 37.4314 18.2355 37.3333C18.3335 37.3333 18.3335 37.3333 18.4316 37.4313C19.412 37.8235 20.3923 38.0196 21.3727 38.0196C21.7649 38.0196 22.157 38.0196 22.5492 38.0196C22.7453 38.0196 22.9414 38.0196 23.1374 37.9215C23.8237 37.7255 24.412 37.4314 25.0982 37.1372C25.4904 36.9412 25.5884 36.7451 25.4904 36.3529C25.3923 36.451 25.2943 36.451 25.1963 36.549C25.0982 36.647 25.0002 36.7451 24.9022 36.7451C24.3139 36.9412 23.8237 37.1372 23.2355 37.3333C22.9414 37.4314 22.5492 37.4313 22.2551 37.4313C21.8629 37.4313 21.3727 37.3333 20.9806 37.3333C20.3923 37.3333 19.8041 37.1372 19.2159 36.9412C18.3335 36.549 17.4512 36.0588 16.7649 35.3725C15.9806 34.6863 15.2943 34 14.608 33.3137C14.3139 33.0196 14.1178 32.8235 13.8237 32.5294C13.4316 32.1372 13.1374 31.647 13.0394 31.0588C12.9414 30.7647 12.8433 30.4706 12.7453 30.1764C12.6472 29.9804 12.6472 29.7843 12.6472 29.5882C12.6472 29.4902 12.6472 29.2941 12.5492 29.1961C12.4512 28.7059 12.3531 28.2157 12.2551 27.7255C12.2551 27.6274 12.2551 27.4314 12.2551 27.3333C12.157 26.7451 12.1571 26.1568 12.059 25.5686C11.961 24.7843 11.961 24.098 11.961 23.3137C11.961 22.9215 11.961 22.6274 11.961 22.2353C11.961 21.647 11.961 21.0588 11.961 20.4706C11.961 19.8823 11.961 19.2941 12.059 18.7059V18.6078C12.059 17.8235 12.3531 17.0392 12.4512 16.2549V16.1568C12.7453 15.3725 12.9414 14.4902 13.2355 13.7059C13.4316 13.2157 13.6276 12.7255 13.9218 12.2353C13.9218 12.1372 14.1178 12.0392 14.2159 11.9412C14.51 11.7451 14.9021 11.647 15.1963 11.451C15.9806 11.0588 16.8629 10.7647 17.7453 10.6666C18.8237 10.4706 19.9021 10.3725 21.0786 10.4706C21.1767 10.4706 21.2747 10.4706 21.3727 10.4706C22.157 10.4706 22.9414 10.5686 23.6276 10.7647C24.412 10.9608 25.1963 11.1568 25.9806 11.451C26.7649 11.647 27.4512 12.0392 28.1374 12.4314C28.3335 12.5294 28.5296 12.7255 28.8237 12.8235C29.2159 13.0196 29.3139 13.3137 29.412 13.7059C29.51 14.1961 29.608 14.5882 29.8041 15.0784C30.0982 16.0588 30.2943 16.9412 30.5884 17.9215C30.6865 18.4117 30.7845 18.8039 30.9806 19.2941C30.9806 19.3921 31.0786 19.5882 31.0786 19.6863C31.0786 20.2745 31.1767 20.7647 31.1767 21.3529C31.1767 22.0392 31.1767 22.7255 31.0786 23.4117C30.9806 24 30.8825 24.5882 30.8825 25.2745C30.8825 25.6666 30.9806 26.1568 30.9806 26.549C31.0786 26.9412 31.1767 27.3333 31.3727 27.7255C31.5688 28.0196 31.6669 28.3137 31.7649 28.6078C32.7453 29.098 32.6472 29.6863 32.4512 30.2745ZM13.4316 35.5686C13.5296 35.6666 13.5296 35.7647 13.5296 35.7647C13.4316 35.6666 13.4316 35.6666 13.4316 35.5686ZM14.608 49.9804C14.608 50.0784 14.608 50.2745 14.608 50.3725C14.608 50.1765 14.608 50.0784 14.608 49.9804ZM17.4512 42.2353C17.5492 42.9215 17.5492 43.5098 17.6472 44.098V44.1961C17.5492 43.9019 17.4512 42.6274 17.4512 42.2353ZM32.7453 25.6666C32.7453 25.5686 32.7453 25.4706 32.7453 25.3725C32.7453 25.5686 32.7453 25.5686 32.7453 25.6666ZM33.0394 50.0784C32.9414 49.8823 32.9414 49.5882 33.0394 49.3921C33.0394 49.3921 33.0394 49.3921 33.1374 49.3921C33.0394 49.6863 33.0394 49.8823 33.0394 50.0784ZM34.0198 27.5294C34.0198 27.4314 34.0198 27.2353 33.9218 27.1372C33.9218 27.1372 33.9218 27.1372 34.0198 27.1372C34.0198 27.2353 34.0198 27.4314 34.0198 27.5294ZM34.2159 29C34.2159 28.8039 34.2159 28.7059 34.1178 28.5098C34.1178 28.5098 34.1178 28.5098 34.2159 28.5098C34.2159 28.6078 34.2159 28.8039 34.2159 29ZM34.3139 46.8431C34.3139 46.647 34.412 46.451 34.412 46.2549C34.412 46.2549 34.4119 46.2549 34.51 46.2549C34.4119 46.3529 34.412 46.549 34.3139 46.8431ZM34.412 22.0392C34.412 21.9412 34.412 21.7451 34.3139 21.647C34.3139 21.7451 34.3139 21.9412 34.412 22.0392ZM38.4316 51.8431C38.4316 51.9412 38.3335 52.1372 38.2355 52.2353C38.1374 52.5294 37.8433 52.7255 37.5492 52.8235C37.4512 52.6274 37.5492 52.5294 37.5492 52.4314C37.7453 51.7451 38.0394 51.1568 38.3335 50.4706C38.4316 50.2745 38.5296 49.9804 38.5296 49.7843C38.6276 49.1961 38.8237 48.8039 39.0198 48.3137C39.4119 47.1372 39.8041 45.9608 40.0982 44.7843C40.2943 44.2941 40.3923 43.7059 40.4904 43.1176C40.4904 43.0196 40.4904 42.9215 40.5884 42.8235C40.5884 42.8235 40.5884 42.8235 40.6865 42.8235C40.5884 43.3137 40.5884 43.7059 40.4904 44.1961C40.1963 45.7647 39.7061 47.3333 39.3139 48.9019C39.0198 49.8823 38.7257 50.8627 38.4316 51.8431ZM37.9414 39.3921V39.2941C37.9414 39.2941 37.9414 39.2941 37.9414 39.3921ZM38.0394 35.5686C38.1374 34.8823 38.3335 34.1961 38.4316 33.4117C38.5296 33.9019 38.2355 35.3725 38.0394 35.5686ZM39.51 31.647C39.51 31.3529 39.51 31.1568 39.51 30.8627C39.51 31.1568 39.608 31.3529 39.51 31.647ZM39.608 35.3725C39.608 35.5686 39.7061 35.6666 39.608 35.8627C39.608 35.8627 39.608 35.8627 39.51 35.8627C39.608 35.6666 39.608 35.5686 39.608 35.3725ZM39.51 26.1568C39.4119 26.2549 39.4119 26.451 39.4119 26.549C39.51 26.3529 39.51 26.3529 39.51 26.1568ZM39.412 39.7843C39.3139 40.1764 39.2159 40.6666 39.2159 41.0588C39.2159 41.0588 39.2159 41.0588 39.1178 41.0588C39.1178 40.5686 39.2159 40.1764 39.412 39.7843ZM39.1178 37.3333C39.1178 37.5294 39.0198 37.7255 39.0198 38.0196H38.9218C38.9218 37.7255 38.9218 37.5294 39.1178 37.3333C39.0198 37.3333 39.0198 37.3333 39.1178 37.3333ZM39.0198 34.9804C39.0198 35.1764 38.9218 35.3725 38.9218 35.5686C38.9218 35.6666 38.9218 35.7647 38.7257 35.6666C38.7257 35.4706 38.8237 35.2745 38.8237 35.1764C38.8237 34.9804 38.9218 34.7843 38.9218 34.5882C39.0198 34.6863 39.0198 34.8823 39.0198 34.9804ZM40.1963 30.4706C40.1963 30.0784 40.1963 29.6863 40.1963 29.3921C40.1963 29.7843 40.1963 30.1764 40.1963 30.4706ZM42.6472 47.3333C42.6472 47.4313 42.5492 47.5294 42.5492 47.6274C42.2551 48.3137 41.8629 49 41.5688 49.6863C41.3727 49.9804 41.1767 50.3725 40.9806 50.6666C40.7845 50.9608 40.5884 51.1568 40.1963 51.2549C40.8825 49.6863 41.8629 48.3137 42.8433 46.9412C42.6472 47.1372 42.6472 47.2353 42.6472 47.3333ZM41.6669 37.4313C41.6669 37.3333 41.6669 37.3333 41.6669 37.2353C41.6669 37.2353 41.6669 37.2353 41.7649 37.2353C41.7649 37.3333 41.7649 37.3333 41.6669 37.4313ZM49.4119 50.7647C49.3139 50.7647 49.3139 50.6666 49.2159 50.5686C48.7257 49.7843 48.2355 49 47.8433 48.2157C47.5492 47.7255 47.3531 47.2353 47.157 46.7451C46.8629 46.0588 46.5688 45.3725 46.3727 44.5882C46.1767 44.098 45.9806 43.6078 45.7845 43.1176V43.0196C45.4904 42.3333 45.2943 41.7451 45.0002 41.0588C44.8041 40.4706 44.608 39.8823 44.4119 39.1961C44.1178 38.2157 43.8237 37.2353 43.5296 36.3529C43.2355 35.4706 43.0394 34.5882 42.8433 33.7059C42.5492 32.5294 42.2551 31.2549 42.059 29.9804C41.961 29.4902 41.961 29.098 41.8629 28.6078C41.7649 27.8235 41.6669 27.1372 41.5688 26.3529C41.4708 25.4706 41.3727 24.6863 41.2747 23.8039C41.1767 22.6274 40.9806 21.3529 40.8825 20.1764C40.7845 19.5882 40.7845 19.098 40.6865 18.5098C40.5884 17.7255 40.3923 17.0392 40.1963 16.2549C39.9021 15.0784 39.608 13.9019 39.2159 12.8235C39.0198 12.1372 38.7257 11.451 38.4316 10.7647C38.0394 10.0784 37.6472 9.29409 37.1571 8.70586C36.5688 7.92155 36.0786 7.23527 35.2943 6.64704C35.0002 6.45096 34.7061 6.15684 34.412 5.96076C33.7257 5.47057 33.0394 5.07841 32.2551 4.68625C31.4708 4.39214 30.6865 4.09802 29.9021 3.8039C29.3139 3.60782 28.7257 3.50978 28.0394 3.41174C27.6472 3.41174 27.2551 3.3137 26.8629 3.3137C26.4708 3.3137 26.1767 3.3137 25.7845 3.41174C25.6865 3.41174 25.5884 3.41174 25.5884 3.41174C25.2943 3.21566 25.0982 3.3137 24.8041 3.21566C24.4119 3.21566 24.1178 3.21566 23.7257 3.41174C23.3335 3.60782 22.9414 3.70586 22.5492 3.8039C22.059 3.99998 21.6669 4.09802 21.2747 4.29409C21.1767 4.29409 21.0786 4.39213 20.9806 4.39213C20.7845 4.68625 20.4904 4.68625 20.2943 4.78429C20.0002 4.98037 19.7061 5.07841 19.412 5.17645C18.9218 5.37253 18.4316 5.66664 18.0394 6.0588C17.059 6.84312 16.1767 7.62743 15.2943 8.50978L15.1963 8.60782C14.8041 9.19606 14.3139 9.58821 13.8237 10.0784C13.3335 10.4706 13.0394 11.0588 12.7453 11.549C12.7453 11.647 12.7453 11.647 12.6472 11.7451C12.7453 11.7451 12.8433 11.647 12.9414 11.647C13.2355 11.451 13.4316 11.3529 13.7257 11.1568C14.412 10.6666 15.1963 10.2745 15.9806 9.88233C16.0786 9.78429 16.2747 9.68625 16.3727 9.58821C16.961 9.19606 17.5492 8.8039 18.1374 8.50978C18.5296 8.3137 18.9218 8.11762 19.412 8.01959C19.7061 8.01959 19.9021 7.92155 20.0982 7.82351C20.3923 7.72547 20.5884 7.72547 20.8825 7.62743C20.9806 7.62743 21.0786 7.52939 21.0786 7.43135C21.1767 7.03919 21.4708 6.64704 21.7649 6.35292C22.157 5.96076 22.5492 5.5686 22.9414 5.27449C23.1374 5.07841 23.3335 4.98037 23.5296 4.78429C23.9218 4.39213 24.3139 4.09802 24.8041 3.8039C24.8041 3.8039 24.8041 3.90194 24.7061 3.90194C24.51 4.09802 24.3139 4.2941 24.1178 4.49017C23.7257 4.88233 23.4316 5.37253 23.1374 5.76468C22.8433 6.25488 22.5492 6.64704 22.3531 7.13723C22.2551 7.33331 22.3531 7.52939 22.5492 7.52939C23.5296 7.72547 24.412 7.92155 25.3923 8.3137C25.9806 8.50978 26.4708 8.70586 27.059 8.90194C27.7453 9.19606 28.3335 9.58821 28.9218 10.0784C29.2159 10.2745 29.51 10.6666 29.608 10.9608C29.7061 11.1568 29.8041 11.2549 30.0002 11.3529C30.8825 11.9412 31.7649 12.5294 32.5492 13.2157C32.9414 13.6078 33.3335 14 33.7257 14.3921C34.1178 14.7843 34.412 15.1764 34.8041 15.6666C35.5884 16.647 36.0786 17.6274 36.5688 18.8039C36.6669 19 36.7649 19.1961 36.8629 19.4902C37.059 19.9804 37.2551 20.5686 37.3531 21.1568C37.4512 21.7451 37.6472 22.4314 37.8433 23.0196C37.9414 23.7059 38.0394 24.2941 38.0394 24.9804C38.1374 25.7647 38.1374 26.549 38.1374 27.3333C38.1374 28.1176 38.0394 28.9019 37.8433 29.7843C37.4512 31.3529 37.157 32.9215 36.8629 34.4902C36.6669 35.5686 36.4708 36.549 36.2747 37.6274C36.1767 38.2157 36.0786 38.7059 36.0786 39.2941C35.9806 39.7843 36.0786 40.3725 36.2747 40.8627C36.4708 41.3529 36.7649 41.8431 36.961 42.3333C37.157 42.7255 37.3531 43.0196 37.5492 43.4117C37.9414 44.098 38.0394 44.8823 37.9414 45.7647C37.8433 46.7451 37.5492 47.7255 37.2551 48.6078C37.059 49.1961 36.8629 49.7843 36.6669 50.3725C36.4708 51.0588 36.1767 51.7451 35.9806 52.5294C35.6865 53.3137 35.4904 54.098 35.1963 54.9804C35.0982 55.1764 34.9021 55.4706 34.608 55.6666C34.608 55.5686 34.608 55.4706 34.7061 55.3725C34.9022 54.8823 35.0002 54.3921 35.1963 53.8039C35.3923 53.0196 35.5884 52.3333 35.7845 51.549C35.8825 51.0588 35.9806 50.5686 36.1767 50.0784C36.3727 49.4902 36.5688 48.9019 36.7649 48.3137C37.059 47.5294 37.3531 46.647 37.5492 45.7647C37.5492 45.4706 37.6472 45.1764 37.6472 44.8823C37.6472 44.6863 37.5492 44.3921 37.5492 44.1961C37.3531 43.7059 37.157 43.2157 36.8629 42.7255C36.4708 42.1372 36.1767 41.549 35.8825 40.9608C35.6865 40.5686 35.6865 40.1764 35.6865 39.8823C35.5884 38.9019 35.7845 37.8235 35.8825 36.8431C35.9806 36.3529 36.0786 35.7647 36.1767 35.2745C36.2747 34.6863 36.4708 34 36.5688 33.4117C36.7649 32.6274 36.961 31.9412 37.1571 31.1568C37.4512 29.8823 37.6472 28.6078 37.5492 27.3333C37.5492 27.2353 37.5492 27.1372 37.5492 27.1372C37.6472 25.6666 37.4512 24.098 37.2551 22.6274C37.059 21.2549 36.5688 19.8823 36.0786 18.6078C35.6865 17.6274 35.0982 16.647 34.412 15.8627C33.4316 14.5882 32.3531 13.4117 30.9806 12.4314C29.9021 11.647 28.7257 10.8627 27.4512 10.3725C26.7649 10.0784 26.0786 9.88233 25.3923 9.68625C24.3139 9.39213 23.1374 9.19606 21.961 9.09802C20.9806 8.99998 20.0982 9.09802 19.1178 9.19606C18.7257 9.29409 18.4316 9.2941 18.0394 9.39213C16.5688 9.68625 15.1963 10.2745 13.9218 11.0588C13.1374 11.549 12.4512 12.0392 11.7649 12.5294C11.6669 12.5294 11.6669 12.6274 11.5688 12.6274C11.5688 12.5294 11.5688 12.5294 11.5688 12.5294C11.961 11.8431 12.3531 11.2549 12.7453 10.5686C13.2355 9.88233 13.7257 9.2941 14.2159 8.60782C14.7061 8.01959 15.1963 7.43135 15.6865 6.94115C16.3727 6.25488 17.059 5.56861 17.9414 5.07841C18.6276 4.58821 19.412 4.19606 20.0982 3.8039C20.8825 3.41174 21.7649 3.11762 22.5492 2.92155C22.9414 2.82351 23.3335 2.72547 23.7257 2.62743C24.1178 2.52939 24.608 2.43135 25.0982 2.43135C25.9806 2.43135 26.7649 2.43135 27.6472 2.52939C28.3335 2.62743 29.0198 2.72547 29.608 2.92155C30.0982 3.11762 30.4904 3.21566 30.9806 3.3137C31.3727 3.41174 31.7649 3.60782 32.157 3.70586C32.8433 3.90194 33.4316 4.39213 34.0198 4.78429C34.3139 4.98037 34.51 5.07841 34.7061 5.27449C35.1963 5.5686 35.6865 5.96076 36.1767 6.45096C36.5688 6.84311 36.961 7.13723 37.2551 7.52939C37.3531 7.72547 37.5492 7.92155 37.6472 8.11763C37.9414 8.70586 38.3335 9.2941 38.6276 9.98037C39.0198 10.8627 39.412 11.7451 39.7061 12.7255C40.0002 13.6078 40.1963 14.3921 40.4904 15.2745C40.5884 15.7647 40.7845 16.2549 40.8825 16.8431C41.0786 17.8235 41.2747 18.8039 41.3727 19.7843C41.4708 20.5686 41.5688 21.3529 41.6669 22.1372C41.7649 23.3137 41.8629 24.5882 42.059 25.7647C42.2551 26.9412 42.4512 28.1176 42.6472 29.2941C42.8433 30.2745 42.9414 31.1568 43.1374 32.1372C43.3335 33.3137 43.6276 34.3921 44.0198 35.5686C44.51 37.1372 45.0982 38.8039 45.5884 40.3725C45.7845 40.9608 45.8825 41.549 46.0786 42.1372C46.3727 43.0196 46.7649 43.8039 47.157 44.6863C47.9414 46.3529 48.7257 47.9215 49.51 49.5882C49.7061 49.8823 49.8041 50.2745 50.0002 50.5686C50.0002 50.6666 50.0982 50.6666 50.0982 50.7647C49.8041 50.8627 49.608 50.8627 49.4119 50.7647ZM36.4708 10.9608C36.7649 11.2549 36.961 11.549 36.961 11.7451C36.961 11.7451 36.961 11.7451 36.8629 11.7451C36.7649 11.451 36.6669 11.2549 36.4708 10.9608ZM36.7649 13.9019C36.5688 13.5098 36.3727 13.1176 36.1767 12.7255C36.1767 12.7255 36.1767 12.7255 36.2747 12.7255C36.5688 13.1176 36.6669 13.5098 36.7649 13.9019ZM36.0786 12.5294C35.6865 12.1372 35.3923 11.647 35.0002 11.0588C35.3923 11.549 35.7845 11.9412 36.0786 12.5294ZM34.2159 7.52939C34.51 7.72547 34.7061 7.92155 34.9021 8.21566C34.51 8.11762 34.412 7.82351 34.2159 7.52939ZM34.412 13.3137C34.3139 13.3137 34.3139 13.3137 34.412 13.3137C34.3139 13.3137 34.3139 13.2157 34.2159 13.1176C34.3139 13.1176 34.3139 13.2157 34.412 13.3137ZM31.7649 7.13723L31.6669 7.03919C31.6669 7.03919 31.6669 7.03919 31.7649 7.03919C32.157 7.43135 32.6472 7.82351 33.0394 8.21566L32.9414 8.21566C32.5492 7.82351 32.1571 7.43135 31.7649 7.13723ZM32.2551 10.9608L32.157 10.8627C32.2551 10.8627 32.2551 10.8627 32.2551 10.9608ZM33.2355 10.8627C33.2355 10.9608 33.3335 10.9608 33.3335 11.0588C33.0394 10.7647 32.7453 10.4706 32.4512 10.0784C32.4512 10.0784 32.5492 10.0784 32.5492 10.1764C32.7453 10.3725 33.0394 10.6666 33.2355 10.8627ZM32.4512 11.0588C32.8433 11.451 33.2355 11.9412 33.6276 12.3333C33.7257 12.4314 33.8237 12.6274 34.0198 12.7255C33.9218 12.8235 33.8237 12.7255 33.8237 12.7255C33.3335 12.1372 32.8433 11.549 32.4512 10.9608C32.4512 10.9608 32.4512 10.9608 32.4512 10.8627C32.3531 10.9608 32.3531 11.0588 32.4512 11.0588ZM33.7257 8.01959C33.7257 7.82351 33.6276 7.72547 33.3335 7.62743C33.5296 7.72547 33.5296 7.92155 33.7257 8.01959ZM33.8237 10.4706L33.9218 10.5686C33.8237 10.5686 33.7257 10.5686 33.8237 10.4706C33.7257 10.4706 33.7257 10.4706 33.8237 10.4706ZM33.5296 11.451C33.4316 11.3529 33.4316 11.3529 33.3335 11.2549C33.4316 11.2549 33.5296 11.3529 33.5296 11.451C33.8237 11.647 33.9218 11.8431 34.1178 12.1372C34.0198 12.0392 33.7257 11.647 33.5296 11.451ZM30.3923 7.52939C30.7845 7.72547 31.4708 8.3137 31.4708 8.41174C31.0786 8.21566 30.6865 7.92155 30.3923 7.52939ZM30.3923 10.5686C30.1963 10.3725 29.9022 10.2745 29.8041 10.0784C30.0982 10.0784 30.1963 10.3725 30.3923 10.5686ZM29.8041 9.98037C29.7061 9.98037 29.7061 9.88233 29.608 9.88233C29.7061 9.88233 29.7061 9.88233 29.8041 9.98037ZM29.3139 8.70586C29.1178 8.70586 29.1178 8.70586 28.9218 8.50978C28.8237 8.41174 28.6276 8.3137 28.6276 8.21566C28.6276 8.21566 28.6276 8.21566 28.7257 8.11763C28.9218 8.3137 29.1178 8.50978 29.3139 8.70586ZM28.2355 6.45096C28.0394 6.35292 27.9414 6.25488 27.8433 6.15684C28.0394 6.25488 28.0394 6.25488 28.2355 6.45096ZM27.2551 5.86272C27.3531 5.86272 27.4512 5.96076 27.4512 5.96076C27.4512 5.96076 27.3531 5.96076 27.2551 5.86272ZM27.2551 6.64704C26.8629 6.549 26.5688 6.35292 26.1767 6.15684C26.1767 6.15684 26.1767 6.15684 26.1767 6.0588C26.6669 6.15684 26.961 6.45096 27.2551 6.64704ZM25.3923 5.86272C25.2943 5.86272 25.2943 5.86272 25.1963 5.86272C25.2943 5.76468 25.2943 5.76468 25.3923 5.86272ZM21.2747 5.47057C21.0786 5.47057 20.9806 5.47057 20.8825 5.47057C20.9806 5.37253 21.0786 5.37253 21.2747 5.27449C21.2747 5.27449 21.2747 5.37253 21.2747 5.47057ZM20.0982 6.25488C20.2943 6.35292 20.2943 6.35292 20.5884 6.25488C20.3923 6.25488 20.2943 6.25488 20.0982 6.25488ZM34.7061 27.1372C34.7061 26.9412 34.7061 26.7451 34.8041 26.549C34.8041 26.549 34.8041 26.549 34.9021 26.549C34.8041 26.647 34.8041 26.9412 34.7061 27.1372Z" fill="black"/>
<path d="M26.6669 20.2745C26.1767 20.1764 25.6865 20.0784 25.1963 20.2745C24.9021 20.3725 24.608 20.7647 24.608 21.0588C24.608 21.3529 24.8041 21.7451 25.1963 21.9412C25.6865 22.2353 26.2747 22.2353 26.7649 22.1372C27.2551 22.0392 27.4512 21.549 27.3531 21.1568C27.2551 20.6666 27.059 20.3725 26.6669 20.2745Z" fill="black"/>
<path d="M17.5492 20.7647C17.4512 20.4706 17.2551 20.1764 16.961 19.9804C16.7649 19.8823 16.4708 19.8823 16.1767 19.7843C15.8825 19.8823 15.5884 19.9804 15.3923 20.0784C15.0982 20.1765 15.0002 20.3725 14.9021 20.5686C14.8041 20.6666 14.9021 20.7647 14.9021 20.8627C15.3923 21.8431 16.2747 22.0392 17.157 21.647C17.3531 21.549 17.6472 21.0588 17.5492 20.7647Z" fill="black"/>
<path d="M23.2355 30.9608C22.9414 30.9608 22.7453 30.8627 22.4512 30.9608C21.961 30.9608 21.4708 31.0588 20.9806 31.0588C20.5884 31.0588 20.0982 31.1568 19.7061 30.9608C19.1178 30.7647 18.4316 30.7647 17.7453 30.6666C17.6472 30.6666 17.6472 30.6666 17.5492 30.6666C17.3531 30.7647 17.3531 30.8627 17.4512 30.9608C17.5492 31.1568 17.7453 31.2549 17.9414 31.2549C18.3335 31.2549 18.8237 31.3529 19.2159 31.451C19.7061 31.549 20.0982 31.7451 20.5884 31.549C20.6865 31.549 20.8825 31.549 21.0786 31.549C21.1767 31.549 21.2747 31.549 21.3727 31.549C21.8629 31.549 22.4512 31.451 22.9414 31.3529C23.0394 31.3529 23.0394 31.3529 23.1374 31.3529C23.3335 31.3529 23.4316 31.2549 23.4316 31.0588C23.5296 31.0588 23.4316 30.9608 23.2355 30.9608Z" fill="black"/>
<path d="M18.1374 26.3529V26.451C18.1374 26.549 18.2355 26.647 18.3335 26.549C18.4316 26.451 18.6276 26.451 18.7257 26.2549C18.9218 25.7647 19.1178 25.3725 19.2159 24.8823C19.3139 24.098 19.51 23.3137 19.608 22.5294C19.608 22.2353 19.7061 21.9412 19.7061 21.647C19.7061 21.2549 19.608 21.1568 19.2159 21.0588C19.2159 21.1568 19.1178 21.2549 19.1178 21.3529C19.1178 21.549 19.0198 21.7451 19.0198 21.9412C18.9218 22.5294 18.8237 23.1176 18.7257 23.7059C18.5296 24.7843 18.4316 25.5686 18.1374 26.3529Z" fill="black"/>
<path d="M25.0982 18.0196C25.0982 18.0196 25.0982 17.9215 25.1963 17.9215C25.0982 17.8235 25.0982 17.8235 25.0002 17.7255C24.8041 17.6274 24.608 17.6274 24.412 17.7255C24.2159 17.8235 23.9218 17.8235 23.7257 17.9215C23.5296 17.9215 23.3335 18.0196 23.2355 18.0196C23.0394 18.1176 23.0394 18.2157 23.2355 18.3137C23.3335 18.4117 23.5296 18.5098 23.6276 18.6078C23.7257 18.7059 23.9218 18.8039 24.1178 18.7059C24.412 18.5098 24.7061 18.4117 25.0982 18.2157C24.9021 18.1176 25.0002 18.1176 25.0982 18.0196Z" fill="black"/>
<path d="M17.6472 18.6078C17.8433 18.7059 18.1374 18.8039 18.3335 18.7059C18.4316 18.7059 18.5296 18.7059 18.6276 18.6078C18.7257 18.5098 18.6276 18.4117 18.5296 18.3137C18.4316 18.2157 18.3335 18.0196 18.2355 17.9215C18.1374 17.7255 17.9414 17.6274 17.7453 17.6274C17.5492 17.6274 17.4512 17.7255 17.4512 18.0196C17.2551 18.0196 17.059 17.9215 16.8629 18.2157C16.961 18.3137 17.059 18.3137 17.059 18.4117C17.3531 18.5098 17.4512 18.6078 17.6472 18.6078Z" fill="black"/>
<path d="M18.9218 26.8431C18.8237 26.9412 18.7257 27.0392 18.8237 27.1372C18.9218 27.3333 19.0198 27.4314 19.2159 27.5294C19.3139 27.6274 19.412 27.6274 19.608 27.7255C19.7061 27.6274 19.8041 27.6274 19.9021 27.5294C20.0002 27.4314 19.9021 27.3333 19.8041 27.2353C19.8041 27.1372 19.7061 27.1372 19.7061 27.0392C19.51 26.8431 19.2159 26.7451 18.9218 26.8431Z" fill="black"/>
<path d="M20.7845 27.7255C20.8825 27.7255 20.9806 27.8235 21.0786 27.7255C21.2747 27.6274 21.3727 27.5294 21.5688 27.4314C21.6669 27.3333 21.6669 27.2353 21.5688 27.1372C21.5688 27.0392 21.4708 27.0392 21.4708 26.9412C21.1767 27.0392 20.9806 27.1372 20.7845 27.3333C20.5884 27.5294 20.5884 27.6274 20.7845 27.7255Z" fill="black"/>
<path d="M50.7845 99.1961C50.3923 98.8039 50.0002 98.3137 49.608 97.9216C49.0198 97.3333 48.3335 97.0392 47.6472 96.647C46.961 96.2549 46.1767 95.9608 45.4904 95.5686C45.1963 95.4706 45.0002 95.3725 44.7061 95.2745C44.51 95.1764 44.4119 95.2745 44.3139 95.5686C44.3139 95.7647 44.51 95.8627 44.608 95.9608C45.3923 96.3529 46.0786 96.7451 46.8629 97.1372C47.4512 97.4314 47.9414 97.6274 48.5296 98.0196C49.0198 98.3137 49.4119 98.7059 49.8041 99.098C50.0002 99.2941 50.1963 99.5882 50.4904 99.6863C50.5884 99.7843 50.6865 99.7843 50.7845 99.6863C50.8825 99.5882 50.8825 99.4902 50.8825 99.3921C50.8825 99.2941 50.7845 99.1961 50.7845 99.1961Z" fill="black"/>
<path d="M40.6865 99.8823C40.2943 99 39.9021 98.2157 39.2159 97.4314C38.7257 96.8431 38.2355 96.3529 37.6472 95.7647C37.5492 95.6666 37.4512 95.5686 37.3531 95.4706C37.157 95.7647 37.2551 95.9608 37.4512 96.1568C37.5492 96.2549 37.6472 96.451 37.7453 96.549C38.0394 96.8431 38.2355 97.2353 38.5296 97.5294C39.1178 98.1176 39.51 98.8039 39.9021 99.4902C40.1963 100.078 40.3923 100.667 40.5884 101.255C40.5884 101.353 40.6865 101.549 40.7845 101.647C40.8825 101.843 41.0786 101.843 41.0786 101.647C41.0786 101.549 41.0786 101.353 41.0786 101.255C41.0786 100.961 40.8825 100.373 40.6865 99.8823Z" fill="black"/>
<path d="M38.4316 99.9804C38.2355 99.8823 38.0394 99.6863 37.8433 99.5882C37.2551 99.2941 36.6669 98.9019 36.0786 98.6078C35.6865 98.4117 35.2943 98.2157 34.8041 98.0196C34.7061 97.9215 34.608 97.9216 34.51 97.9216C34.3139 97.9216 34.3139 97.9215 34.2159 98.0196C34.1178 98.1176 34.2159 98.3137 34.3139 98.4117C34.412 98.5098 34.608 98.6078 34.7061 98.6078C35.1963 98.8039 35.6865 99 36.0786 99.2941C36.7649 99.6863 37.5492 100.078 38.2355 100.373C38.3335 100.373 38.4316 100.471 38.4316 100.471C38.6276 100.471 38.7257 100.373 38.6276 100.274C38.7257 100.176 38.6276 100.078 38.4316 99.9804Z" fill="black"/>
<path d="M47.2551 99.7843C46.7649 99 46.3727 98.3137 45.8825 97.5294C45.7845 97.3333 45.5884 97.2353 45.4904 97.0392C45.1963 97.2353 45.1963 97.3333 45.2943 97.5294C45.2943 97.6274 45.3923 97.6274 45.3923 97.7255C45.6865 98.2157 45.9806 98.6078 46.2747 99.098C46.4708 99.3921 46.6669 99.6863 46.8629 99.9804C46.961 100.078 47.157 100.274 47.2551 100.373C47.2551 100.373 47.3531 100.373 47.4512 100.373C47.4512 100.274 47.4512 100.176 47.4512 100.176C47.4512 100.078 47.3531 99.9804 47.2551 99.7843Z" fill="black"/>
<path d="M8.13744 85.5686C8.0394 85.5686 8.0394 85.5686 7.94136 85.5686C7.54921 85.6666 7.15705 85.8627 6.86293 86.1568C5.88254 86.9412 4.90215 87.7255 3.92175 88.5098C3.43156 88.9019 2.84332 89.2941 2.25509 89.5882C2.15705 89.5882 2.15705 89.6863 2.05901 89.6863C2.35313 89.3921 2.64725 89.098 2.94136 88.8039C3.23548 88.5098 3.5296 88.1176 3.82372 87.8235C4.0198 87.5294 4.21587 87.2353 4.50999 86.9412C4.70607 86.7451 4.90215 86.451 5.09823 86.2549C5.39234 85.9608 5.68646 85.5686 5.7845 85.1765C5.7845 84.9804 5.7845 84.8823 5.7845 84.6863C5.7845 84.4902 5.68646 84.3921 5.49038 84.3921C5.2943 84.3921 5.09823 84.3921 4.90215 84.3921C4.31391 84.3921 3.72568 84.5882 3.13744 84.7843C2.15705 85.1765 1.17666 85.4706 0.0982259 85.6666C0.000186704 85.6666 -0.0978518 85.6666 -0.195891 85.6666C-0.195891 85.6666 -0.195891 85.6666 -0.195891 85.5686C0.000187456 85.3725 0.196265 85.0784 0.490382 84.8823C0.882539 84.5882 1.17666 84.2941 1.66685 84.1961C1.76489 84.1961 1.86293 84.098 1.86293 84.098C2.05901 84 2.25509 83.9019 2.35313 83.8039C2.64725 83.7059 2.94136 83.6078 3.23548 83.5098C3.62764 83.3137 4.01979 83.4117 4.41195 83.4117C5.00019 83.4117 5.49038 83.4117 6.07862 83.4117C6.17666 83.4117 6.2747 83.3137 6.37274 83.3137C6.56881 83.2157 6.47077 83.0196 6.37274 83.0196C6.2747 82.9215 6.07862 82.9215 5.98058 82.9215C5.39234 82.8235 4.90215 82.8235 4.31391 82.7255C4.11783 82.7255 4.0198 82.7255 3.82372 82.7255C2.54921 82.9216 1.37274 83.4117 0.392345 84.1961C0.098227 84.3921 -0.0978521 84.6863 -0.293931 84.8823C-0.490009 85.0784 -0.686087 85.2745 -0.686087 85.6666C-0.686087 85.9608 -0.391969 86.451 -0.0978514 86.451C0.098227 86.451 0.294304 86.451 0.490382 86.451C0.686461 86.451 0.7845 86.3529 0.980578 86.3529C1.37274 86.3529 1.76489 86.1568 2.15705 86.0588C2.64725 85.9608 3.0394 85.6666 3.5296 85.5686C3.82372 85.4706 4.21587 85.3725 4.50999 85.2745C4.70607 85.1765 4.80411 85.2745 5.00019 85.2745C5.00019 85.3725 5.00019 85.3725 4.90215 85.3725C4.60803 85.7647 4.31391 86.1568 4.01979 86.549C3.5296 87.2353 2.94136 87.9215 2.35313 88.5098C1.96097 88.8039 1.76489 89.1961 1.56881 89.5882C1.37274 89.8823 1.47077 90.1764 1.56881 90.4706C1.56881 90.5686 1.66685 90.5686 1.66685 90.5686C1.86293 90.6666 2.15705 90.6666 2.35313 90.5686C2.84333 90.2745 3.33352 89.9804 3.82372 89.5882C5.09823 88.7059 6.37274 87.7255 7.45117 86.647C7.64725 86.451 7.94136 86.3529 8.23548 86.2549C8.13744 86.451 8.13744 86.647 8.0394 86.7451C7.94136 87.0392 7.74529 87.3333 7.64725 87.7255C7.45117 88.2157 7.35313 88.7059 7.05901 89.1961C6.96097 89.3921 6.96097 89.5882 7.25509 89.7843C7.45117 89.4902 7.64725 89.1961 7.84332 88.8039C8.0394 88.3137 8.23548 87.8235 8.43156 87.2353C8.5296 86.9412 8.62764 86.7451 8.72568 86.451C8.82372 86.2549 8.82372 86.1568 8.82372 85.9608C8.82372 85.8627 8.62764 85.5686 8.13744 85.5686Z" fill="black"/>
</g>
</svg>
