<?xml version="1.0" encoding="utf-8"?>
<!-- Generator: Adobe Illustrator 27.8.1, SVG Export Plug-In . SVG Version: 6.00 Build 0)  -->
<svg version="1.1" id="_层_1" xmlns="http://www.w3.org/2000/svg" xmlns:xlink="http://www.w3.org/1999/xlink" x="0px" y="0px"
	 viewBox="0 0 328.4 110" style="enable-background:new 0 0 328.4 110;" xml:space="preserve">
<style type="text/css">
	.st0{clip-path:url(#SVGID_00000108303348479754478050000011091527484432136070_);}
	.st1{fill:none;}
</style>
<g>
	<defs>
		<circle id="SVGID_1_" cx="45.6" cy="54.2" r="42.3"/>
	</defs>
	<clipPath id="SVGID_00000076561285310952625130000014455338715071778448_">
		<use xlink:href="#SVGID_1_"  style="overflow:visible;"/>
	</clipPath>
	<g style="clip-path:url(#SVGID_00000076561285310952625130000014455338715071778448_);">
		<path class="st1" d="M42.8,82.1c-0.8,0-1.5,0-2.3,0c-0.9,0-1.8-0.1-2.7-0.2c-0.6-0.1-1.2-0.2-1.8-0.3c-0.7-0.1-1.4-0.2-2-0.4
			c-1.6-0.5-3.2-1.3-4.5-2.3c-0.1-0.1-0.2-0.1-0.3-0.2c-0.3,0.8-0.6,1.5-0.9,2.3c0.1,0.1,0.2,0.1,0.3,0.2c0.2,0.1,0.5,0.3,0.7,0.4
			c0.5,0.3,0.9,0.6,1.4,0.8c1.8,0.8,3.6,1.4,5.6,1.8c1.2,0.3,2.4,0.4,3.6,0.5c0.5,0,0.9,0.1,1.4,0.1c0.4,0,0.8,0,1.1,0
			c0.7,0,1.5-0.1,2.2-0.3c0.2-0.1,0.3-0.1,0.5-0.1c0.1,0,0.2-0.1,0.2-0.1c0.1-0.1,0.2-0.2,0.3-0.3c0,0,0.1-0.1,0.1-0.2
			c0-0.4,0.2-0.7,0.3-1c0.1-0.3,0.2-0.6,0.4-1c-0.2,0-0.4,0.1-0.5,0.1C44.8,81.9,43.8,82.1,42.8,82.1z"/>
		<path class="st1" d="M51,44c-0.2-0.4-0.4-0.8-0.4-1.2c-0.1-0.4-0.1-0.9-0.1-1.3c0-0.6,0.1-1.2,0.2-1.9c0.1-0.7,0.1-1.4,0.1-2.1
			c0-0.6-0.1-1.1-0.1-1.7c0-0.1,0-0.3-0.1-0.4c-0.1-0.5-0.2-0.9-0.4-1.4c-0.3-1-0.5-1.9-0.8-2.9c-0.1-0.5-0.2-0.9-0.4-1.4
			c-0.1-0.4-0.2-0.7-0.6-0.9c-0.2-0.1-0.5-0.3-0.7-0.4c-0.7-0.4-1.4-0.8-2.2-1c-0.8-0.2-1.6-0.5-2.4-0.7c-0.8-0.2-1.5-0.3-2.3-0.3
			c-0.1,0-0.2,0-0.3,0c-1.1-0.1-2.2,0-3.4,0.2c-0.9,0.1-1.8,0.5-2.6,0.8c-0.3,0.2-0.7,0.3-1,0.5c-0.1,0.1-0.2,0.2-0.3,0.3
			c-0.2,0.5-0.5,1-0.7,1.5c-0.3,0.8-0.6,1.7-0.8,2.5c0,0,0,0.1,0,0.1c-0.1,0.8-0.4,1.6-0.4,2.4c0,0,0,0.1,0,0.1
			c-0.1,0.6-0.1,1.2-0.1,1.8c0,0.6,0,1.2,0,1.8c0,0.4,0,0.7,0,1.1c0,0.8,0.1,1.5,0.1,2.3c0.1,0.6,0,1.2,0.2,1.8c0,0.1,0,0.3,0,0.4
			c0.1,0.5,0.2,1,0.3,1.5c0,0.1,0,0.3,0.1,0.4c0,0.2,0.1,0.4,0.1,0.6c0.1,0.3,0.2,0.6,0.3,0.9c0.2,0.6,0.4,1.1,0.8,1.5
			c0.2,0.3,0.5,0.5,0.8,0.8c0.7,0.7,1.4,1.5,2.2,2.1c0.8,0.7,1.6,1.2,2.5,1.6c0.6,0.3,1.2,0.4,1.8,0.4c0.4,0,0.9,0.1,1.3,0.1
			c0.3,0,0.7,0,1-0.1c0.6-0.2,1.1-0.4,1.7-0.6c0.1,0,0.2-0.1,0.3-0.2c0.1-0.1,0.2-0.1,0.3-0.2c0.1,0.4,0,0.7-0.4,0.8
			c-0.6,0.3-1.3,0.5-2,0.8c-0.2,0.1-0.4,0.1-0.6,0.1c-0.4,0-0.8,0-1.2,0c-1.1,0-2.1-0.2-3-0.6c-0.1,0-0.1,0-0.2-0.1
			c0,0.1,0,0.2,0.1,0.3c0.2,0.7,0.4,1.4,0.6,2.1c0.1,0.5,0.3,1.1,0.4,1.6c0,0.2,0.1,0.3,0.1,0.5c0.1,0.7,0.2,1.4,0.3,2
			c0.1,0.4,0,0.8,0,1.2c-0.1,0.9-0.6,1.8-1.3,2.4c-0.5,0.4-0.9,0.8-1.4,1.2c-0.3,0.3-0.5,0.6-0.4,1c0,0.4,0.1,0.9,0.1,1.3
			c0,0.2,0,0.3,0,0.5c-0.1,0.4-0.3,0.7-0.5,1c-0.2,0.3-0.4,0.6-0.6,0.9c-0.1,0.1-0.1,0.3-0.1,0.5c0,0.3,0.1,0.6,0.1,0.9
			c0,0.3,0,0.6-0.2,0.8c-0.2,0.4-0.5,0.7-0.8,1.1c-0.2,0.2-0.3,0.5-0.3,0.8c0,0.1,0,0.2,0,0.4c0,0.3-0.3,0.5-0.5,0.4
			c-0.1,0-0.1,0-0.2,0c-0.1,0-0.3-0.1-0.4-0.1c-0.3-0.2-0.5-0.3-0.7-0.5c-0.2-0.1-0.3-0.3-0.4-0.6c-0.1-0.3-0.1-0.5-0.1-0.8
			c0-0.1,0-0.2,0-0.3c-0.1,0-0.1,0-0.1,0c-0.5,0.1-1,0.1-1.5,0c-0.1,0-0.2,0-0.2-0.1c-0.2-0.1-0.2-0.2-0.1-0.4
			c0.1-0.1,0.3-0.3,0.5-0.4c0.1-0.1,0.2-0.1,0.3-0.2c0.5-0.3,0.6-0.8,0.3-1.3c-0.1-0.1-0.2-0.2-0.2-0.3C30.1,70,30,69.8,30,69.7
			c0-0.2,0-0.4,0.1-0.6c0-0.2,0.1-0.5,0.2-0.7c0.1-0.4-0.1-0.8-0.3-1.1c-0.1-0.1-0.2-0.2-0.4-0.3c-0.2-0.1-0.3-0.2-0.5-0.4
			c-0.2-0.2-0.5-0.4-0.7-0.6c-0.3-0.3-0.4-0.7-0.3-1.1c0-0.4,0.1-0.8,0.2-1.2c0.1-0.4,0.2-0.7,0.3-1.1c0.1-0.5,0-1-0.3-1.5
			c-0.2-0.3-0.4-0.7-0.5-1.1c-0.1-0.4-0.2-0.9-0.1-1.3c0.1-0.8,0.2-1.7,0.3-2.5c0-0.1,0-0.3,0-0.5c-0.1-0.6-0.2-1.1-0.2-1.7
			c0-0.4,0-0.8,0.1-1.2c0.1-0.5,0.2-0.9,0.3-1.4c0.1-0.5,0.1-0.9-0.2-1.3c-0.2-0.4-0.3-0.8-0.4-1.2c-0.2-0.5-0.2-1.1,0-1.6
			c0.1-0.4,0.2-0.9,0.3-1.3c0.2-0.9,0.5-1.9,0.6-2.8c0.1-1-0.1-2-0.5-3c-0.2-0.3-0.3-0.7-0.4-1.1c0-0.1,0-0.3,0-0.4
			c0.1-0.5,0.2-1,0.5-1.5c0.4-0.8,0.6-1.6,0.7-2.5c0-0.1,0-0.1,0-0.2c-0.1-0.8-0.2-1.5-0.1-2.3c0,0-0.1,0-0.1,0
			c-0.5,0.8-1,1.6-1.3,2.4c-0.2,0.7-0.4,1.4-0.5,2.1c0,0.4-0.1,0.7-0.1,1.1c0,0.3,0.1,0.5,0.1,0.8c0.1,0.5,0.1,0.9,0.2,1.4
			c0,0.1,0,0.3,0,0.4c0,0.1,0,0.2,0,0.4c0,0.2,0,0.4,0,0.6c-0.1,1-0.4,1.9-0.8,2.8c-0.1,0.4-0.3,0.7-0.4,1.1c-0.1,0.5-0.2,1-0.3,1.5
			c-0.1,0.5-0.1,0.9,0,1.4c0.1,0.6,0.3,1.2,0.4,1.9c0.1,0.4,0.2,0.7,0.1,1.1c0,0.6-0.1,1.1-0.2,1.7c-0.1,0.6-0.2,1.3-0.2,1.9
			c0,0.2-0.1,0.5-0.1,0.7c0,0.3-0.1,0.5-0.1,0.8c0,0.7,0,1.3,0,2c0,0.4,0,0.7,0.1,1.1c0.2,1,0.5,1.9,0.8,2.8
			c0.2,0.5,0.4,1.1,0.6,1.6c0.2,0.6,0.4,1.1,0.6,1.7c0.1,0.3,0.3,0.6,0.6,0.8c0.3,0.2,0.5,0.4,0.8,0.6c0.3,0.2,0.5,0.5,0.7,0.8
			c0.4,0.4,0.5,0.8,0.4,1.3c-0.1,0.3-0.1,0.6-0.1,1c0,0.4,0.1,0.7,0.4,1c0.1,0.1,0.1,0.2,0.1,0.4c-0.1,0.3-0.2,0.5-0.5,0.6
			c-0.1,0.1-0.2,0.1-0.3,0.2c-0.3,0.1-0.4,0.4-0.5,0.6c0,0.1,0,0.2,0.1,0.2c0.2,0.1,0.4,0.1,0.6,0.2c0.3,0,0.6,0,1,0.1
			c0.2,0,0.3,0.1,0.3,0.3c0,0.1,0,0.1,0,0.2c0,0.2,0.1,0.4,0.2,0.5c0.1,0.1,0.1,0.2,0,0.3c-0.3,0.7-0.7,1.4-1,2.2
			c-0.2,0.4-0.4,0.9-0.6,1.4c0.1,0,0.1,0.1,0.2,0.1c0.3,0.2,0.7,0.5,1,0.7c0.3,0.2,0.6,0.3,0.9,0.5c1.1,0.6,2.2,1.1,3.4,1.4
			c0.4,0.1,0.7,0.2,1.1,0.1c0.1-0.1,0.2-0.3,0.2-0.4c0.4-0.9,0.9-1.7,1.4-2.5c0.1-0.1,0.1-0.2,0.2-0.2c0.2-0.2,0.5-0.4,0.7-0.4
			c0,0.2-0.1,0.4-0.1,0.6c-0.2,0.8-0.6,1.5-0.9,2.3c-0.1,0.3-0.3,0.5-0.3,0.9c0.2,0,0.3,0,0.4,0c0.1,0,0.2,0,0.3,0
			c0.4,0.1,0.8,0.1,1.2,0.2c0,0,0.1,0,0.1,0c0.2,0,0.3,0,0.5,0c0,0,0.1,0,0.1,0c0.1-0.1,0.3,0,0.4,0c0.7,0,1.5,0,2.2,0
			c0.7,0,1.4,0,2.1-0.1c0.6-0.1,1.1-0.2,1.7-0.3c0.2,0,0.4-0.1,0.5-0.4c0.3-0.6,0.7-1.2,1.1-1.7c0.5-0.7,1.1-1.4,1.7-2.1
			c0.2-0.2,0.4-0.5,0.6-0.7c-0.4-0.3-0.9-0.5-1.3-0.8c-0.2,0.2-0.2,0.7-0.6,0.7c-0.3-0.5-0.1-1.1,0.3-1.5c0,0,0.1-0.1,0.1-0.1
			c0.4-0.1,0.7-0.2,1.2-0.1c0.3-0.3,0.3-0.3,0-0.6c-0.2-0.2-0.3-0.3-0.5-0.5c-0.2-0.1-0.3-0.3-0.3-0.5c0-0.4,0-0.8,0.4-1.1
			c0.1,0,0.1-0.1,0.2-0.1c0.2-0.2,0.2-0.4,0.2-0.6c0-0.1-0.1-0.2-0.1-0.3c-0.1-0.3-0.2-0.5-0.3-0.8c-0.2-0.6-0.3-1.1,0-1.7
			c0-0.1,0.1-0.2,0.1-0.3c0.2-0.4,0.1-0.8-0.2-1.2c-0.2-0.2-0.3-0.5-0.5-0.7c-0.2-0.3-0.3-0.7-0.1-1.1c0.2-0.4,0.4-0.7,0.6-1.1
			c0.4-0.7,0.7-1.5,0.9-2.3c0.1-0.3,0-0.5-0.1-0.8c-0.2-0.4-0.3-0.7-0.3-1.2c0-0.5,0-0.9,0.2-1.3c0-0.1,0-0.3,0-0.4
			c-0.1-0.2-0.1-0.5-0.2-0.7c-0.2-0.5-0.1-0.9,0.2-1.2c0.2-0.3,0.4-0.5,0.6-0.8c0.2-0.3,0.4-0.7,0.6-1c0.2-0.4,0.1-0.8-0.1-1.1
			c-0.1-0.1-0.1-0.2-0.2-0.3c-0.2-0.4-0.4-0.9-0.6-1.3C50,51,50,50.7,50,50.4c0.1-0.6,0.3-1.1,0.5-1.6c0.3-0.6,0.6-1.3,0.9-1.9
			c0.3-0.6,0.3-1.2,0-1.9C51.3,44.6,51.1,44.3,51,44z M39.4,43.8c0.2-0.2,0.4-0.3,0.7-0.4c0.1,0.1,0.1,0.1,0.1,0.2
			c0.1,0.1,0.1,0.2,0,0.3c-0.2,0.1-0.3,0.2-0.5,0.3c-0.1,0-0.2,0-0.3,0C39.3,44.1,39.3,44,39.4,43.8z M38.3,43.5
			c0,0.1,0.1,0.1,0.1,0.2c0.1,0.1,0.2,0.2,0.1,0.3c-0.1,0.1-0.2,0.1-0.3,0.2c-0.1-0.1-0.3-0.1-0.4-0.2c-0.1-0.1-0.3-0.3-0.4-0.4
			c-0.1-0.1,0-0.2,0.1-0.3C37.9,43.2,38.2,43.3,38.3,43.5z M37.7,37.9c0-0.1,0.1-0.2,0.1-0.3c0.4,0.1,0.5,0.2,0.5,0.6
			c0,0.3,0,0.6-0.1,0.9c-0.1,0.8-0.2,1.6-0.4,2.4c-0.1,0.5-0.3,1-0.5,1.4c-0.1,0.2-0.2,0.2-0.4,0.3c-0.1,0-0.2,0-0.2-0.1
			c0,0,0-0.1,0-0.1c0.2-0.8,0.4-1.6,0.5-2.5c0.1-0.6,0.2-1.2,0.3-1.8C37.6,38.3,37.6,38.1,37.7,37.9z M36.1,34.3
			c0-0.2,0.1-0.3,0.3-0.4c0.2,0,0.4,0.1,0.5,0.3c0.1,0.1,0.2,0.3,0.3,0.4c0.1,0.1,0.2,0.2,0.1,0.3c-0.1,0.1-0.2,0.1-0.3,0.1
			c-0.3,0-0.5,0-0.7-0.1c-0.2-0.1-0.3-0.2-0.5-0.3c-0.1,0-0.2-0.1-0.2-0.2C35.7,34.2,35.9,34.3,36.1,34.3z M35.7,38
			c-0.9,0.4-1.8,0.2-2.3-0.8c-0.1-0.1-0.1-0.2,0-0.3c0.1-0.2,0.2-0.4,0.5-0.5c0.3-0.1,0.6-0.2,0.8-0.3c0.3,0.1,0.6,0.1,0.8,0.2
			c0.3,0.1,0.5,0.4,0.6,0.8C36.3,37.4,36,37.9,35.7,38z M42,48c-0.1,0-0.1,0-0.2,0c0,0,0,0,0,0c-0.5,0.1-1.1,0.1-1.6,0.2
			c-0.1,0-0.2,0-0.3,0c-0.2,0-0.3,0-0.5,0c-0.5,0.1-0.9,0-1.4-0.1c-0.4-0.1-0.8-0.3-1.3-0.2c-0.2,0-0.4-0.1-0.5-0.3
			c-0.1-0.1-0.1-0.3,0.1-0.3c0.1,0,0.1,0,0.2,0c0.7,0.1,1.3,0.1,2,0.3c0.4,0.1,0.9,0.1,1.3,0.1c0.5,0,1-0.1,1.5-0.1
			c0.3,0,0.5,0,0.8,0c0.2,0,0.3,0.1,0.3,0.3C42.3,47.9,42.2,48,42,48z M42.2,35c-0.1-0.1-0.3-0.2-0.4-0.3c-0.2-0.1-0.1-0.2,0-0.3
			c0.2-0.1,0.4-0.1,0.5-0.1c0.3-0.1,0.5-0.1,0.7-0.2c0.2-0.1,0.4-0.1,0.6,0c0.1,0,0.1,0.1,0.2,0.2c0,0.1,0,0.1-0.1,0.1
			c-0.1,0.1-0.1,0.1-0.2,0.2c-0.3,0.2-0.6,0.3-1,0.5C42.5,35.1,42.4,35,42.2,35z M45.6,38.5c-0.6,0.1-1.1,0.1-1.6-0.2
			c-0.4-0.2-0.6-0.5-0.6-0.9c0-0.3,0.3-0.7,0.6-0.8c0.5-0.2,1-0.2,1.5,0c0.4,0.1,0.7,0.5,0.7,0.9C46.3,37.9,46.1,38.4,45.6,38.5z"/>
		<path class="st1" d="M42.1,88.7c0.6-1.2,1.3-2.3,2.1-3.4c-0.8,0.3-1.7,0.2-2.5,0.2C41.8,86.7,41.9,87.7,42.1,88.7z"/>
		<path class="st1" d="M41.1,93.1c0,0.1-0.1,0.1-0.2,0.2c-0.1,0.1-0.2,0.2-0.3,0.4c-0.2,0.2-0.3,0.5-0.5,0.7
			c-0.6,0.7-1.1,1.4-1.4,2.3c-0.1,0.3-0.2,0.5-0.3,0.8c-0.2,0.5-0.3,0.9-0.5,1.4c0,0.1,0,0.1,0,0.2c-0.1,0.5-0.2,0.9-0.3,1.4
			c0,0.3-0.1,0.6,0,0.9c0.3-0.1,0.5-0.3,0.7-0.4c0.2-0.2,0.5-0.4,0.5-0.8c0-0.1,0.1-0.2,0.1-0.3c0.5-1.1,1.1-2.3,1.8-3.3
			c0.2-0.2,0.3-0.5,0.5-0.8c0.5-0.7,0.9-1.3,1.4-2c0.5-0.7,1.2-1.3,1.8-1.9c0.5-0.5,1.1-1,1.6-1.5c0,0,0.1-0.1,0.1-0.1
			c0.1-0.1,0.3-0.2,0.4-0.4c0.5-0.5,1.2-1,1.8-1.4c0.4-0.3,0.8-0.6,1.3-0.9c0.1-0.1,0.2-0.1,0.3-0.2c0.1-0.1,0.2,0,0.2,0.1
			c0.1,0.1,0,0.2-0.1,0.2c-0.2,0.1-0.3,0.3-0.5,0.4c-1,0.8-2,1.5-2.8,2.4c-0.5,0.5-1.1,1-1.6,1.5c-0.6,0.6-1.1,1.2-1.7,1.8
			c-0.6,0.6-1.1,1.2-1.5,1.9c-0.1,0.1-0.2,0.2-0.2,0.4c-0.7,1-1.4,2-1.9,3.1c-0.1,0.1-0.1,0.3-0.2,0.4c0,0,0,0,0.1,0
			c0.1-0.1,0.2-0.2,0.4-0.3c0.5-0.4,1-0.8,1.5-1.3c1.1-0.9,2.2-1.9,3.2-2.9c1.1-1,2.1-2,3.1-3.1c0.3-0.3,0.6-0.6,0.8-0.8
			c0.6-0.6,1.1-1.2,1.7-1.7c0.6-0.6,1.2-1.3,1.8-1.9c1.4-1.5,2.8-2.9,4.1-4.5c0.7-0.8,1.3-1.6,2-2.3c0,0,0,0,0-0.1c0,0-0.1,0-0.1,0
			c-0.8,0.3-1.6,0.7-2.4,1c-0.3,0.1-0.6,0.3-0.9,0.5c-0.1,0.1-0.3,0.1-0.4,0.2c-0.3,0.2-0.6,0.4-0.9,0.5c-0.5,0.3-1.1,0.6-1.6,0.9
			c-0.8,0.5-1.6,1-2.4,1.5c-0.7,0.5-1.4,1-2,1.5c-0.4,0.3-0.7,0.5-1.1,0.8c-0.7,0.5-1.3,1.1-2,1.6c-0.4,0.4-0.8,0.8-1.2,1.2
			c-0.4,0.4-0.8,0.8-1.2,1.1C41.8,92.2,41.4,92.6,41.1,93.1z"/>
		<path class="st1" d="M32,52.2C32,52.2,32,52.2,32,52.2c0,0.1,0,0.2,0,0.3c0,0,0,0,0,0C32.1,52.3,32.1,52.2,32,52.2z"/>
		<path class="st1" d="M66.8,104.3c-0.2,0-0.4,0-0.5,0c-0.5,0.1-1,0.1-1.5,0.2c-0.4,0.1-0.8,0.2-1.1,0.4c0.2,0,0.4,0,0.6-0.1
			c0.6,0,1.2-0.1,1.8-0.1c0.7,0,1.5,0,2.2,0c0.7,0,1.4,0.2,2.2,0.3c1.2,0.2,2.3,0.3,3.5,0.6c0.1,0,0.2,0,0.3,0.1c0,0,0,0,0-0.1
			c-0.1-0.1-0.1-0.1-0.2-0.2c-0.3-0.1-0.6-0.3-0.9-0.4c-1.1-0.5-2.3-0.7-3.5-0.8C68.6,104.3,67.7,104.3,66.8,104.3z"/>
		<path class="st1" d="M62.9,95.5c-0.2,0.1-0.4,0.3-0.5,0.4c-0.6,0.5-1.2,1-1.8,1.5c-0.8,0.7-1.6,1.5-2.4,2.3
			c-0.9,0.9-1.7,1.8-2.6,2.7c-0.4,0.4-0.8,0.8-1.1,1.3c-0.4,0.4-0.7,0.8-1.1,1.2c-0.3,0.4-0.5,0.7-0.8,1.1c0,0,0,0,0,0
			c0.1-0.1,0.1-0.1,0.2-0.2c1.3-1.3,2.6-2.7,3.8-4c0.6-0.6,1.2-1.1,1.8-1.6c1.3-1.1,2.5-2.2,3.8-3.3c0.3-0.3,0.7-0.6,1-0.8
			c0.6-0.4,1.2-0.9,1.7-1.3c0.5-0.4,1-0.7,1.5-1c1.3-0.8,2.6-1.6,3.9-2.3c0.7-0.3,1.3-0.7,1.9-1c0.1,0,0.1-0.1,0.2-0.1
			c-0.2,0-0.4,0-0.6,0.1c-1.2,0.4-2.4,0.9-3.5,1.5c-0.5,0.3-1,0.5-1.5,0.8c-0.9,0.6-1.8,1.2-2.7,1.8C63.8,94.8,63.3,95.1,62.9,95.5z
			"/>
		<path class="st1" d="M59.8,59.7C59.8,59.7,59.8,59.7,59.8,59.7c-0.1,0.1-0.1,0.2-0.1,0.3c-0.1,0.6-0.2,1.1-0.4,1.7
			c-0.4,1.2-0.8,2.4-1.1,3.6c-0.2,0.5-0.4,1-0.5,1.5c0,0.2-0.1,0.5-0.2,0.7c-0.2,0.7-0.5,1.3-0.8,2c0,0.1-0.1,0.2,0,0.4
			c0.3-0.1,0.5-0.3,0.7-0.6c0.1-0.1,0.1-0.3,0.2-0.4c0.3-1,0.6-2,0.9-3c0.4-1.6,0.9-3.2,1.2-4.8C59.7,60.6,59.8,60.1,59.8,59.7z"/>
		<path class="st1" d="M53.4,38.4c0-0.1,0-0.3-0.1-0.4c0,0,0,0,0,0C53.3,38.1,53.3,38.3,53.4,38.4C53.4,38.4,53.4,38.4,53.4,38.4z"
			/>
		<path class="st1" d="M53.1,45c0,0.2,0,0.3,0.1,0.5c0,0,0,0,0.1,0C53.2,45.3,53.2,45.1,53.1,45C53.2,45,53.1,45,53.1,45z"/>
		<path class="st1" d="M52.9,43.6c0,0.1,0,0.3,0.1,0.4c0,0,0,0,0.1,0C53,43.9,53,43.7,52.9,43.6C53,43.6,53,43.6,52.9,43.6z"/>
		<path class="st1" d="M53.4,63c0,0.2-0.1,0.4-0.1,0.6c0,0,0,0,0.1,0C53.4,63.4,53.4,63.2,53.4,63C53.5,63,53.4,63,53.4,63z"/>
		<path class="st1" d="M66.1,100.4c0.9-0.4,1.8-0.7,2.7-1.1c0.1,0,0.2-0.1,0.3-0.1c0,0,0,0,0-0.1c-0.1,0-0.2,0-0.3,0
			c-0.2,0-0.4,0-0.7,0c-0.1,0-0.1,0-0.2,0c-0.3,0.1-0.6,0.2-1,0.4c-0.1,0-0.1,0.1-0.2,0.1c-0.3,0-0.5,0.1-0.7,0.3
			c-0.3,0.2-0.7,0.4-1,0.5c-0.5,0.3-1.1,0.5-1.6,0.8c-1.4,0.9-2.8,1.9-4,3.1c-0.6,0.6-1.2,1.1-1.8,1.7c0,0-0.1,0.1-0.1,0.1
			c0.1,0,0.2-0.1,0.2-0.1c1.4-1.1,2.7-2.1,4.1-3.2C63.1,101.9,64.6,101.1,66.1,100.4z"/>
		<path class="st1" d="M36.3,60.9c-0.1-0.6-0.1-1.2-0.2-1.9c-0.1,0.4,0.1,1.8,0.2,2C36.3,60.9,36.3,60.9,36.3,60.9z"/>
		<path class="st1" d="M33.2,66.9C33.2,66.9,33.2,66.9,33.2,66.9c0,0.1,0,0.3,0,0.4c0,0,0,0,0,0C33.2,67.1,33.2,67,33.2,66.9z"/>
		<path class="st1" d="M52.6,49.4c0-0.1,0-0.1,0-0.2c0,0,0,0,0,0C52.6,49.3,52.6,49.3,52.6,49.4z"/>
		<path class="st1" d="M51.6,42.1C51.6,42.1,51.7,42.1,51.6,42.1c0-0.1,0-0.2,0-0.3c0,0,0,0,0,0C51.6,42,51.6,42,51.6,42.1z"/>
		<path class="st1" d="M52,67c0-0.2,0-0.5,0-0.7c0,0,0,0-0.1,0C51.9,66.6,51.9,66.8,52,67z"/>
		<path class="st1" d="M56.9,96.3c0.2-0.2,0.4-0.4,0.5-0.6c0.8-1.1,1.5-2.2,2.2-3.4c0.4-0.7,0.9-1.5,1.3-2.2
			c0.9-1.9,1.8-3.8,2.5-5.7c0.3-0.7,0.6-1.4,0.8-2.1c0.3-0.8,0.4-1.7,0.6-2.5c0-0.1,0-0.1,0-0.2c-0.1,0-0.2,0-0.3,0
			c0,0.1,0,0.1,0,0.1c-0.1,0.7-0.4,1.4-0.7,2.1c-0.1,0.2-0.2,0.5-0.3,0.7c-0.1,0.3-0.2,0.6-0.3,0.9c-0.2,0.5-0.4,0.9-0.5,1.4
			c-0.2,0.6-0.5,1.2-0.7,1.7c-0.2,0.5-0.4,0.9-0.7,1.4c-0.2,0.3-0.3,0.6-0.5,1c-0.2,0.4-0.4,0.8-0.6,1.2c-0.3,0.7-0.7,1.3-1,2
			c-0.2,0.3-0.4,0.6-0.6,1c-0.1,0.2-0.2,0.5-0.4,0.7C57.9,94.6,57.5,95.4,56.9,96.3z"/>
		<path class="st1" d="M48.9,92.5c-1.1,1.1-2.2,2.2-3.3,3.2c-1.2,1-2.3,2.1-3.5,3.1c-0.7,0.6-1.4,1.1-2.1,1.6
			c-0.6,0.5-1.2,0.9-1.8,1.3c-0.6,0.4-1.1,0.8-1.7,1.3c-0.2,0.2-0.5,0.4-0.7,0.6c0.8,0.1,1.5,0.1,2.2,0.2c0.7,0.2,1.4,0.5,2.1,0.8
			c0.2-0.3,0.5-0.5,0.7-0.8c0.6-0.6,1.1-1.3,1.7-1.9c0.4-0.5,0.9-1,1.3-1.6c0.7-0.9,1.3-1.8,2-2.7c0.9-1.1,1.7-2.3,2.4-3.6
			c0.4-0.7,0.8-1.4,1.2-2.1c0,0,0-0.1,0-0.1C49.2,92.2,49,92.4,48.9,92.5z"/>
		<path class="st1" d="M29.8,89.1c0.2-0.4,0.4-0.8,0.6-1.2c0.1-0.2,0.2-0.4,0.3-0.7c0.2-0.4,0.3-0.7,0.5-1.1
			c0.1-0.1,0.1-0.2,0.2-0.4c0.3-0.5,0.6-1.1,0.9-1.6c0-0.1,0.1-0.1,0.1-0.2c-0.6-0.2-1.3-0.5-1.9-0.7c-0.2,0.2-0.3,0.4-0.5,0.6
			c-0.4,0.6-0.8,1.2-1.2,1.8c-1,1.4-1.8,2.9-2.5,4.5c-0.2,0.4-0.2,0.9-0.1,1.3c0.1,0.4,0.2,0.9,0.3,1.3c0.2,0.7,0.3,1.3,0.6,1.9
			c0.2,0.3,0.4,0.6,0.6,0.9c0.3,0.4,0.5,0.9,0.9,1.2c0,0,0.1,0.1,0.1,0.1c0.2,0.3,0.4,0.7,0.6,1c0.4,0.7,0.8,1.4,1.2,2.2
			c0,0.1,0.1,0.1,0.1,0.2c0-0.1,0-0.1,0-0.1c-0.1-0.5-0.2-1.1-0.2-1.6c-0.1-0.6-0.2-1.3-0.3-1.9c-0.1-0.6-0.1-1.1,0-1.7
			c0-0.1,0-0.2,0.2-0.3c0,0,0,0.1,0.1,0.1c0.1,0.4,0.2,0.7,0.3,1.1c0.1,0.4,0.1,0.8,0.2,1.2c0.2,1.2,0.4,2.4,0.6,3.6
			c0.1,0.5,0.2,0.9,0.2,1.4c0,0.2,0.1,0.3,0.3,0.4c0.4,0.2,0.7,0.3,1.1,0.5c0.2,0.1,0.5,0.2,0.8,0.3c0.2-0.4,0.2-0.9,0.2-1.3
			c0-0.9,0.1-1.7,0.1-2.6c0-0.6,0.1-1.1,0.2-1.7c0-0.3,0.1-0.5,0.2-0.8c0-0.1,0.1-0.2,0.2-0.2c0,0.4,0,0.9-0.1,1.3
			c0,0.5,0,0.9,0,1.4c0,0.5,0,0.9,0,1.4c0,0.5,0,0.9,0,1.4c0,0.4-0.1,0.9-0.1,1.4c0.1,0,0.1-0.1,0.2-0.1c0.6-0.4,1.2-0.9,1.8-1.3
			c0.1-0.1,0.1-0.2,0.1-0.3c0-0.4,0-0.7,0-1.1c0-0.9,0.2-1.8,0.5-2.6c0.1-0.4,0.2-0.9,0.4-1.3c0.6-1.3,1.4-2.4,2.3-3.5
			c0.3-0.3,0.5-0.7,0.8-1c0-0.1,0.1-0.1,0.1-0.2c0.2-0.6,0.4-1.2,0.6-1.9c0-0.1,0-0.2,0-0.2c0-0.5-0.1-1-0.2-1.4
			c-0.1-1-0.2-1.9-0.5-2.9c-1-0.1-2.1-0.2-3.1-0.3c0,0.1,0,0.2,0,0.3c0,0.2,0,0.3,0,0.5c0,1.3-0.1,2.6-0.2,3.9
			c-0.1,0.7-0.2,1.3-0.5,1.9c0,0.1-0.1,0.1-0.1,0.2c-0.1-0.1-0.1-0.2-0.2-0.3c0-0.1-0.1-0.3-0.1-0.4c0-0.4,0.1-0.8,0.1-1.1
			c0-0.6,0.1-1.2,0.1-1.8c0-0.3,0.1-0.6,0.1-0.9c0-0.7,0-1.4,0-2.2c0-0.1,0-0.2,0-0.3c-0.9-0.2-1.8-0.4-2.6-0.6c0,0,0,0.1,0,0.1
			c-0.2,0.9-0.3,1.7-0.5,2.6c-0.2,1-0.4,1.9-0.6,2.9c-0.1,0.2-0.1,0.4-0.2,0.6c0,0-0.1,0.1-0.1,0.1c-0.1,0-0.1-0.1-0.1-0.1
			c0,0,0-0.1,0-0.1c0-0.2,0-0.4,0-0.6c0.1-0.7,0.3-1.5,0.4-2.2c0.1-0.7,0.2-1.4,0.4-2.1c0.1-0.4,0.1-0.8,0.2-1.2
			c-0.2-0.1-0.3-0.1-0.5-0.2c-0.2,0.3-0.4,0.6-0.5,0.9c-0.3,0.6-0.6,1.2-0.9,1.8c-0.2,0.3-0.3,0.6-0.5,0.9c-0.4,0.8-0.8,1.6-1.3,2.4
			c0,0.1-0.1,0.1-0.1,0.2c-0.1,0-0.2,0.1-0.2,0.1c-0.1,0-0.1-0.1-0.1-0.2c0-0.2,0-0.3,0-0.5C29.6,89.6,29.7,89.4,29.8,89.1z"/>
		<path class="st1" d="M42.6,105.9c0.5-0.7,0.8-1.5,1.1-2.3c0.4-1,0.7-2,0.9-3c-1.2,1.5-2.5,3-3.8,4.5
			C41.4,105.4,42,105.6,42.6,105.9z"/>
		<path class="st1" d="M72.5,115.4c-0.2-0.7-0.5-1.4-0.9-2c-0.4-0.5-0.7-0.9-1.2-1.4c-0.6-0.6-1.4-1.1-2.2-1.5
			c-0.4-0.2-0.7-0.3-1.1-0.5c-0.7-0.3-1.3-0.4-2-0.6c-0.7-0.2-1.4-0.3-2-0.3c-0.4,0-0.7-0.1-1.1,0c-0.5,0-0.9,0.1-1.4,0.1
			c-0.5,0.1-1.1,0.1-1.6,0.2c-0.7,0.1-1.3,0.2-2,0.3c-0.3,0.1-0.7,0.1-1.1,0.1c-0.2,0-0.4,0-0.7,0.1c-0.3,0-0.6,0-1,0.1
			c-0.3,0-0.7,0.1-1,0.2c-0.3,0.1-0.6,0.1-0.8,0.1c-0.6,0.1-1.2,0.3-1.7,0.4c-0.2,0-0.4,0-0.7,0.1c0.1,0.1,0.1,0.1,0.1,0.1
			c0.5,0.4,1,0.8,1.5,1.2c0.1,0.1,0.2,0.1,0.3,0.1c0.4,0.1,0.7,0.2,1.1,0.4c0.4,0.2,0.8,0.4,1.2,0.6c0.1,0,0.2,0.1,0.3,0.1
			c0-0.4-0.1-0.7-0.1-1c0-0.4,0.3-0.8,0.6-1c0.3-0.1,0.6,0,0.9,0.1c1.1,0.5,2.2,1,3.3,1.6c0.2,0.1,0.5,0.2,0.7,0.3
			c0.2,0.1,0.4,0.1,0.6,0.1c0.2-0.4,0.1-0.7,0-1.1c-0.1-0.4,0-0.8,0-1.2c0-0.2,0.1-0.4,0.2-0.5c0.1-0.1,0.2-0.2,0.3-0.2
			c0.3,0,0.5,0,0.8,0c0.7,0.2,1.5,0.5,2.2,0.7c1.1,0.4,2.3,0.8,3.4,1.3c0.3,0.1,0.7,0.2,1,0.1c0,0,0.1,0,0.1,0c0,0,0,0.1,0,0.1
			c0,0.3,0,0.3-0.3,0.4c-0.3,0-0.5,0-0.8-0.1c-0.8-0.2-1.6-0.4-2.4-0.7c-1-0.3-2.1-0.7-3.1-1c-0.2-0.1-0.4-0.1-0.7-0.1
			c-0.2,0-0.3,0-0.3,0.3c0,0.1,0,0.3,0,0.4c0.1,0.6,0.2,1.3,0,1.9c-0.1,0.3-0.3,0.5-0.6,0.6c-0.2,0-0.5-0.1-0.7-0.2
			c-0.9-0.4-1.9-0.9-2.8-1.3c-0.4-0.2-0.8-0.4-1.3-0.6c-0.2-0.1-0.4-0.1-0.6,0c-0.2,0.1-0.2,0.1-0.2,0.3c0,0.3,0.1,0.7,0.1,1
			c0,0.4-0.4,0.6-0.8,0.4c-0.3-0.1-0.6-0.3-0.9-0.4c-0.3-0.1-0.5-0.2-0.8-0.3c0,0.1,0.1,0.2,0.1,0.3c0.2,0.5,0.4,0.9,0.3,1.4
			c-0.1,0.8-0.9,1.1-1.5,0.8c-0.4-0.2-0.8-0.5-1.1-0.9c-0.4-0.4-0.7-0.8-1.1-1.2c-0.1-0.1-0.2-0.2-0.3-0.2c-0.2-0.1-0.5-0.3-0.7-0.4
			c-0.3-0.2-0.7-0.4-1.1-0.5c-0.5-0.2-1.1-0.2-1.6-0.4c0,0-0.1,0-0.1,0c-0.3,0.1-0.6,0.2-0.9,0.3c-0.2,0.1-0.2,0.2-0.2,0.4
			c0.1,0.2,0.1,0.4,0.3,0.6c0.2,0.2,0.3,0.4,0.5,0.6c0.6,0.7,1.2,1.4,1.9,2c0.9,0.6,1.7,1.2,2.6,1.8c0.2,0.1,0.3,0.2,0.5,0.4
			c0.3,0.4,0.6,0.8,0.8,1.3c0.1,0.2,0.1,0.4,0,0.6c0,0.1-0.1,0.2-0.1,0.4c0.1,0,0.1,0.1,0.2,0.1c0.7,0.2,1.3,0.4,2,0.6
			c1,0.3,2,0.6,3.1,0.7c0.8,0.1,1.6,0.2,2.5,0.3c0.9,0.1,1.9,0.2,2.8,0.2c0.5,0,1,0,1.5,0c0.6,0,1.1,0,1.7-0.1
			c0.5-0.1,1-0.2,1.5-0.3c1.1-0.2,2.1-0.6,3.1-1c0.8-0.4,1.5-0.8,2.2-1.4c0.4-0.4,0.8-0.8,1-1.3c0.3-0.6,0.4-1.2,0.3-1.8
			C72.7,116.2,72.6,115.8,72.5,115.4z M57.7,118.5c-0.1,0-0.2,0-0.2-0.1c-0.7-0.4-1.5-0.8-2.2-1.1c-0.5-0.2-0.9-0.4-1.4-0.7
			c-0.1-0.1-0.3-0.1-0.4-0.2c-0.1-0.1-0.1-0.2-0.1-0.4c0-0.1,0.1-0.2,0.3-0.1c0.1,0,0.2,0,0.3,0.1c0.4,0.2,0.9,0.4,1.3,0.6
			c0.6,0.3,1.2,0.6,1.8,1c0.2,0.1,0.4,0.2,0.6,0.4c0.1,0.1,0.2,0.3,0.3,0.4C58,118.4,57.9,118.5,57.7,118.5z M60.3,119.8
			c-0.1,0.2-0.2,0.2-0.3,0c-0.1-0.1-0.1-0.3-0.2-0.4c-0.2-0.6-0.4-1.2-0.7-1.8c-0.4-0.7-0.8-1.4-1.4-2c-0.3-0.3-0.5-0.7-0.8-1
			c-0.1-0.1-0.2-0.3-0.3-0.4c-0.2-0.2-0.2-0.4-0.1-0.7c0.1,0.1,0.2,0.2,0.3,0.3c0.5,0.6,1,1.1,1.6,1.7c0.7,0.7,1.1,1.6,1.5,2.5
			c0.2,0.5,0.3,1,0.5,1.6C60.4,119.5,60.4,119.7,60.3,119.8z M66.7,118.4c-0.1,0-0.2,0-0.2,0c-0.2-0.1-0.3-0.2-0.4-0.4
			c-0.2-0.3-0.4-0.6-0.6-0.9c-0.3-0.5-0.6-0.9-0.9-1.4c0-0.1-0.1-0.1-0.1-0.2c-0.1-0.3-0.1-0.3,0.2-0.5c0.1,0.2,0.3,0.3,0.4,0.5
			c0.5,0.8,0.9,1.5,1.4,2.3c0.1,0.1,0.2,0.3,0.2,0.4C66.8,118.2,66.7,118.3,66.7,118.4z M70.1,117.6c-0.1,0.1-0.2,0.1-0.3,0
			c-0.3-0.2-0.5-0.4-0.7-0.6c-0.4-0.5-0.8-0.8-1.3-1.1c-0.5-0.3-1.1-0.6-1.7-0.9c-0.8-0.4-1.5-0.8-2.3-1.2c-0.2-0.1-0.3-0.2-0.3-0.4
			c0-0.3,0.1-0.4,0.4-0.3c0.3,0.1,0.5,0.2,0.8,0.3c0.7,0.3,1.5,0.7,2.2,1.1c0.7,0.4,1.4,0.7,2,1.3c0.4,0.4,0.8,0.9,1.2,1.3
			c0.1,0.1,0.1,0.1,0.1,0.2C70.3,117.4,70.2,117.5,70.1,117.6z"/>
		<path class="st1" d="M46.3,103.3c-0.4,0.6-0.7,1.1-1.1,1.7c-0.1,0.1-0.1,0.2-0.2,0.3c0,0,0,0,0.1,0c4.3-5.8,8.2-11.8,12-17.9
			c-0.3,0.2-0.5,0.5-0.7,0.8c-0.5,0.8-0.9,1.7-1.5,2.5c-0.3,0.4-0.5,0.7-0.8,1.1c-0.4,0.6-0.9,1.2-1.3,1.9c-0.3,0.4-0.5,0.8-0.7,1.2
			c-0.3,0.5-0.6,0.9-0.9,1.3c-0.5,0.7-1,1.5-1.5,2.2c-0.8,1.1-1.7,2.3-2.5,3.4C46.9,102.2,46.6,102.8,46.3,103.3z"/>
		<path class="st1" d="M26.6,77.9c0.1-0.7,0.2-1.5,0.3-2.2c0.1-1.1,0.3-2.1,0.5-3.2c0.1-0.8,0.2-1.6,0.2-2.4c0-0.4,0-0.9-0.1-1.3
			c0-0.3-0.1-0.5-0.1-0.8c-0.1,0.1-0.1,0.2-0.1,0.3c0,0.5-0.1,1-0.1,1.5c-0.1,0.6-0.1,1.1-0.2,1.7c-0.1,0.8-0.2,1.6-0.3,2.4
			c-0.1,0.4-0.1,0.9-0.1,1.3c-0.1,1-0.1,2,0,3.1C26.6,78.2,26.6,78.1,26.6,77.9z"/>
		<path class="st1" d="M29.5,58.5C29.5,58.5,29.5,58.5,29.5,58.5c0,0.1,0,0.3,0,0.4c0,0,0,0,0,0C29.5,58.7,29.5,58.6,29.5,58.5z"/>
		<path class="st1" d="M29.4,45.3C29.4,45.3,29.4,45.3,29.4,45.3c0,0.1,0,0.2,0,0.3c0,0,0,0,0,0C29.4,45.6,29.4,45.5,29.4,45.3z"/>
		<path class="st1" d="M26.1,88.9c0.4-1.1,1.1-2.1,1.7-3c0.6-1,1.2-2,2-2.9c-0.7-0.4-1.3-0.8-1.9-1.2c-0.2,0.5-0.4,1-0.5,1.5
			c-0.4,1.3-0.9,2.6-1.1,3.9c-0.1,0.5-0.2,1-0.2,1.6C26,88.8,26,88.8,26.1,88.9C26.1,88.9,26.1,88.9,26.1,88.9z"/>
		<path class="st1" d="M38.2,118.8c-0.7-0.4-1.4-0.8-2-1.3c-0.5-0.4-1-0.8-1.5-1.2c-0.2-0.2-0.5-0.3-0.7-0.5
			c-0.6-0.6-1.3-1.2-1.7-1.9c-0.1-0.2-0.1-0.2-0.3-0.1c-0.2,0.1-0.5,0.2-0.7,0.4c-0.2,0.1-0.3,0.2-0.5,0.3c-0.2,0.1-0.4,0.3-0.6,0.4
			c-0.1,0.1-0.2,0.1-0.3,0.2c-0.3,0.2-0.6,0.4-0.8,0.7c-0.2,0.2-0.3,0.4-0.5,0.6c-0.5,0.5-0.9,1.1-1.2,1.8c-0.1,0.3-0.2,0.7-0.2,1
			c0,0.5,0.1,1.1,0.2,1.6c0.1,0.5,0.4,1,0.8,1.3c0.1,0.1,0.2,0.1,0.3,0.2c0-0.1,0-0.1,0-0.1c0-0.8,0-1.6,0.3-2.4c0-0.1,0-0.2,0-0.3
			c-0.1-0.3,0-0.6,0.2-0.9c0.1-0.1,0.2-0.2,0.3-0.3c0.2-0.1,0.3-0.3,0.4-0.6c0.2-0.6,0.5-1.1,0.7-1.7c0.1-0.2,0.3-0.3,0.5-0.1
			c0.1,0.1,0.1,0.3,0.1,0.4c-0.1,0.2-0.1,0.5-0.2,0.7c-0.2,0.5-0.4,1-0.6,1.5c-0.2,0.4-0.3,0.7-0.5,1.1c-0.3,0.7-0.5,1.5-0.4,2.3
			c0,0.3,0.1,0.6,0.2,0.9c0.2,0.3,0.4,0.5,0.7,0.7c0-0.4,0.1-0.7,0.1-1c0-0.7,0.2-1.3,0.3-1.9c0-0.2,0.1-0.4,0.2-0.6
			c0.2-0.8,0.4-1.7,0.6-2.5c0-0.1,0.1-0.2,0.1-0.2c0.1,0,0.2,0,0.3,0.2c0,0.1,0.1,0.2,0.1,0.3c0,0.2,0,0.5-0.1,0.7
			c-0.1,0.3-0.2,0.6-0.3,0.9c-0.1,0.2-0.1,0.4-0.1,0.6c-0.2,0.8-0.4,1.5-0.5,2.3c-0.1,0.4-0.1,0.8-0.1,1.2c0,0.1,0,0.1,0.1,0.3
			c0.1-0.1,0.1-0.1,0.1-0.2c0.4-1,0.8-1.9,1.2-2.9c0.1-0.1,0.1-0.3,0.1-0.4c0.1-0.3,0.1-0.6,0.2-0.9c0-0.1,0.1-0.2,0.2-0.2
			c0.2,0,0.2,0.2,0.3,0.3c0.1,0.1,0,0.2,0,0.3c0,0.1-0.1,0.2-0.1,0.3c0,0.5-0.2,0.9-0.4,1.4c-0.1,0.4-0.3,0.8-0.5,1.1
			c-0.3,0.6-0.4,1.2-0.6,1.8c-0.2,0.5-0.3,1-0.5,1.6c-0.1,0.3,0,0.5,0.1,0.8c0.2-0.1,0.4-0.3,0.6-0.5c0.4-0.5,0.6-1,0.7-1.6
			c0.1-0.4,0.3-0.8,0.5-1.1c0.4-0.6,0.9-1.3,1.3-1.9c0.1-0.2,0.2-0.3,0.3-0.4c0.2-0.3,0.5-0.5,0.9-0.6c0.6-0.1,1.2-0.2,1.7-0.3
			c0.6-0.1,1.2-0.2,1.8-0.4c0.3-0.1,0.7-0.3,1.1-0.5c-0.1-0.1-0.2-0.1-0.2-0.1C39.3,119.3,38.7,119,38.2,118.8z"/>
		<path class="st1" d="M29,114.7c0.2-0.2,0.4-0.3,0.6-0.5c0.2-0.1,0.4-0.3,0.6-0.4c-0.2-0.1-0.3-0.1-0.4-0.2
			c-0.8-0.5-1.5-1.1-1.8-2.1c-0.1-0.4-0.2-0.8-0.2-1.2c0-0.5-0.1-1-0.1-1.5c0-0.9,0.3-1.7,0.6-2.5c0.2-0.4,0.4-0.7,0.7-1
			c0.4-0.5,0.9-0.9,1.6-1.1c0.5-0.1,1.1-0.2,1.6-0.3c0.2,0,0.5-0.1,0.8-0.1c-0.2-0.2-0.4-0.3-0.6-0.4c-0.7-0.4-1.5-0.6-2.2-1
			c-1.1-0.6-2.2-1.2-3.2-1.8c-0.2-0.1-0.4-0.3-0.6-0.4c-1.3-0.6-2.7-0.9-4.1-0.9c-0.1,0-0.3,0.1-0.4-0.1c0,0-0.1,0-0.2,0
			c-0.1,0-0.1,0.1-0.2,0.1c-0.2,0-0.5,0-0.7,0c-0.2,0-0.3,0-0.5,0.1c-0.6,0.1-1.1,0.3-1.6,0.7c-0.3,0.2-0.5,0.3-0.8,0.5
			c-0.5,0.3-1,0.7-1.3,1.2c-0.2,0.3-0.4,0.7-0.6,1c-0.1,0.2-0.2,0.4-0.3,0.6c-0.2,0.6-0.4,1.2-0.6,1.7c0,0.1,0,0.2,0,0.2
			c-0.1,0.6-0.1,1.1-0.2,1.7c0,0.1,0,0.3,0,0.4c0,0.2,0,0.4,0,0.5c0,0.1,0,0.2,0,0.3c0.2,0.6,0.3,1.1,0.5,1.7
			c0.3,0.8,0.8,1.4,1.3,2.1c0.3,0.4,0.7,0.7,1,1c0.2,0.2,0.5,0.4,0.8,0.6c1.6,1,3.4,1.4,5.3,1.5c0.5,0,0.9,0,1.4,0.1
			c0.7,0.1,1.3,0,1.9-0.1c0.4-0.1,0.9-0.1,1.3-0.2C28.6,114.9,28.8,114.8,29,114.7z M27.2,104c-0.1,0.2-0.1,0.3-0.1,0.5
			c-0.1,0.3-0.2,0.5-0.3,0.8c-0.2,0.5-0.4,1-0.6,1.6c-0.1,0.4-0.4,0.7-0.6,1c-0.3-0.2-0.4-0.4-0.2-0.6c0.3-0.5,0.4-1,0.6-1.5
			c0.1-0.3,0.3-0.6,0.4-1c0.1-0.2,0.1-0.3,0.2-0.5c-0.3,0-0.6,0.1-0.8,0.4c-1.1,1.1-2.4,2-3.7,3c-0.5,0.4-1,0.7-1.5,1
			c-0.2,0.2-0.5,0.1-0.7,0c-0.1,0-0.1-0.1-0.1-0.1c-0.1-0.3-0.2-0.6,0-0.9c0.2-0.4,0.5-0.8,0.8-1.1c0.7-0.6,1.2-1.3,1.7-2
			c0.3-0.4,0.6-0.8,0.9-1.2c0,0,0-0.1,0.1-0.1c-0.2-0.1-0.4-0.1-0.5,0c-0.3,0.1-0.7,0.2-1,0.3c-0.5,0.2-0.9,0.4-1.4,0.5
			c-0.4,0.1-0.8,0.3-1.2,0.3c-0.2,0-0.3,0.1-0.5,0.1c-0.2,0-0.4,0-0.6,0c-0.3,0-0.6-0.4-0.6-0.8c0-0.3,0.2-0.6,0.4-0.8
			c0.2-0.2,0.5-0.5,0.7-0.7c1-0.8,2.2-1.3,3.5-1.5c0.2,0,0.3,0,0.5,0c0.6,0.1,1.1,0.1,1.7,0.2c0.2,0,0.3,0.1,0.4,0.1
			c0.2,0.1,0.2,0.2,0,0.3c-0.1,0.1-0.2,0.1-0.3,0.1c-0.6,0-1.1,0-1.7,0c-0.4,0-0.8,0-1.2,0.1c-0.3,0.1-0.6,0.2-0.9,0.3
			c-0.2,0.1-0.4,0.1-0.5,0.3c-0.1,0.1-0.1,0.1-0.2,0.1c-0.4,0.1-0.8,0.4-1.2,0.7c-0.3,0.2-0.5,0.5-0.7,0.7c0,0,0,0,0,0.1
			c0.1,0,0.2,0,0.3,0c1.1-0.2,2.1-0.5,3.1-0.9c0.6-0.2,1.2-0.4,1.8-0.4c0.2,0,0.4,0,0.6,0c0.2,0,0.3,0.1,0.3,0.3
			c0,0.2,0.1,0.3,0,0.5c-0.1,0.4-0.3,0.8-0.7,1.1c-0.2,0.2-0.4,0.4-0.6,0.7c-0.2,0.3-0.4,0.6-0.7,0.9c-0.3,0.3-0.6,0.7-0.9,1
			c-0.3,0.3-0.6,0.6-0.9,0.9c0,0,0,0,0,0c0.1,0,0.1-0.1,0.2-0.1c0.6-0.3,1.1-0.7,1.7-1.1c1-0.8,2-1.6,3-2.4c0.3-0.3,0.7-0.5,1.1-0.6
			c0.1,0,0.1,0,0.2,0C27.1,103.2,27.3,103.5,27.2,104z"/>
		<path class="st1" d="M16.9,96.7c1.5-0.5,3-1,4.6-1.1c0.2,0,0.5,0,0.7-0.1c0-0.1,0-0.1,0-0.1c-0.3-0.1-0.5-0.1-0.8-0.2
			c-0.1,0-0.1,0-0.2,0c-0.5,0.1-1.1,0.2-1.6,0.2c-0.4,0-0.9,0.1-1.3,0.3c-0.2,0.1-0.5,0.2-0.7,0.2c-0.8,0.2-1.5,0.7-2.2,1.2
			c0,0-0.1,0.1-0.1,0.1c0.1,0,0.2,0,0.2-0.1C15.9,97,16.4,96.9,16.9,96.7z"/>
		<path class="st1" d="M49.9,118.9c-0.3-0.2-0.7-0.4-1-0.7c-0.5-0.3-1-0.6-1.5-1c-0.3-0.2-0.7-0.5-1-0.8c-0.7-0.7-1.4-1.5-2-2.3
			c-0.3-0.4-0.5-0.9-0.6-1.4c0-0.2,0-0.5,0.2-0.7c0.2-0.2,0.5-0.3,0.7-0.4c0.7-0.1,1.4-0.1,2.1,0c1,0.2,1.9,0.8,2.7,1.4
			c0,0,0.1,0.1,0.1,0.1c0.3,0.4,0.7,0.7,1,1.1c0.3,0.3,0.6,0.6,1,0.7c0.4,0.2,0.8-0.1,0.8-0.5c0-0.1,0-0.3-0.1-0.4
			c-0.3-0.7-0.7-1.3-1.3-1.7c-0.6-0.5-1.2-0.9-1.9-1.4c-0.7-0.5-1.4-0.9-1.9-1.5c-0.1-0.1-0.2-0.2-0.3-0.4c-0.1-0.1,0-0.3,0.2-0.2
			c0.1,0,0.1,0,0.2,0.1c0.2,0.2,0.4,0.3,0.6,0.5c0.3,0.3,0.7,0.5,1.1,0.5c0.7,0.1,0.6,0.1,0.9-0.5c0,0,0,0,0,0
			c-0.2-0.2-0.3-0.3-0.6-0.4c-0.3-0.1-0.5-0.2-0.8-0.3c-0.4-0.1-0.7-0.2-1.1-0.3c-1.1-0.3-2.2-0.5-3.2-1c-0.4-0.2-0.9-0.5-1.3-0.6
			c-0.3-0.1-0.6-0.3-1-0.4c-0.1,0-0.1-0.1-0.2-0.1c-0.6-0.3-1.2-0.6-1.8-0.8c-0.1,0-0.2-0.1-0.3-0.2c-0.1-0.1-0.3-0.2-0.4-0.2
			c-0.2-0.1-0.5-0.1-0.7-0.2c-0.4-0.1-0.7-0.2-1.1-0.3c-0.1,0-0.3-0.1-0.4-0.1c-0.1,0-0.2,0-0.3,0c-0.2,0-0.4,0-0.6,0
			c-0.1,0-0.3,0-0.4,0c-0.4,0-0.7,0.1-1.1,0.1c-0.8,0.1-1.7,0.2-2.5,0.3c-0.2,0-0.5,0-0.7,0.1c-0.4,0.2-0.8,0.3-1.2,0.4
			c-0.1,0-0.2,0.1-0.3,0.2c-0.2,0.2-0.4,0.4-0.5,0.7c-0.3,0.7-0.5,1.4-0.6,2.2c0,0.2-0.1,0.4-0.1,0.6c0,0.6,0.1,1.2,0.3,1.8
			c0.3,1,0.9,1.7,1.8,2.1c0.1,0.1,0.3,0.1,0.5,0.1c0.2,0,0.4-0.1,0.5-0.2c0-0.1-0.1-0.2-0.1-0.2c-0.1-0.4-0.3-0.8-0.4-1.1
			c0-0.1,0-0.2,0.1-0.2c0.1-0.1,0.2,0,0.2,0.1c0.1,0.2,0.2,0.3,0.3,0.5c0.3,0.6,0.6,1.1,1,1.6c0.5,0.7,1.2,1.4,1.9,1.9
			c0.5,0.4,1.1,0.8,1.6,1.2c1,0.9,2.3,1.4,3.5,2c0,0,0,0,0,0c0.8,0.3,1.6,0.5,2.5,0.7c0.1,0,0.1,0,0.2,0c0,0,0,0,0-0.1
			c-0.1-0.1-0.2-0.2-0.3-0.2c-0.2-0.1-0.4-0.3-0.6-0.4c-0.4-0.3-0.8-0.7-1.2-1c-0.3-0.3-0.7-0.5-1-0.8c-0.2-0.2-0.5-0.3-0.8-0.3
			c-0.1,0-0.3-0.1-0.3-0.2c-0.1-0.2,0-0.3,0.2-0.3c0.4,0,0.7,0,1,0.2c0.4,0.3,0.9,0.5,1.3,0.9c0.7,0.5,1.3,1,2,1.5
			c0.5,0.4,1.1,0.6,1.7,0.6c0.5,0.1,1,0.2,1.6,0.1c-0.2-0.2-0.3-0.5-0.5-0.6c-0.6-0.4-1.2-1-1.7-1.5c-0.5-0.4-1-0.8-1.5-1.2
			c-0.3-0.2-0.6-0.4-0.9-0.6c-0.1-0.1-0.3-0.1-0.4-0.2c-0.1,0-0.1-0.1-0.2-0.1c-0.1-0.1-0.2-0.4-0.1-0.4c0.1-0.1,0.3-0.1,0.4,0
			c0.5,0.2,1,0.4,1.4,0.7c0.6,0.4,1.2,0.9,1.8,1.4c0.3,0.2,0.6,0.5,0.8,0.7c0.4,0.3,0.9,0.7,1.2,1.1c0.2,0.2,0.3,0.3,0.5,0.4
			c0.2,0.2,0.5,0.4,0.8,0.5c0.7,0.4,1.3,0.7,2.1,0.6c0.3,0,0.5-0.2,0.7-0.4c0.1-0.1,0.1-0.3,0-0.4C50.2,119.3,50.1,119.1,49.9,118.9
			z"/>
		<path class="st1" d="M24.7,93.7c-0.1-0.1-0.1-0.1-0.2-0.2c-0.2-0.1-0.4-0.2-0.5-0.3c-0.8-0.3-1.6-0.7-2.5-0.9
			c-0.8-0.2-1.6-0.3-2.4-0.4c-0.1,0-0.2,0-0.2,0.1c2,0.4,3.9,1,5.7,1.7C24.6,93.7,24.6,93.7,24.7,93.7z"/>
		<path class="st1" d="M22.5,86.4c-0.5-1.2-1.1-2.2-1.9-3.2c-0.1-0.1-0.1-0.1-0.2-0.2c0.1,0.6,2.3,4.9,2.7,5.3
			C22.9,87.6,22.7,87,22.5,86.4z"/>
		<path class="st1" d="M24.6,79.1c-0.1-0.4-0.3-0.8-0.4-1.2c-0.2-0.5-0.3-1-0.5-1.5c0-0.1-0.1-0.1-0.1-0.2c-0.1,0.7,0.6,2.6,1.1,3
			C24.6,79.2,24.6,79.1,24.6,79.1z"/>
		<path class="st1" d="M18.9,87.7c0.3,0.3,1.7,1,2,1C20.2,88.3,19.6,87.9,18.9,87.7z"/>
		<path class="st1" d="M56,27.9c0-0.2-0.2-0.5-0.5-0.8C55.7,27.4,55.8,27.6,56,27.9C56,27.9,56,27.9,56,27.9z"/>
		<path class="st1" d="M52.8,26.7c0,0-0.1-0.1-0.1-0.1c0,0,0,0-0.1,0.1C52.7,26.7,52.8,26.7,52.8,26.7
			C52.8,26.8,52.8,26.7,52.8,26.7z"/>
		<path class="st1" d="M53.1,28.2c-0.2-0.2-0.3-0.5-0.6-0.7c-0.1-0.1-0.1-0.1-0.2-0.2c0.1,0.1,0.1,0.1,0.2,0.2
			C52.7,27.8,53,28.2,53.1,28.2z"/>
		<path class="st1" d="M55.1,28.7c-0.3-0.5-0.7-1-1.1-1.5C54.3,27.7,54.7,28.2,55.1,28.7z"/>
		<path class="st1" d="M52.3,23.7c0.1,0.1,0.2,0.3,0.4,0.4C52.7,23.9,52.6,23.8,52.3,23.7z"/>
		<path class="st1" d="M50.4,24.6c-0.1-0.2-0.7-0.8-1.1-0.9C49.6,24,50,24.3,50.4,24.6C50.4,24.6,50.4,24.6,50.4,24.6z"/>
		<path class="st1" d="M48.7,26.1c0,0-0.1-0.1-0.1-0.1c0,0,0,0,0,0C48.6,26,48.6,26.1,48.7,26.1z"/>
		<path class="st1" d="M52.7,28.9c0.1,0.1,0.1,0.1,0.2,0c-0.1-0.1-0.2-0.3-0.4-0.4c-0.4-0.4-0.8-0.9-1.2-1.3c0,0-0.1-0.1-0.1-0.1
			c0,0,0,0.1,0,0.1C51.7,27.8,52.2,28.3,52.7,28.9z"/>
		<path class="st1" d="M53.8,24.3c-0.2-0.3-0.4-0.5-0.7-0.7C53.4,23.9,53.5,24.2,53.8,24.3z"/>
		<path class="st1" d="M53.3,29.5C53.3,29.5,53.3,29.5,53.3,29.5c0-0.1,0-0.2-0.1-0.2c0,0,0,0,0,0C53.2,29.4,53.3,29.4,53.3,29.5z"
			/>
		<path class="st1" d="M52,24.3C52,24.2,52,24.2,52,24.3c-0.4-0.4-0.8-0.9-1.3-1.3c0,0,0,0-0.1,0c0,0,0,0.1,0.1,0.1
			C51.1,23.5,51.5,23.9,52,24.3C51.9,24.3,51.9,24.3,52,24.3z"/>
		<path class="st1" d="M51.4,26.2c0.3,0.4,0.5,0.7,0.9,1c0-0.1-0.1-0.1-0.1-0.2C52,26.8,51.7,26.5,51.4,26.2
			C51.5,26.3,51.5,26.3,51.4,26.2z"/>
		<path class="st1" d="M48.7,26.1c0.2,0.2,0.4,0.4,0.6,0.5C49.1,26.5,49,26.2,48.7,26.1z"/>
		<path class="st1" d="M39.6,21.5c0.1,0,0.3,0,0.4,0c0-0.1,0-0.1,0-0.2C39.8,21.3,39.7,21.4,39.6,21.5
			C39.6,21.4,39.6,21.5,39.6,21.5z"/>
		<path class="st1" d="M47.8,24.6c0.3,0.2,0.3,0.2,0.4,0.2c-0.2-0.2-0.5-0.4-0.7-0.6c0,0,0,0-0.1,0.1C47.5,24.4,47.7,24.5,47.8,24.6
			z"/>
		<path class="st1" d="M53.8,42.9c0,0.2,0,0.4-0.1,0.6c0,0,0,0,0.1,0C53.8,43.4,53.8,43.1,53.8,42.9C53.8,42.9,53.8,42.9,53.8,42.9z
			"/>
		<path class="st1" d="M57,55.9c0,0,0,0.1,0,0.1c0,0,0,0,0,0C57,56,57,56,57,55.9C57,55.9,57,55.9,57,55.9z"/>
		<path class="st1" d="M39.3,22.3c-0.2,0-0.3,0-0.5,0C39,22.4,39,22.4,39.3,22.3z"/>
		<path class="st1" d="M44.2,21.9C44.2,21.9,44.2,21.9,44.2,21.9c0-0.1-0.1-0.1-0.1-0.1c0,0,0,0,0,0C44.1,21.9,44.1,21.9,44.2,21.9z
			"/>
		<path class="st1" d="M47.1,22.5c-0.2-0.2-0.2-0.2-0.4-0.3C46.8,22.4,46.9,22.5,47.1,22.5z"/>
		<path class="st1" d="M46.3,22.1C46.3,22.1,46.3,22,46.3,22.1c0-0.1-0.1-0.1-0.1-0.1c0,0,0,0,0,0c0,0,0,0,0,0
			C46.2,22,46.3,22,46.3,22.1z"/>
		<path class="st1" d="M45.1,22.1c0.3,0.2,0.7,0.4,1,0.6c0,0,0,0,0-0.1C45.8,22.5,45.5,22.2,45.1,22.1
			C45.1,22.1,45.1,22.1,45.1,22.1z"/>
		<path class="st1" d="M51.2,27.1c0,0-0.1-0.1-0.1-0.1c0,0,0,0,0,0C51.1,27,51.2,27,51.2,27.1z"/>
		<path class="st1" d="M57.5,50c-0.1,0.7-0.3,1.4-0.4,2.2C57.3,52,57.6,50.5,57.5,50z"/>
		<path class="st1" d="M58,54.6C58,54.6,58,54.6,58,54.6c0.1-0.2,0.1-0.4,0.2-0.6c0,0,0,0-0.1,0C58,54.2,58,54.4,58,54.6z"/>
		<path class="st1" d="M55.3,28.9c0.2,0.4,0.3,0.8,0.5,1.2c0,0,0,0,0.1,0C55.7,29.7,55.6,29.3,55.3,28.9
			C55.3,28.9,55.3,28.9,55.3,28.9z"/>
		<path class="st1" d="M58,51.8c0,0.2-0.1,0.4-0.1,0.5c0.1,0,0.2,0,0.2-0.1c0-0.2,0-0.4,0.1-0.6c0-0.1,0-0.2,0-0.4c0,0,0,0,0,0
			C58.1,51.4,58,51.6,58,51.8z"/>
		<path class="st1" d="M59.3,45.9c0,0.4,0,0.8,0,1.1c0,0,0,0,0,0C59.3,46.7,59.3,46.3,59.3,45.9C59.3,45.9,59.3,45.9,59.3,45.9z"/>
		<path class="st1" d="M60.8,53.9c0,0.1,0,0.1,0,0.2c0,0,0,0,0.1,0C60.9,54,60.9,54,60.8,53.9C60.9,53.9,60.9,53.9,60.8,53.9z"/>
		<path class="st1" d="M60,67.7c0.2-0.3,0.4-0.7,0.6-1c0.4-0.7,0.7-1.4,1-2.1c0.1-0.1,0.1-0.2,0.1-0.3c0-0.1,0.1-0.2,0.1-0.4
			c-1,1.4-1.9,2.8-2.7,4.4C59.6,68.1,59.9,68,60,67.7z"/>
		<path class="st1" d="M58.6,48.2c0.1-0.3,0-0.5,0-0.8C58.6,47.6,58.6,47.9,58.6,48.2z"/>
		<path class="st1" d="M58.7,52c0,0.2,0,0.3-0.1,0.5c0,0,0,0,0.1,0C58.8,52.3,58.8,52.2,58.7,52z"/>
		<path class="st1" d="M58.5,43c0.1-0.2,0.1-0.2,0.1-0.4C58.5,42.7,58.5,42.9,58.5,43z"/>
		<path class="st1" d="M68.8,66.7c-0.8-1.7-1.6-3.3-2.4-5c-0.4-0.8-0.8-1.7-1.1-2.6c-0.2-0.6-0.3-1.2-0.5-1.8
			c-0.5-1.6-1.1-3.3-1.6-4.9c-0.4-1.1-0.7-2.3-0.9-3.5c-0.2-1-0.3-1.9-0.5-2.9c-0.2-1.2-0.5-2.4-0.6-3.6c-0.2-1.2-0.2-2.5-0.4-3.7
			c-0.1-0.8-0.1-1.6-0.3-2.4c-0.1-1-0.3-2-0.5-3c-0.1-0.5-0.3-1-0.4-1.6c-0.2-0.9-0.5-1.8-0.8-2.6c-0.3-0.9-0.6-1.9-1.1-2.8
			c-0.3-0.6-0.7-1.3-1-1.9c-0.1-0.2-0.3-0.4-0.4-0.6c-0.3-0.4-0.7-0.7-1.1-1.1c-0.5-0.4-0.9-0.8-1.5-1.2c-0.2-0.2-0.5-0.3-0.7-0.5
			c-0.6-0.4-1.2-0.8-1.9-1.1c-0.4-0.1-0.8-0.3-1.2-0.4c-0.5-0.2-0.9-0.3-1.4-0.4c-0.7-0.2-1.3-0.4-2-0.4c-0.9-0.1-1.7-0.1-2.6-0.1
			c-0.5,0-0.9,0.1-1.4,0.2c-0.4,0.1-0.8,0.2-1.2,0.3c-0.9,0.2-1.8,0.4-2.5,0.9c-0.8,0.4-1.5,0.8-2.2,1.3c-0.8,0.5-1.6,1.2-2.3,1.9
			c-0.5,0.6-1,1.1-1.5,1.7c-0.5,0.6-1,1.3-1.5,2c-0.4,0.6-0.9,1.3-1.2,2c0,0,0,0.1,0,0.1c0.1-0.1,0.2-0.1,0.2-0.1
			c0.7-0.5,1.4-1.1,2.2-1.5c1.3-0.8,2.7-1.4,4.2-1.7c0.3-0.1,0.7-0.1,1.1-0.2c0.9-0.1,1.9-0.2,2.9-0.1c1.2,0.1,2.4,0.2,3.5,0.6
			c0.7,0.2,1.4,0.4,2.1,0.7c1.3,0.5,2.5,1.3,3.6,2.1c1.3,1,2.4,2.2,3.5,3.5c0.7,0.9,1.3,1.8,1.7,2.8c0.5,1.3,1,2.7,1.2,4.1
			c0.3,1.5,0.4,3,0.3,4.6c0,0.1,0,0.2,0,0.2c0.1,1.3-0.1,2.6-0.4,3.9c-0.2,0.8-0.4,1.5-0.6,2.3c-0.2,0.6-0.3,1.2-0.4,1.9
			c-0.1,0.5-0.3,1-0.3,1.6c-0.1,1-0.3,2-0.2,3.1c0,0.4,0.1,0.8,0.2,1.1c0.3,0.6,0.6,1.3,1,1.8c0.3,0.5,0.5,1,0.7,1.5
			c0.1,0.2,0.1,0.5,0.1,0.7c0,0.3,0,0.6-0.1,0.9c-0.1,0.9-0.5,1.7-0.8,2.6c-0.2,0.6-0.4,1.2-0.6,1.8c-0.2,0.5-0.3,1-0.4,1.5
			c-0.2,0.8-0.4,1.5-0.6,2.3c-0.2,0.5-0.3,1-0.5,1.6c0,0.1,0,0.2-0.1,0.3c0.2-0.2,0.5-0.5,0.6-0.7c0.3-0.8,0.5-1.6,0.8-2.5
			c0.2-0.7,0.5-1.4,0.7-2.2c0.2-0.6,0.4-1.2,0.6-1.8c0.3-1,0.6-1.9,0.7-2.9c0.1-0.8,0-1.6-0.4-2.4c-0.2-0.3-0.4-0.7-0.6-1.1
			c-0.2-0.5-0.5-1-0.7-1.5c-0.2-0.5-0.3-1-0.2-1.6c0.1-0.6,0.1-1.1,0.2-1.7c0.2-1.1,0.4-2.1,0.6-3.2c0.3-1.6,0.7-3.2,1-4.8
			c0.2-0.8,0.3-1.6,0.3-2.5c0-0.8,0-1.6-0.1-2.4c0-0.7-0.1-1.3-0.2-2c-0.1-0.7-0.3-1.3-0.5-1.9c-0.1-0.6-0.3-1.1-0.5-1.7
			c-0.1-0.2-0.2-0.4-0.3-0.7c-0.4-1.1-1-2.2-1.8-3.2c-0.3-0.4-0.7-0.9-1.1-1.3c-0.4-0.4-0.7-0.9-1.2-1.2c-0.8-0.7-1.7-1.3-2.6-1.9
			c-0.2-0.1-0.3-0.2-0.4-0.4c-0.2-0.4-0.4-0.7-0.7-0.9c-0.6-0.5-1.2-0.9-1.9-1.2c-0.5-0.2-1.1-0.4-1.7-0.6c-0.9-0.3-1.9-0.6-2.9-0.8
			c-0.3,0-0.3-0.2-0.2-0.4c0.3-0.5,0.6-0.9,0.8-1.4c0.3-0.5,0.6-0.9,1-1.3c0.2-0.2,0.4-0.4,0.6-0.6c0,0,0.1-0.1,0.1-0.1
			c-0.5,0.3-0.9,0.6-1.3,1c-0.2,0.2-0.4,0.3-0.6,0.5c-0.4,0.4-0.8,0.7-1.2,1.1c-0.3,0.3-0.6,0.6-0.7,1.1c0,0.1-0.1,0.1-0.2,0.2
			c-0.3,0-0.5,0.1-0.8,0.2c-0.3,0.1-0.5,0.2-0.7,0.2c-0.5,0.1-0.9,0.3-1.3,0.5c-0.6,0.4-1.2,0.8-1.8,1.1c-0.1,0.1-0.3,0.2-0.4,0.3
			c-0.8,0.3-1.6,0.8-2.3,1.3c-0.3,0.2-0.5,0.3-0.8,0.5c-0.1,0-0.2,0.1-0.3,0.1c0-0.1,0.1-0.2,0.1-0.2c0.3-0.5,0.7-1.1,1.1-1.5
			c0.5-0.5,1-0.9,1.4-1.5c0,0,0.1-0.1,0.1-0.1c0.9-0.9,1.8-1.8,2.8-2.5c0.4-0.3,0.9-0.7,1.4-0.9c0.3-0.1,0.6-0.2,0.9-0.4
			c0.2-0.2,0.5-0.2,0.7-0.4c0.1-0.1,0.2-0.1,0.3-0.1c0.4-0.2,0.9-0.3,1.3-0.5c0.4-0.1,0.8-0.3,1.2-0.4c0.3-0.1,0.7-0.2,1.1-0.2
			c0.3,0,0.6,0,0.8,0.2c0.1,0,0.1,0,0.2,0c0.4,0,0.7-0.1,1.1-0.1c0.4,0,0.8,0.1,1.2,0.1c0.6,0,1.3,0.2,1.9,0.4
			c0.8,0.3,1.6,0.6,2.4,0.9c0.8,0.3,1.5,0.7,2.2,1.3c0.3,0.2,0.6,0.5,0.9,0.7c0.8,0.5,1.3,1.3,1.9,2.1c0.5,0.7,0.9,1.4,1.3,2.1
			c0.4,0.7,0.6,1.4,0.8,2.1c0.3,1.2,0.7,2.3,1,3.5c0.2,0.7,0.4,1.5,0.5,2.3c0.1,0.6,0.1,1.1,0.2,1.7c0.1,1.2,0.3,2.5,0.4,3.7
			c0.1,0.9,0.2,1.7,0.3,2.6c0.1,0.8,0.2,1.5,0.3,2.3c0.1,0.5,0.1,0.9,0.2,1.4c0.2,1.3,0.5,2.5,0.8,3.8c0.2,0.9,0.4,1.8,0.7,2.7
			c0.3,1,0.6,2,0.9,2.9c0.2,0.6,0.4,1.2,0.6,1.9c0.2,0.7,0.5,1.3,0.8,2c0,0,0,0.1,0,0.1c0.2,0.5,0.4,1,0.6,1.5
			c0.3,0.7,0.6,1.4,0.8,2.2c0.2,0.5,0.4,1,0.7,1.5c0.4,0.8,0.9,1.6,1.4,2.4c0,0.1,0.1,0.2,0.2,0.2c0.2,0.1,0.4,0.2,0.6,0.3
			c-0.1-0.1-0.1-0.2-0.1-0.2C69.1,67.4,68.9,67.1,68.8,66.7z"/>
		<path class="st1" d="M58.2,57.8C58.2,57.8,58.2,57.8,58.2,57.8c0.1-0.4,0.2-0.9,0.3-1.3c0,0,0,0-0.1,0
			C58.3,56.9,58.2,57.3,58.2,57.8z"/>
		<path class="st1" d="M58.1,34.7c0,0.2,0.1,0.4,0.1,0.6c0,0,0,0,0.1,0C58.3,35.1,58.2,34.9,58.1,34.7
			C58.2,34.7,58.2,34.7,58.1,34.7z"/>
		<path d="M82.9,91.3c0-0.1-0.1-0.1-0.1-0.2c0,0,0,0,0,0C82.8,91.2,82.8,91.3,82.9,91.3C82.9,91.3,82.9,91.3,82.9,91.3z"/>
		<path d="M83.4,99c0-0.4-0.1-0.8,0-1.2c0.1-1-0.1-2-0.1-3c0-0.7-0.2-1.5-0.3-2.2c0-0.4-0.1-0.7-0.1-1.1l-0.1-0.8
			c-0.1-0.2-0.1-0.4-0.2-0.6c-0.2-1.1-0.5-2.1-0.9-3.2c-0.3-0.8-0.6-1.6-0.9-2.4c-0.4-1-0.7-1.9-1.2-2.9c-0.2-0.4-0.4-0.8-0.6-1.2
			c-0.3-0.7-0.7-1.3-1.1-2c-0.1-0.1-0.2-0.2-0.3-0.3c-0.2-0.2-0.4-0.3-0.6-0.5c-0.3-0.3-0.7-0.7-1-1c-0.1-0.1-0.2-0.2-0.2-0.4
			c-0.4-0.8-0.7-1.6-1.1-2.4c-1-1.8-2.1-3.5-3.6-4.9c-0.2-0.2-0.4-0.4-0.5-0.7c-0.1-0.2-0.2-0.4-0.3-0.5c-0.3-0.5-0.6-1-0.8-1.5
			c-0.3-0.5-0.5-1.1-0.8-1.6c-0.3-0.6-0.6-1.2-0.9-1.8c-0.3-0.6-0.6-1.3-0.9-1.9c-0.4-0.8-0.7-1.6-1-2.5c-0.4-1.3-0.8-2.7-1.2-4
			c-0.4-1.2-0.8-2.4-1.1-3.6c-0.3-0.9-0.4-1.9-0.6-2.8c-0.2-1.1-0.4-2.2-0.6-3.2c-0.2-0.9-0.3-1.8-0.4-2.6c-0.1-0.9-0.2-1.8-0.2-2.7
			c-0.1-1.5-0.3-3-0.5-4.5c-0.2-1.2-0.4-2.3-0.8-3.5c-0.3-0.9-0.5-1.9-0.8-2.8c-0.3-1.1-0.7-2.1-1.3-3.1c-0.1-0.2-0.2-0.5-0.4-0.7
			c-0.3-0.6-0.6-1.1-1.1-1.6c-0.4-0.4-0.9-0.8-1.3-1.3c-0.4-0.4-0.9-0.6-1.3-1c-0.8-0.6-1.6-0.9-2.5-1.2c-0.9-0.3-1.8-0.6-2.7-0.9
			c-1-0.3-1.9-0.5-3-0.6c-0.2,0-0.4-0.1-0.6-0.1c-0.2-0.1-0.4-0.1-0.7,0c-0.2,0.1-0.4,0.1-0.6,0c-0.1-0.1-0.3-0.1-0.4,0.1
			c0,0-0.2,0.1-0.2,0c-0.2-0.1-0.3,0-0.5,0c-0.1,0-0.2,0-0.2,0c-0.1,0-0.2,0-0.3,0.1c-0.1,0-0.2,0.1-0.3,0.1c-0.5,0.1-1,0.3-1.4,0.4
			c-0.8,0.2-1.6,0.5-2.4,0.9c-0.3,0.1-0.6,0.3-0.8,0.5c-0.4,0.3-0.9,0.6-1.3,0.9c-0.4,0.3-0.8,0.6-1.1,0.9c0,0-0.1,0.1-0.1,0.1
			c-0.5,0.4-1,0.9-1.4,1.4c-0.4,0.4-0.8,0.8-1.1,1.3c-0.5,0.6-1,1.1-1.4,1.8c-0.2,0.3-0.4,0.6-0.6,0.9c-0.2,0.3-0.4,0.6-0.6,0.9
			c-0.4,0.6-0.7,1.2-1,1.9c-0.2,0.4-0.4,0.7-0.6,1c-0.2,0.3-0.5,0.6-0.7,0.9c-0.6,0.9-1.1,1.8-1.3,2.8c-0.1,0.5-0.2,0.9-0.3,1.4
			c-0.1,1,0,1.9,0.1,2.9c0.1,0.8,0.1,1.6-0.1,2.4c-0.1,0.7-0.4,1.4-0.6,2.2c-0.3,0.7-0.6,1.5-0.7,2.3c-0.1,0.5-0.2,1-0.1,1.6
			c0.1,0.6,0.2,1.2,0.3,1.8c0.3,1.1,0.3,2.2,0.1,3.3c-0.2,1.4-0.4,2.7-0.5,4.1c-0.1,0.6,0,1.3,0.1,1.9c0.1,0.9,0.4,1.8,0.7,2.7
			c0.6,1.6,1.1,3.2,1.6,4.8c0.1,0.4,0.1,0.7,0,1.1c-0.1,0.2-0.1,0.3-0.2,0.5c-0.4,0.7-0.8,1.4-1.2,2c-0.5,0.8-1,1.6-1.6,2.3
			c-0.3,0.5-0.7,0.9-1,1.3c-0.6,0.9-1.2,1.8-1.8,2.7c-0.2,0.3-0.4,0.6-0.6,0.8c-0.6,0.9-1.2,1.8-1.8,2.7c-0.8,1.3-1.6,2.7-2.2,4.2
			c-0.2,0.4-0.3,0.9-0.5,1.3c-0.3,0.7-0.4,1.4-0.4,2.1c0,0.7-0.1,1.4-0.1,2.1c0,0.8-0.2,1.6-0.4,2.4c-0.5,1.3-1.1,2.6-1.7,3.9
			c-0.6,1.3-1.2,2.6-1.8,4c-0.7,1.9-1.4,3.8-1.7,5.8c-0.1,0.8-0.2,1.6-0.2,2.3c0,0.2,0.1,0.4,0,0.7c0,0,0,0.1,0,0.1
			c0,0.2,0.1,0.3,0.1,0.5c0,0.3,0.2,0.6,0.4,0.8c0.1,0.1,0.2,0.2,0.2,0.3c0.1,0.1,0.1,0.2,0.2,0.3c0.2,0.3,0.3,0.7,0.5,1
			c0.5,0.7,1,1.4,1.5,2.1c0.4,0.5,0.8,0.9,1.2,1.3c0.9,0.9,2.1,1.4,3.3,1.8c0.9,0.3,1.7,0.4,2.6,0.5c1.3,0.1,2.6-0.1,3.9-0.5
			c0.3-0.1,0.6-0.2,0.9-0.3c0.2-0.1,0.3-0.1,0.5-0.2c0.1,0,0.1,0,0.2,0c0.2,0,0.4,0.1,0.6,0.1c0.5,0,1-0.1,1.5-0.1
			c0.1,0,0.3,0,0.4,0c0,0,0,0.1,0,0.1c0,0-0.1,0.1-0.1,0.1c-0.4,0.5-0.8,1.1-1,1.7c-0.4,1.2-0.2,2.5,0.4,3.6
			c0.3,0.7,0.9,1.2,1.5,1.5c0.2,0.1,0.4,0.2,0.6,0.4c0,0,0,0.1,0.1,0.1c0.4,0.3,0.7,0.7,1.2,0.8c0,0,0.1,0.1,0.1,0.1
			c0.1,0.1,0.2,0.3,0.2,0.4c-0.1,0.4-0.2,0.7-0.3,1c-0.1,0.4,0,0.9,0.1,1.3c0.1,0.3,0.4,0.5,0.7,0.5c0.3,0,0.6,0,0.8-0.3
			c0,0,0.1-0.1,0.1-0.1c0.2,0.2,0.3,0.3,0.5,0.5c0.2,0.1,0.4,0.3,0.6,0.4c1.7,1,3.5,1.5,5.5,1.8c1,0.1,1.9,0.2,2.9,0.2
			c2.3,0,4.7,0,7,0c1,0,2-0.1,3-0.1c0.1,0,0.2-0.1,0.4-0.1c0.6,0,1.2,0,1.9,0c0.9,0,1.9,0,2.8-0.1c0.9-0.1,1.8-0.1,2.7-0.1
			c0.2,0,0.4-0.1,0.6-0.1c0.3,0,0.6,0,0.8,0c0.2,0,0.5,0,0.7,0c0.4,0,0.7-0.2,1-0.3c0.1,0,0.1-0.1,0.1-0.1c-0.1-0.2-0.2-0.2-0.4-0.2
			c-0.8,0-1.6,0-2.4,0c-0.8,0-1.7,0-2.5,0c-0.8,0-1.7,0.1-2.5,0.1c-1.4,0-2.8,0.1-4.2,0.1c-3.3,0-6.6,0-9.9,0
			c-0.8,0-1.6-0.1-2.5-0.2c-1-0.1-1.9-0.4-2.8-0.7c-0.8-0.2-1.5-0.6-2.2-1c-0.3-0.2-0.6-0.4-0.8-0.7c0.4-0.5,0.5-1.1,0.7-1.7
			c0.1-0.4,0.4-0.7,0.6-1.1c0.3-0.4,0.5-0.8,0.8-1.2c0.2-0.3,0.5-0.6,0.7-0.9c0.1-0.1,0.2-0.2,0.3-0.2c0.2-0.1,0.5-0.1,0.7-0.1
			c0.1,0,0.2,0.1,0.2,0.1c0.2,0.2,0.4,0.3,0.6,0.5c0.5,0.4,0.8,0.9,1,1.5c0.1,0.4,0.2,0.8,0.3,1.3c0.1,0.8,0.1,1.6-0.2,2.3
			c0,0.1-0.1,0.2-0.1,0.4c0,0.2,0.1,0.3,0.3,0.2c0.2-0.1,0.4-0.2,0.6-0.4c0.2-0.2,0.3-0.4,0.3-0.6c0,0,0-0.1,0-0.1
			c0.2-0.4,0.2-0.8,0.1-1.2c-0.1-0.5-0.1-1-0.2-1.4c-0.1-0.5-0.4-1-0.6-1.4c-0.2-0.4-0.6-0.7-0.9-1c-0.1-0.1-0.2-0.2-0.3-0.3
			c0.1,0,0.2,0,0.2-0.1c0.5-0.1,1-0.2,1.6-0.3c0.6-0.2,1.1-0.4,1.7-0.7c0.2-0.1,0.4-0.2,0.6-0.1c0.3,0.1,0.6,0.1,0.9,0.2
			c0.3,0.1,0.7-0.1,1,0c0,0,0.1,0,0.1,0c0.1-0.1,0.3-0.1,0.5-0.1c0.3,0.1,0.6,0.1,0.9,0.1c0.1,0,0.2,0,0.2,0c0.4,0.1,0.9,0.2,1.3,0
			c0,0,0.1,0,0.1,0c0.2,0,0.4-0.1,0.6-0.1c0.3,0.2,0.6,0.5,1,0.6c0.2,0.1,0.5,0.2,0.8,0.3c0.3,0.1,0.6,0.1,1,0.1c0.2,0,0.5,0,0.7,0
			c1.1,0.3,2.1,0.7,3.2,1c0.8,0.2,1.7,0.5,2.5,0.6c0.5,0.1,1.1,0.1,1.6,0.2c1,0.2,1.9,0.3,2.9,0.3c0.8,0,1.5,0.1,2.3,0.1
			c0.4,0,0.7,0.1,0.9,0.3c0.1,0.1,0.2,0.1,0.3,0.2c0.6,0.4,1.2,0.6,1.9,0.8c0.7,0.2,1.4,0.4,2.1,0.5c0.2,0,0.3,0.2,0.5,0
			c0,0,0.1,0,0.1,0c0.4,0,0.7,0,1.1,0c0.4,0,0.8-0.1,1.2-0.2c1-0.3,1.9-1,2.6-1.8c0.5-0.6,1-1.2,1.4-1.9c0.4-0.7,0.8-1.3,1.1-2.1
			c0.1-0.4,0.3-0.8,0.4-1.2c0-0.3,0-0.5,0-0.7c0-0.4-0.1-0.7-0.2-1c-0.1-0.3-0.1-0.5,0-0.7c0.1-0.2,0.3-0.4,0.4-0.6
			c0.5-0.9,0.9-1.9,1.2-2.8c0.1-0.2,0.1-0.4,0.2-0.6c0,0,0-0.1,0.1-0.1c0.1,1.1,0,2.2,0,3.3c0,1.1-0.1,2.2-0.3,3.3
			c0.1,0,0.1,0,0.1,0c0.3-0.4,0.6-0.7,0.7-1.2c0.1-0.7,0.2-1.3,0.2-2c0.1-0.7,0.1-1.4,0.2-2.1c0-0.5,0.1-1,0-1.5
			c0-0.2-0.1-0.3-0.1-0.5c0-0.5-0.1-1-0.1-1.4c0-0.3-0.1-0.7-0.1-1c0-0.2,0.1-0.4,0.1-0.6c0-0.6,0-1.2,0-1.7c0-0.7-0.1-1.4-0.2-2.1
			c-0.1-0.9-0.2-1.8-0.3-2.6c-0.1-0.4,0-0.8-0.2-1.2c0,0,0,0,0-0.1c0-0.2,0-0.4-0.1-0.7c0-0.3-0.1-0.7-0.2-1c-0.1-0.5,0-1.1-0.3-1.6
			c0,0,0-0.1,0-0.1c0-0.1,0-0.3,0-0.4c-0.3-1.2-0.5-2.4-0.8-3.7c0-0.1,0-0.1,0-0.2c0.1,0,0.1,0.1,0.1,0.1c0.1,0.3,0.3,0.6,0.4,0.9
			c0.4,1.1,0.7,2.2,1.1,3.3c0.7,2.1,1.3,4.3,1.8,6.5c0.2,0.8,0.4,1.7,0.5,2.6c0.1,0.7,0.3,1.4,0.4,2.2c0.2,1.1,0.3,2.2,0.4,3.4
			c0,0,0,0.1,0.1,0.2c0.2-0.2,0.2-0.5,0.2-0.7c0.1-0.9,0.1-1.8,0-2.7c-0.2-1.2-0.4-2.3-0.6-3.5c-0.1-1-0.5-2-0.7-3
			c0-0.3-0.1-0.6-0.2-0.9c-0.3-0.9-0.5-1.8-0.8-2.7c-0.3-1-0.6-2.1-1-3.1c-0.2-0.7-0.4-1.5-0.7-2.2c-0.4-1.1-0.9-2.3-1.4-3.4
			c-0.2-0.6-0.5-1.2-0.8-1.8c-0.2-0.3-0.3-0.7-0.4-1c-0.1-0.5-0.3-0.9-0.5-1.4c-0.1-0.4-0.3-0.7-0.4-1.1c-0.2-0.6-0.4-1.2-0.6-1.8
			c0-0.1-0.1-0.1-0.1-0.2c0-0.2-0.1-0.3-0.1-0.5c0-0.2-0.1-0.3-0.1-0.5c0.2,0.1,0.3,0.2,0.5,0.3c0.4,0.2,0.8,0.6,1.2,0.9
			c0.7,0.5,1.3,1.1,1.8,1.9c0.4,0.6,0.6,1.2,0.9,1.7c0,0.1,0.1,0.2,0.1,0.3c0,0.1,0.1,0.2,0.2,0.3c0.1,0.1,0.3,0,0.3-0.1
			c0-0.1,0-0.2,0-0.2c-0.1-0.2-0.1-0.5-0.2-0.7c-0.3-0.7-0.7-1.4-1.1-2c-0.5-0.8-1.1-1.4-1.9-2c-0.5-0.4-1.1-0.8-1.7-1.2
			c-0.2-0.2-0.5-0.3-0.8-0.4c-1.4-0.5-2.9-0.7-4.3-0.9c-2.1-0.2-4.3-0.1-6.4,0.3c-0.9,0.1-1.7,0.4-2.6,0.7c-1,0.4-2,0.7-2.9,1.1
			c-1.9,0.9-3.6,1.8-5.4,3c-0.8,0.5-1.6,1-2.4,1.6c-1,0.8-2,1.6-3.1,2.4c-0.4,0.3-0.9,0.7-1.3,1c-0.7,0.6-1.3,1.3-1.9,1.9
			c-0.1,0.1-0.2,0.2-0.3,0.2c0-0.1,0-0.2,0-0.2c0.2-0.4,0.3-0.7,0.5-1.1c0.4-0.8,0.8-1.6,1.3-2.3c0.5-0.6,0.9-1.3,1.4-1.9
			c1-1.3,2.2-2.3,3.5-3.2c0.7-0.5,1.4-1,2.2-1.5c1-0.7,2.1-1.3,3.2-1.8c0.3-0.1,0.6-0.3,0.9-0.4c1-0.4,2-0.8,3-1.2
			c0.3-0.1,0.6-0.2,0.9-0.2c0.7-0.2,1.5-0.4,2.2-0.6c0.1,0,0.3-0.1,0.4-0.1c0.2-0.1,0.3-0.2,0.5-0.2c0.1,0,0.2-0.1,0.1-0.2
			c-0.1-0.1-0.2-0.2-0.3-0.2c-0.7,0-1.3,0.1-2,0.3c-0.5,0.1-0.9,0.3-1.4,0.4c-0.9,0.1-1.8,0.5-2.6,0.9c-0.7,0.3-1.4,0.6-2,0.9
			c-0.5,0.2-0.9,0.4-1.4,0.6c-0.9,0.5-1.8,1.1-2.7,1.7c-0.9,0.6-1.8,1.3-2.7,2c0,0-0.1,0-0.1,0.1c0.2-0.5,0.5-1.1,0.7-1.6
			c0.4-0.6,0.7-1.3,1.2-1.9c0.5-0.7,0.9-1.3,1.5-1.9c0.1-0.1,0.2-0.3,0.3-0.4c0.4-0.5,0.9-1,1.4-1.5c0.3-0.2,0.6-0.5,0.8-0.7
			c0.3-0.4,0.7-0.7,1.2-0.9c1-0.7,2.1-1.3,3.3-1.7c1.1-0.4,2.2-0.7,3.4-1.1c0.3-0.1,0.6-0.2,0.9-0.3c0.4-0.1,0.9-0.2,1.3-0.3
			c0.4-0.1,0.8-0.1,1.2-0.1c0.3,0,0.6,0,0.9,0c0.1,0,0.2,0,0.3,0c0.3,0,0.6,0,0.9,0c0.2,0,0.3-0.1,0.5-0.2c0.1-0.1,0.2-0.2,0.2-0.3
			c-0.3-0.1-0.5-0.1-0.8-0.1c-0.2,0-0.5,0-0.7,0c-0.4,0-0.8-0.1-1.1-0.1c-0.4,0-0.8,0-1.2,0c-0.8,0.1-1.6,0.3-2.4,0.5
			c-1.5,0.4-3.1,0.9-4.6,1.6c0,0,0,0-0.1,0c0.1-0.1,0.2-0.3,0.3-0.3c0.4-0.3,0.8-0.6,1.2-0.9c0.2-0.2,0.5-0.3,0.7-0.5
			c0.5-0.5,1.1-0.7,1.7-1c0.5-0.3,1-0.5,1.6-0.7c0.2-0.1,0.5-0.2,0.7-0.3c0.5-0.2,0.9-0.2,1.4-0.3c0.3,0,0.7-0.1,1-0.1
			c0.7,0,1.4,0,2,0.1c0.5,0.1,1,0.2,1.5,0.4c0.5,0.2,0.9,0.4,1.4,0.7c0.5,0.3,1,0.7,1.4,1.1c0.4,0.5,0.8,1,1.2,1.5
			c0.9,1.2,1.7,2.5,2.2,3.9c0,0.1,0.1,0.2,0.1,0.3c-0.3-0.2-0.5-0.3-0.8-0.5c-0.7-0.5-1.4-0.9-2.2-1.2c-0.6-0.2-1.3-0.4-1.9-0.7
			c-0.7-0.2-1.4-0.4-2.2-0.5c-0.3,0-0.6,0-0.9-0.1c-0.3,0-0.6,0-0.8,0c-1.3,0-2.7,0-4,0.1c-0.3,0-0.6,0-0.8,0.1
			c-0.9,0.2-1.7,0.3-2.6,0.5c-1,0.2-1.9,0.6-2.7,1.1c-0.1,0.1-0.2,0.2-0.3,0.2c0,0-0.1,0.1-0.1,0.1c0,0,0,0.1,0,0.1
			c0,0,0.1,0.1,0.1,0.1c0.1,0,0.1,0,0.2-0.1c0.6-0.2,1.2-0.5,1.8-0.7c0.4-0.1,0.9-0.3,1.3-0.4c0.2-0.1,0.5-0.1,0.7-0.1
			c0.7-0.2,1.5-0.3,2.2-0.4c0.5,0,1.1-0.1,1.6-0.1c0.2,0,0.4,0,0.5,0c0.1,0,0.2,0,0.3,0c0.1,0,0.2,0,0.3,0c0.8,0,1.5,0,2.3,0
			c0.7,0,1.3,0,1.9,0.2c0.7,0.1,1.5,0.4,2.2,0.6c0.7,0.3,1.5,0.5,2.1,0.9c0.2,0.2,0.5,0.3,0.7,0.5c0.3,0.2,0.6,0.5,0.9,0.7
			c0.3,0.2,0.6,0.4,0.9,0.7c0.6,0.5,1.1,1.1,1.7,1.7c0.5,0.5,0.9,1.1,1.2,1.7c0.1,0.3,0.3,0.6,0.4,0.8c0.3,0.7,0.7,1.3,1,2
			c0.4,0.8,0.7,1.7,1,2.6c0.8,1.9,1.3,3.8,1.7,5.9c0.2,1,0.3,2,0.4,3c0.1,0.7,0.2,1.4,0.2,2.1c0.1,1,0.1,2,0.1,3
			c0,1.2-0.1,2.4-0.2,3.7c0,0.5-0.1,1-0.1,1.5c0,0.1,0,0.1,0,0.2c0.2-0.1,0.2-0.1,0.2-0.3c0.2-0.5,0.3-1.1,0.4-1.6
			C83.3,101.7,83.4,100.3,83.4,99z M29.5,58.5C29.5,58.5,29.5,58.5,29.5,58.5c0,0.1,0,0.3,0,0.4c0,0,0,0,0,0
			C29.5,58.7,29.5,58.6,29.5,58.5z M29.4,45.3C29.4,45.3,29.4,45.3,29.4,45.3c0,0.1,0,0.2,0,0.3c0,0,0,0,0,0
			C29.4,45.6,29.4,45.5,29.4,45.3z M26.5,75.2c0.1-0.4,0.1-0.9,0.1-1.3c0.1-0.8,0.2-1.6,0.3-2.4c0.1-0.6,0.1-1.1,0.2-1.7
			c0-0.5,0.1-1,0.1-1.5c0-0.1,0-0.2,0.1-0.3c0,0.3,0.1,0.5,0.1,0.8c0,0.4,0.1,0.9,0.1,1.3c0,0.8-0.1,1.6-0.2,2.4
			c-0.2,1.1-0.3,2.1-0.5,3.2c-0.1,0.7-0.2,1.5-0.3,2.2c0,0.1,0,0.3-0.1,0.4C26.4,77.3,26.4,76.3,26.5,75.2z M26.3,87.2
			c0.2-1.4,0.7-2.6,1.1-3.9c0.2-0.5,0.3-0.9,0.5-1.5c0.7,0.4,1.3,0.8,1.9,1.2c-0.8,0.9-1.4,1.9-2,2.9c-0.6,1-1.3,1.9-1.7,3
			c0,0,0,0-0.1,0c0-0.1,0-0.1,0-0.2C26,88.2,26.2,87.7,26.3,87.2z M29.5,90.3c0,0.1,0.1,0.1,0.1,0.2c0.1,0,0.2,0,0.2-0.1
			c0.1,0,0.1-0.1,0.1-0.2c0.4-0.8,0.8-1.6,1.3-2.4c0.2-0.3,0.3-0.6,0.5-0.9c0.3-0.6,0.6-1.2,0.9-1.8c0.2-0.3,0.4-0.6,0.5-0.9
			c0.2,0.1,0.3,0.1,0.5,0.2c-0.1,0.4-0.1,0.8-0.2,1.2c-0.1,0.7-0.2,1.4-0.4,2.1c-0.1,0.7-0.3,1.5-0.4,2.2c0,0.2,0,0.4,0,0.6
			c0,0,0,0.1,0,0.1c0,0,0.1,0.1,0.1,0.1c0,0,0.1-0.1,0.1-0.1c0.1-0.2,0.2-0.4,0.2-0.6c0.3-0.9,0.5-1.9,0.6-2.9
			c0.1-0.9,0.3-1.7,0.5-2.6c0,0,0-0.1,0-0.1c0.9,0.2,1.8,0.4,2.6,0.6c0,0.1,0,0.2,0,0.3c0,0.7,0,1.4,0,2.2c0,0.3-0.1,0.6-0.1,0.9
			c0,0.6-0.1,1.2-0.1,1.8c0,0.4-0.1,0.8-0.1,1.1c0,0.1,0,0.3,0.1,0.4c0,0.1,0.1,0.2,0.2,0.3c0.1-0.1,0.1-0.1,0.1-0.2
			c0.3-0.6,0.4-1.2,0.5-1.9c0.1-1.3,0.2-2.6,0.2-3.9c0-0.2,0-0.3,0-0.5c0-0.1,0-0.2,0-0.3c1.1,0.1,2.1,0.2,3.1,0.3
			c0.2,0.9,0.4,1.9,0.5,2.9c0.1,0.5,0.1,1,0.2,1.4c0,0.1,0,0.2,0,0.2c-0.2,0.6-0.4,1.2-0.6,1.9c0,0.1-0.1,0.1-0.1,0.2
			c-0.3,0.3-0.5,0.7-0.8,1c-0.9,1.1-1.7,2.2-2.3,3.5c-0.2,0.4-0.3,0.9-0.4,1.3c-0.3,0.9-0.5,1.7-0.5,2.6c0,0.4,0,0.7,0,1.1
			c0,0.1,0,0.2-0.1,0.3c-0.6,0.4-1.2,0.9-1.8,1.3c0,0-0.1,0-0.2,0.1c0-0.5,0.1-0.9,0.1-1.4c0-0.5,0-0.9,0-1.4c0-0.5,0-0.9,0-1.4
			c0-0.5,0-0.9,0-1.4c0-0.4,0-0.9,0.1-1.3c-0.2,0-0.2,0.1-0.2,0.2c-0.1,0.3-0.1,0.5-0.2,0.8c-0.1,0.6-0.2,1.1-0.2,1.7
			c-0.1,0.8-0.1,1.7-0.1,2.6c0,0.4,0,0.9-0.2,1.3c-0.3-0.1-0.5-0.2-0.8-0.3c-0.4-0.2-0.7-0.3-1.1-0.5c-0.2-0.1-0.3-0.2-0.3-0.4
			c-0.1-0.5-0.2-0.9-0.2-1.4c-0.2-1.2-0.4-2.4-0.6-3.6c-0.1-0.4-0.1-0.8-0.2-1.2c-0.1-0.4-0.2-0.7-0.3-1.1c0,0,0-0.1-0.1-0.1
			c-0.1,0.1-0.1,0.2-0.2,0.3c-0.1,0.6-0.1,1.1,0,1.7c0.1,0.6,0.2,1.3,0.3,1.9c0.1,0.5,0.2,1.1,0.2,1.6c0,0,0,0.1,0,0.1
			c-0.1-0.1-0.1-0.1-0.1-0.2c-0.4-0.7-0.8-1.5-1.2-2.2c-0.2-0.3-0.4-0.7-0.6-1c0,0,0-0.1-0.1-0.1c-0.4-0.4-0.7-0.8-0.9-1.2
			c-0.2-0.3-0.4-0.6-0.6-0.9c-0.4-0.6-0.5-1.2-0.6-1.9c-0.1-0.4-0.2-0.9-0.3-1.3c-0.1-0.4-0.1-0.9,0.1-1.3c0.7-1.6,1.5-3.1,2.5-4.5
			c0.4-0.6,0.8-1.2,1.2-1.8c0.1-0.2,0.3-0.4,0.5-0.6c0.7,0.2,1.3,0.5,1.9,0.7c0,0.1-0.1,0.1-0.1,0.2c-0.3,0.5-0.6,1.1-0.9,1.6
			c-0.1,0.1-0.1,0.2-0.2,0.4c-0.2,0.4-0.3,0.7-0.5,1.1c-0.1,0.2-0.2,0.4-0.3,0.7c-0.2,0.4-0.4,0.8-0.6,1.2c-0.1,0.2-0.2,0.5-0.3,0.7
			C29.4,90,29.4,90.2,29.5,90.3z M49.3,92.1c-0.4,0.7-0.8,1.4-1.2,2.1c-0.7,1.3-1.5,2.5-2.4,3.6c-0.7,0.9-1.3,1.8-2,2.7
			c-0.4,0.5-0.8,1-1.3,1.6c-0.6,0.7-1.1,1.3-1.7,1.9c-0.2,0.3-0.5,0.5-0.7,0.8c-0.7-0.3-1.3-0.6-2.1-0.8c-0.7-0.2-1.4-0.2-2.2-0.2
			c0.3-0.2,0.5-0.4,0.7-0.6c0.6-0.4,1.1-0.8,1.7-1.3c0.6-0.5,1.2-0.9,1.8-1.3c0.7-0.5,1.4-1.1,2.1-1.6c1.2-1,2.3-2.1,3.5-3.1
			c1.2-1,2.2-2.1,3.3-3.2C49,92.4,49.2,92.2,49.3,92.1C49.4,92,49.4,92.1,49.3,92.1z M49.7,98.4c0.5-0.7,1-1.5,1.5-2.2
			c0.3-0.4,0.6-0.9,0.9-1.3c0.2-0.4,0.5-0.8,0.7-1.2c0.4-0.6,0.9-1.2,1.3-1.9c0.3-0.4,0.5-0.7,0.8-1.1c0.6-0.8,1-1.6,1.5-2.5
			c0.2-0.3,0.4-0.6,0.7-0.8c-3.8,6.1-7.8,12.1-12,17.9c0,0,0,0-0.1,0c0.1-0.1,0.1-0.2,0.2-0.3c0.4-0.6,0.7-1.1,1.1-1.7
			c0.3-0.5,0.6-1,1-1.5C48.1,100.6,48.9,99.5,49.7,98.4z M44.6,100.6c-0.3,1-0.5,2-0.9,3c-0.3,0.8-0.7,1.5-1.1,2.3
			c-0.6-0.3-1.2-0.6-1.8-0.8C42.1,103.6,43.4,102.1,44.6,100.6z M23.6,76.3c0,0.1,0.1,0.1,0.1,0.2c0.2,0.5,0.3,1,0.5,1.5
			c0.1,0.4,0.3,0.8,0.4,1.2c0,0,0,0.1,0.1,0.2C24.2,78.9,23.5,77,23.6,76.3z M20.6,83.2c0.8,1,1.4,2.1,1.9,3.2
			c0.2,0.6,0.4,1.2,0.6,1.8c-0.4-0.4-2.6-4.7-2.7-5.3C20.5,83.1,20.5,83.1,20.6,83.2z M20.9,88.8c-0.2,0-1.7-0.8-2-1
			C19.6,87.9,20.2,88.3,20.9,88.8z M19.1,91.9c0.8,0,1.6,0.2,2.4,0.4c0.9,0.2,1.7,0.6,2.5,0.9c0.2,0.1,0.4,0.2,0.5,0.3
			c0.1,0,0.1,0.1,0.2,0.2c-0.1,0-0.1,0-0.1,0c-1.9-0.7-3.8-1.3-5.7-1.7C18.9,91.9,19,91.9,19.1,91.9z M15.4,97.1
			c0.7-0.5,1.4-1,2.2-1.2c0.2-0.1,0.5-0.1,0.7-0.2c0.4-0.1,0.9-0.2,1.3-0.3c0.5-0.1,1.1-0.1,1.6-0.2c0.1,0,0.1,0,0.2,0
			c0.3,0.1,0.5,0.1,0.8,0.2c0,0,0.1,0,0,0.1c-0.2,0-0.5,0.1-0.7,0.1c-1.6,0.1-3.1,0.6-4.6,1.1C16.4,96.9,15.9,97,15.4,97.1
			c0,0.1,0,0.1-0.1,0.1C15.3,97.2,15.3,97.2,15.4,97.1z M27.1,115.2c-0.6,0.1-1.3,0.1-1.9,0.1c-0.5,0-0.9,0-1.4-0.1
			c-1.9-0.1-3.6-0.6-5.3-1.5c-0.3-0.2-0.6-0.4-0.8-0.6c-0.4-0.3-0.7-0.6-1-1c-0.6-0.6-1-1.3-1.3-2.1c-0.2-0.5-0.4-1.1-0.5-1.7
			c0-0.1,0-0.2,0-0.3c0-0.2,0-0.4,0-0.5c0-0.1,0-0.3,0-0.4c0.1-0.6,0.1-1.1,0.2-1.7c0-0.1,0-0.2,0-0.2c0.2-0.6,0.4-1.2,0.6-1.7
			c0.1-0.2,0.2-0.4,0.3-0.6c0.2-0.3,0.4-0.7,0.6-1c0.4-0.5,0.8-0.9,1.3-1.2c0.3-0.2,0.5-0.3,0.8-0.5c0.5-0.3,1-0.5,1.6-0.7
			c0.1,0,0.3-0.1,0.5-0.1c0.2,0,0.5,0,0.7,0c0.1,0,0.1,0,0.2-0.1c0.1,0,0.2,0,0.2,0c0.1,0.1,0.3,0.1,0.4,0.1
			c1.4,0.1,2.8,0.3,4.1,0.9c0.2,0.1,0.4,0.3,0.6,0.4c1.1,0.6,2.2,1.2,3.2,1.8c0.7,0.4,1.5,0.7,2.2,1c0.2,0.1,0.4,0.2,0.6,0.4
			c-0.3,0-0.5,0.1-0.8,0.1c-0.5,0.1-1.1,0.2-1.6,0.3c-0.7,0.1-1.2,0.5-1.6,1.1c-0.2,0.3-0.5,0.6-0.7,1c-0.3,0.8-0.6,1.6-0.6,2.5
			c0,0.5,0,1,0.1,1.5c0,0.4,0.1,0.8,0.2,1.2c0.3,1,0.9,1.6,1.8,2.1c0.1,0.1,0.2,0.1,0.4,0.2c-0.2,0.2-0.4,0.3-0.6,0.4
			c-0.2,0.2-0.4,0.3-0.6,0.5c-0.2,0.1-0.4,0.3-0.6,0.3C28,115,27.5,115.1,27.1,115.2z M38.9,120.1c-0.6,0.2-1.2,0.3-1.8,0.4
			c-0.6,0.1-1.2,0.2-1.7,0.3c-0.4,0.1-0.7,0.2-0.9,0.6c-0.1,0.1-0.2,0.3-0.3,0.4c-0.4,0.6-0.9,1.3-1.3,1.9c-0.2,0.3-0.4,0.7-0.5,1.1
			c-0.2,0.6-0.4,1.1-0.7,1.6c-0.1,0.2-0.3,0.3-0.6,0.5c-0.1-0.3-0.2-0.5-0.1-0.8c0.2-0.5,0.3-1,0.5-1.6c0.2-0.6,0.4-1.2,0.6-1.8
			c0.2-0.4,0.3-0.7,0.5-1.1c0.2-0.5,0.4-0.9,0.4-1.4c0-0.1,0.1-0.2,0.1-0.3c0-0.1,0.1-0.2,0-0.3c-0.1-0.1-0.2-0.3-0.3-0.3
			c-0.1,0-0.2,0.1-0.2,0.2c-0.1,0.3-0.1,0.6-0.2,0.9c0,0.1-0.1,0.3-0.1,0.4c-0.4,1-0.8,1.9-1.2,2.9c0,0,0,0.1-0.1,0.2
			c0-0.1-0.1-0.2-0.1-0.3c0-0.4,0-0.8,0.1-1.2c0.1-0.8,0.3-1.6,0.5-2.3c0-0.2,0.1-0.4,0.1-0.6c0.1-0.3,0.2-0.6,0.3-0.9
			c0-0.2,0.1-0.5,0.1-0.7c0-0.1,0-0.2-0.1-0.3c-0.1-0.1-0.2-0.2-0.3-0.2c-0.1,0-0.1,0.1-0.1,0.2c-0.2,0.8-0.4,1.7-0.6,2.5
			c0,0.2-0.1,0.4-0.2,0.6c-0.1,0.6-0.4,1.3-0.3,1.9c0,0.3-0.1,0.6-0.1,1c-0.3-0.2-0.5-0.4-0.7-0.7c-0.2-0.3-0.2-0.6-0.2-0.9
			c0-0.8,0.1-1.6,0.4-2.3c0.1-0.4,0.3-0.7,0.5-1.1c0.2-0.5,0.4-1,0.6-1.5c0.1-0.2,0.1-0.5,0.2-0.7c0-0.1,0-0.3-0.1-0.4
			c-0.2-0.2-0.4-0.2-0.5,0.1c-0.2,0.6-0.5,1.1-0.7,1.7c-0.1,0.2-0.2,0.4-0.4,0.6c-0.1,0.1-0.2,0.2-0.3,0.3c-0.2,0.2-0.3,0.5-0.2,0.9
			c0,0.1,0.1,0.2,0,0.3c-0.3,0.8-0.3,1.6-0.3,2.4c0,0,0,0.1,0,0.1c-0.1-0.1-0.2-0.2-0.3-0.2c-0.4-0.4-0.6-0.8-0.8-1.3
			c-0.1-0.5-0.2-1.1-0.2-1.6c0-0.4,0.1-0.7,0.2-1c0.3-0.7,0.7-1.3,1.2-1.8c0.2-0.2,0.4-0.4,0.5-0.6c0.2-0.3,0.6-0.4,0.8-0.7
			c0.1-0.1,0.2-0.1,0.3-0.2c0.2-0.1,0.4-0.3,0.6-0.4c0.2-0.1,0.3-0.2,0.5-0.3c0.2-0.1,0.5-0.3,0.7-0.4c0.2-0.1,0.2-0.1,0.3,0.1
			c0.5,0.7,1.1,1.3,1.7,1.9c0.2,0.2,0.5,0.3,0.7,0.5c0.5,0.4,1,0.8,1.5,1.2c0.6,0.5,1.3,1,2,1.3c0.5,0.3,1,0.5,1.6,0.8
			c0.1,0,0.1,0.1,0.2,0.1C39.6,119.9,39.3,120,38.9,120.1z M50.4,119.9c-0.2,0.2-0.4,0.4-0.7,0.4c-0.8,0.1-1.5-0.2-2.1-0.6
			c-0.3-0.2-0.5-0.3-0.8-0.5c-0.2-0.1-0.4-0.3-0.5-0.4c-0.4-0.4-0.8-0.8-1.2-1.1c-0.3-0.2-0.6-0.5-0.8-0.7c-0.6-0.5-1.2-1-1.8-1.4
			c-0.4-0.3-0.9-0.5-1.4-0.7c-0.1-0.1-0.3-0.1-0.4,0c-0.1,0.1,0,0.3,0.1,0.4c0,0,0.1,0.1,0.2,0.1c0.1,0.1,0.3,0.1,0.4,0.2
			c0.3,0.2,0.6,0.4,0.9,0.6c0.5,0.4,1,0.8,1.5,1.2c0.6,0.5,1.1,1.1,1.7,1.5c0.2,0.1,0.3,0.4,0.5,0.6c-0.6,0-1.1-0.1-1.6-0.1
			c-0.6-0.1-1.2-0.3-1.7-0.6c-0.7-0.5-1.4-1-2-1.5c-0.4-0.3-0.8-0.6-1.3-0.9c-0.3-0.2-0.6-0.2-1-0.2c-0.2,0-0.3,0.1-0.2,0.3
			c0,0.1,0.2,0.2,0.3,0.2c0.3,0,0.6,0.1,0.8,0.3c0.3,0.3,0.7,0.5,1,0.8c0.4,0.3,0.8,0.7,1.2,1c0.2,0.2,0.4,0.3,0.6,0.4
			c0.1,0.1,0.2,0.2,0.3,0.2c0,0,0,0,0,0.1c-0.1,0-0.1,0-0.2,0c-0.9-0.1-1.7-0.4-2.5-0.7c0,0,0,0,0,0c-1.2-0.6-2.4-1.1-3.5-2
			c-0.5-0.4-1.1-0.8-1.6-1.2c-0.7-0.6-1.3-1.2-1.9-1.9c-0.4-0.5-0.7-1.1-1-1.6c-0.1-0.2-0.2-0.3-0.3-0.5c-0.1-0.1-0.1-0.2-0.2-0.1
			c-0.1,0-0.1,0.2-0.1,0.2c0.1,0.4,0.2,0.8,0.4,1.1c0,0.1,0.1,0.2,0.1,0.2c-0.1,0.2-0.3,0.2-0.5,0.2c-0.2,0-0.3,0-0.5-0.1
			c-0.9-0.4-1.5-1.1-1.8-2.1c-0.2-0.6-0.3-1.2-0.3-1.8c0-0.2,0.1-0.4,0.1-0.6c0.1-0.8,0.3-1.5,0.6-2.2c0.1-0.3,0.3-0.5,0.5-0.7
			c0.1-0.1,0.2-0.1,0.3-0.2c0.4-0.1,0.8-0.3,1.2-0.4c0.2-0.1,0.5-0.1,0.7-0.1c0.8-0.1,1.7-0.2,2.5-0.3c0.4,0,0.7-0.1,1.1-0.1
			c0.1,0,0.3,0,0.4,0c0.2,0,0.4,0,0.6,0c0.1,0,0.2,0,0.3,0c0.1,0,0.3,0.1,0.4,0.1c0.4,0.1,0.7,0.2,1.1,0.3c0.3,0.1,0.5,0.1,0.7,0.2
			c0.2,0.1,0.3,0.1,0.4,0.2c0.1,0.1,0.2,0.1,0.3,0.2c0.6,0.3,1.2,0.6,1.8,0.8c0.1,0,0.1,0.1,0.2,0.1c0.3,0.1,0.6,0.3,1,0.4
			c0.5,0.1,0.9,0.4,1.3,0.6c1,0.5,2.1,0.7,3.2,1c0.4,0.1,0.7,0.2,1.1,0.3c0.3,0.1,0.5,0.2,0.8,0.3c0.3,0.1,0.4,0.2,0.6,0.4
			c0,0,0,0,0,0c-0.3,0.6-0.2,0.6-0.9,0.5c-0.4-0.1-0.8-0.3-1.1-0.5c-0.2-0.2-0.4-0.3-0.6-0.5c-0.1,0-0.1-0.1-0.2-0.1
			c-0.2,0-0.3,0.1-0.2,0.2c0.1,0.1,0.2,0.3,0.3,0.4c0.6,0.6,1.2,1.1,1.9,1.5c0.6,0.4,1.3,0.9,1.9,1.4c0.6,0.4,1,1,1.3,1.7
			c0.1,0.1,0.1,0.3,0.1,0.4c0,0.4-0.4,0.7-0.8,0.5c-0.4-0.2-0.7-0.4-1-0.7c-0.3-0.4-0.7-0.7-1-1.1c0,0-0.1-0.1-0.1-0.1
			c-0.8-0.6-1.7-1.2-2.7-1.4c-0.7-0.1-1.4-0.2-2.1,0c-0.3,0.1-0.5,0.2-0.7,0.4c-0.2,0.2-0.2,0.4-0.2,0.7c0.1,0.5,0.3,1,0.6,1.4
			c0.6,0.8,1.3,1.6,2,2.3c0.3,0.3,0.7,0.5,1,0.8c0.5,0.3,1,0.7,1.5,1c0.3,0.2,0.7,0.4,1,0.7c0.2,0.2,0.4,0.4,0.5,0.6
			C50.5,119.7,50.4,119.8,50.4,119.9z M72.4,118.3c-0.2,0.5-0.6,0.9-1,1.3c-0.6,0.6-1.4,1-2.2,1.4c-1,0.4-2,0.8-3.1,1
			c-0.5,0.1-1,0.2-1.5,0.3c-0.6,0.1-1.1,0.1-1.7,0.1c-0.5,0-1,0-1.5,0c-0.9,0-1.9-0.1-2.8-0.2c-0.8-0.1-1.6-0.2-2.5-0.3
			c-1-0.1-2.1-0.4-3.1-0.7c-0.7-0.2-1.3-0.4-2-0.6c-0.1,0-0.1,0-0.2-0.1c0-0.1,0.1-0.3,0.1-0.4c0.1-0.2,0.1-0.4,0-0.6
			c-0.2-0.5-0.4-0.9-0.8-1.3c-0.1-0.1-0.3-0.2-0.5-0.4c-0.9-0.6-1.8-1.2-2.6-1.8c-0.8-0.5-1.4-1.2-1.9-2c-0.2-0.2-0.3-0.4-0.5-0.6
			c-0.2-0.2-0.2-0.4-0.3-0.6c0-0.2,0-0.3,0.2-0.4c0.3-0.1,0.6-0.2,0.9-0.3c0,0,0.1,0,0.1,0c0.5,0.2,1.1,0.1,1.6,0.4
			c0.4,0.2,0.8,0.3,1.1,0.5c0.2,0.2,0.5,0.3,0.7,0.4c0.1,0.1,0.2,0.1,0.3,0.2c0.4,0.4,0.7,0.8,1.1,1.2c0.3,0.3,0.7,0.7,1.1,0.9
			c0.6,0.3,1.5,0,1.5-0.8c0-0.5-0.1-1-0.3-1.4c0-0.1-0.1-0.2-0.1-0.3c0.3,0.1,0.5,0.2,0.8,0.3c0.3,0.1,0.6,0.3,0.9,0.4
			c0.4,0.2,0.7,0,0.8-0.4c0-0.3,0-0.7-0.1-1c0-0.2,0-0.2,0.2-0.3c0.2-0.1,0.4-0.1,0.6,0c0.4,0.2,0.8,0.4,1.3,0.6
			c0.9,0.4,1.9,0.9,2.8,1.3c0.2,0.1,0.4,0.2,0.7,0.2c0.3,0,0.5-0.2,0.6-0.6c0.1-0.6,0-1.3,0-1.9c0-0.1,0-0.3,0-0.4
			c0-0.2,0.1-0.3,0.3-0.3c0.2,0,0.5,0,0.7,0.1c1,0.3,2.1,0.7,3.1,1c0.8,0.2,1.6,0.5,2.4,0.7c0.3,0.1,0.5,0.1,0.8,0.1
			c0.3-0.1,0.3-0.1,0.3-0.4c0,0,0-0.1,0-0.1c0,0-0.1,0-0.1,0c-0.3,0.1-0.7,0-1-0.1c-1.1-0.4-2.3-0.8-3.4-1.3
			c-0.7-0.3-1.4-0.5-2.2-0.7c-0.2-0.1-0.5-0.1-0.8,0c-0.1,0-0.3,0.1-0.3,0.2c-0.1,0.2-0.2,0.4-0.2,0.5c0,0.4-0.1,0.8,0,1.2
			c0,0.3,0.2,0.7,0,1.1c-0.2,0-0.4,0-0.6-0.1c-0.2-0.1-0.5-0.2-0.7-0.3c-1.1-0.5-2.2-1-3.3-1.6c-0.3-0.1-0.6-0.2-0.9-0.1
			c-0.4,0.1-0.7,0.6-0.6,1c0,0.3,0.1,0.6,0.1,1c-0.1-0.1-0.2-0.1-0.3-0.1c-0.4-0.2-0.8-0.4-1.2-0.6c-0.3-0.1-0.7-0.2-1.1-0.4
			c-0.1,0-0.2-0.1-0.3-0.1c-0.5-0.4-1-0.8-1.5-1.2c0,0-0.1-0.1-0.1-0.1c0.3,0,0.5,0,0.7-0.1c0.6-0.1,1.2-0.2,1.7-0.4
			c0.3-0.1,0.6-0.1,0.8-0.1c0.3-0.1,0.7-0.1,1-0.2c0.3,0,0.6-0.1,1-0.1c0.2,0,0.4,0,0.7-0.1c0.4,0,0.7-0.1,1.1-0.1
			c0.7-0.1,1.3-0.2,2-0.3c0.5-0.1,1.1-0.1,1.6-0.2c0.5,0,0.9-0.1,1.4-0.1c0.4,0,0.7,0,1.1,0c0.7,0,1.4,0.2,2,0.3
			c0.7,0.2,1.4,0.3,2,0.6c0.4,0.2,0.7,0.3,1.1,0.5c0.8,0.4,1.6,0.8,2.2,1.5c0.4,0.4,0.8,0.9,1.2,1.4c0.4,0.6,0.7,1.3,0.9,2
			c0.1,0.4,0.2,0.7,0.2,1.1C72.8,117.2,72.7,117.8,72.4,118.3z M57.5,106.3c0,0,0-0.1,0.1-0.1c0.6-0.6,1.2-1.1,1.8-1.7
			c1.2-1.2,2.6-2.2,4-3.1c0.5-0.3,1.1-0.6,1.6-0.8c0.3-0.2,0.7-0.4,1-0.5c0.2-0.1,0.4-0.2,0.7-0.3c0.1,0,0.1-0.1,0.2-0.1
			c0.3-0.1,0.6-0.2,1-0.4c0.1,0,0.1,0,0.2,0c0.2,0,0.4,0,0.7,0c0.1,0,0.2,0,0.3,0c0,0,0,0,0,0.1c-0.1,0-0.2,0.1-0.3,0.1
			c-0.9,0.4-1.8,0.7-2.7,1.1c-1.5,0.7-3,1.5-4.3,2.5c-1.4,1.1-2.7,2.1-4.1,3.2C57.7,106.2,57.6,106.2,57.5,106.3z M73,105.1
			c0.3,0.1,0.6,0.3,0.9,0.4c0.1,0,0.1,0.1,0.2,0.2c0,0,0,0,0,0.1c-0.1,0-0.2,0-0.3-0.1c-1.1-0.3-2.3-0.4-3.5-0.6
			c-0.7-0.1-1.4-0.2-2.2-0.3c-0.7,0-1.5,0-2.2,0c-0.6,0-1.2,0-1.8,0.1c-0.2,0-0.4,0-0.6,0.1c0.4-0.2,0.7-0.3,1.1-0.4
			c0.5-0.1,1-0.1,1.5-0.2c0.2,0,0.4,0,0.5,0c0.9,0,1.8,0,2.7,0.1C70.7,104.4,71.9,104.6,73,105.1z M66.9,92.7c0.5-0.3,1-0.6,1.5-0.8
			c1.1-0.6,2.3-1.1,3.5-1.5c0.2-0.1,0.4-0.1,0.6-0.1c-0.1,0-0.1,0.1-0.2,0.1c-0.6,0.3-1.3,0.7-1.9,1c-1.4,0.7-2.7,1.5-3.9,2.3
			c-0.5,0.3-1,0.7-1.5,1c-0.6,0.4-1.2,0.8-1.7,1.3c-0.4,0.3-0.7,0.6-1,0.8c-1.3,1.1-2.5,2.2-3.8,3.3c-0.6,0.5-1.2,1.1-1.8,1.6
			c-1.3,1.3-2.6,2.6-3.8,4c-0.1,0.1-0.1,0.1-0.2,0.2c0,0,0,0,0,0c0.3-0.4,0.5-0.8,0.8-1.1c0.3-0.4,0.7-0.8,1.1-1.2
			c0.4-0.4,0.7-0.9,1.1-1.3c0.9-0.9,1.7-1.8,2.6-2.7c0.8-0.8,1.6-1.5,2.4-2.3c0.6-0.5,1.2-1,1.8-1.5c0.2-0.1,0.4-0.3,0.5-0.4
			c0.4-0.4,0.9-0.7,1.4-1C65.2,93.9,66,93.3,66.9,92.7z M59.4,92.1c0.3-0.7,0.7-1.3,1-2c0.2-0.4,0.4-0.8,0.6-1.2
			c0.1-0.3,0.3-0.6,0.5-1c0.2-0.5,0.5-0.9,0.7-1.4c0.3-0.6,0.5-1.2,0.7-1.7c0.2-0.5,0.4-0.9,0.5-1.4c0.1-0.3,0.2-0.6,0.3-0.9
			c0.1-0.2,0.2-0.5,0.3-0.7c0.3-0.7,0.6-1.3,0.7-2.1c0,0,0-0.1,0-0.1c0.1,0,0.2,0,0.3,0c0,0.1,0,0.1,0,0.2c-0.2,0.8-0.3,1.7-0.6,2.5
			c-0.3,0.7-0.6,1.4-0.8,2.1c-0.7,2-1.6,3.8-2.5,5.7c-0.4,0.8-0.9,1.5-1.3,2.2c-0.7,1.2-1.4,2.3-2.2,3.4c-0.1,0.2-0.3,0.4-0.5,0.6
			c0.5-0.9,1-1.7,1.5-2.6c0.1-0.2,0.3-0.5,0.4-0.7C59,92.7,59.2,92.4,59.4,92.1z M42.3,91.8c0.4-0.3,0.8-0.7,1.2-1.1
			c0.4-0.4,0.8-0.8,1.2-1.2c0.6-0.6,1.3-1.1,2-1.6c0.4-0.3,0.7-0.5,1.1-0.8c0.7-0.5,1.3-1.1,2-1.5c0.8-0.5,1.6-1,2.4-1.5
			c0.5-0.4,1.1-0.6,1.6-0.9c0.3-0.2,0.6-0.4,0.9-0.5c0.1-0.1,0.3-0.1,0.4-0.2c0.3-0.2,0.6-0.3,0.9-0.5c0.8-0.3,1.6-0.7,2.4-1
			c0,0,0.1,0,0.1,0c0,0,0,0,0,0.1c-0.8,0.7-1.4,1.5-2,2.3c-1.3,1.5-2.7,3-4.1,4.5c-0.6,0.6-1.2,1.3-1.8,1.9
			c-0.6,0.6-1.1,1.2-1.7,1.7c-0.3,0.3-0.5,0.6-0.8,0.8c-1,1-2.1,2.1-3.1,3.1c-1,1-2.1,1.9-3.2,2.9c-0.5,0.4-1,0.8-1.5,1.3
			c-0.1,0.1-0.2,0.2-0.4,0.3c0,0,0,0-0.1,0c0.1-0.1,0.1-0.3,0.2-0.4c0.5-1.1,1.2-2.1,1.9-3.1c0.1-0.1,0.2-0.2,0.2-0.4
			c0.4-0.7,0.9-1.3,1.5-1.9c0.6-0.6,1.1-1.2,1.7-1.8c0.5-0.5,1.1-1,1.6-1.5c0.9-0.9,1.9-1.6,2.8-2.4c0.2-0.1,0.3-0.3,0.5-0.4
			c0.1-0.1,0.1-0.1,0.1-0.2c-0.1-0.1-0.1-0.1-0.2-0.1c-0.1,0.1-0.2,0.1-0.3,0.2c-0.4,0.3-0.8,0.6-1.3,0.9c-0.6,0.5-1.2,0.9-1.8,1.4
			c-0.1,0.1-0.3,0.2-0.4,0.4c0,0-0.1,0.1-0.1,0.1c-0.5,0.5-1.1,1-1.6,1.5c-0.6,0.6-1.3,1.2-1.8,1.9c-0.5,0.6-1,1.3-1.4,2
			c-0.2,0.2-0.3,0.5-0.5,0.8c-0.7,1-1.3,2.1-1.8,3.3c0,0.1-0.1,0.2-0.1,0.3c0,0.3-0.2,0.6-0.5,0.8c-0.2,0.2-0.4,0.4-0.7,0.4
			c-0.1-0.3,0-0.6,0-0.9c0.1-0.5,0.2-0.9,0.3-1.4c0-0.1,0-0.1,0-0.2c0.2-0.5,0.3-0.9,0.5-1.4c0.1-0.3,0.2-0.5,0.3-0.8
			c0.3-0.9,0.9-1.6,1.4-2.3c0.2-0.2,0.3-0.5,0.5-0.7c0.1-0.1,0.2-0.2,0.3-0.4c0.1-0.1,0.1-0.1,0.2-0.2
			C41.4,92.6,41.8,92.2,42.3,91.8z M42.1,88.7c-0.2-1-0.3-2.1-0.5-3.2c0.8,0,1.7,0,2.5-0.2C43.4,86.5,42.7,87.5,42.1,88.7z M46,82.6
			c-0.1,0.3-0.3,0.7-0.3,1c0,0.1-0.1,0.1-0.1,0.2c-0.1,0.1-0.2,0.2-0.3,0.3c-0.1,0.1-0.1,0.1-0.2,0.1c-0.2,0.1-0.3,0.1-0.5,0.1
			c-0.7,0.3-1.4,0.4-2.2,0.3c-0.4,0-0.8,0-1.1,0c-0.5,0-0.9,0-1.4-0.1c-1.2-0.1-2.4-0.3-3.6-0.5c-1.9-0.4-3.8-1-5.6-1.8
			c-0.5-0.2-1-0.5-1.4-0.8c-0.2-0.1-0.5-0.3-0.7-0.4c-0.1-0.1-0.2-0.1-0.3-0.2c0.3-0.8,0.6-1.5,0.9-2.3c0.1,0.1,0.2,0.1,0.3,0.2
			c1.4,1,2.9,1.8,4.5,2.3c0.7,0.2,1.3,0.3,2,0.4c0.6,0.1,1.2,0.2,1.8,0.3c0.9,0.1,1.8,0.2,2.7,0.2c0.8,0,1.5,0,2.3,0
			c1,0,2-0.1,3-0.3c0.2,0,0.3-0.1,0.5-0.1C46.2,82,46.1,82.3,46,82.6z M51.4,46.8c-0.3,0.7-0.6,1.3-0.9,1.9c-0.2,0.5-0.4,1-0.5,1.6
			c0,0.3,0,0.6,0.1,0.9c0.2,0.5,0.4,0.9,0.6,1.3c0,0.1,0.1,0.2,0.2,0.3c0.2,0.4,0.3,0.7,0.1,1.1c-0.1,0.4-0.3,0.7-0.6,1
			c-0.2,0.3-0.4,0.5-0.6,0.8c-0.3,0.4-0.4,0.8-0.2,1.2c0.1,0.2,0.2,0.5,0.2,0.7c0,0.1,0,0.3,0,0.4c-0.2,0.4-0.2,0.9-0.2,1.3
			c0,0.4,0.1,0.8,0.3,1.2c0.1,0.3,0.2,0.5,0.1,0.8c-0.2,0.8-0.4,1.6-0.9,2.3c-0.2,0.4-0.4,0.7-0.6,1.1c-0.2,0.4-0.1,0.7,0.1,1.1
			c0.2,0.2,0.3,0.5,0.5,0.7c0.3,0.4,0.4,0.8,0.2,1.2c0,0.1-0.1,0.2-0.1,0.3c-0.2,0.6-0.2,1.1,0,1.7c0.1,0.3,0.2,0.5,0.3,0.8
			c0,0.1,0.1,0.2,0.1,0.3c0.1,0.2,0,0.4-0.2,0.6c-0.1,0-0.1,0.1-0.2,0.1c-0.3,0.3-0.4,0.7-0.4,1.1c0,0.2,0.2,0.3,0.3,0.5
			c0.2,0.1,0.4,0.3,0.5,0.5c0.2,0.3,0.2,0.3,0,0.6c-0.4-0.1-0.8,0-1.2,0.1c0,0-0.1,0.1-0.1,0.1c-0.4,0.4-0.5,1-0.3,1.5
			c0.4,0,0.4-0.5,0.6-0.7c0.4,0.3,0.8,0.5,1.3,0.8c-0.2,0.2-0.4,0.5-0.6,0.7c-0.6,0.7-1.2,1.4-1.7,2.1c-0.4,0.6-0.7,1.1-1.1,1.7
			c-0.1,0.2-0.3,0.3-0.5,0.4c-0.6,0.1-1.1,0.2-1.7,0.3c-0.7,0.1-1.4,0.1-2.1,0.1c-0.7,0-1.5,0-2.2,0c-0.1,0-0.3-0.1-0.4,0
			c0,0-0.1,0-0.1,0c-0.2-0.1-0.3-0.1-0.5,0c0,0-0.1,0-0.1,0c-0.4-0.2-0.8-0.1-1.2-0.2c-0.1,0-0.2,0-0.3,0c-0.1,0-0.3,0-0.4,0
			c0.1-0.3,0.2-0.6,0.3-0.9c0.3-0.7,0.7-1.5,0.9-2.3c0.1-0.2,0.1-0.4,0.1-0.6c-0.2,0-0.5,0.2-0.7,0.4c-0.1,0.1-0.1,0.1-0.2,0.2
			c-0.5,0.8-1.1,1.6-1.4,2.5c-0.1,0.1-0.1,0.3-0.2,0.4c-0.4,0-0.8,0-1.1-0.1c-1.2-0.3-2.3-0.8-3.4-1.4c-0.3-0.2-0.6-0.3-0.9-0.5
			c-0.3-0.2-0.7-0.4-1-0.7c0,0-0.1-0.1-0.2-0.1c0.2-0.5,0.4-0.9,0.6-1.4c0.3-0.7,0.7-1.5,1-2.2c0.1-0.1,0.1-0.2,0-0.3
			c-0.1-0.2-0.2-0.3-0.2-0.5c0-0.1,0-0.1,0-0.2c-0.1-0.2-0.1-0.3-0.3-0.3c-0.3,0-0.7,0-1-0.1c-0.2,0-0.4-0.1-0.6-0.2
			c-0.1,0-0.1-0.1-0.1-0.2c0.1-0.3,0.2-0.5,0.5-0.6c0.1,0,0.2-0.1,0.3-0.2c0.2-0.1,0.4-0.4,0.5-0.6c0-0.1,0-0.3-0.1-0.4
			c-0.3-0.3-0.4-0.6-0.4-1c0-0.3,0.1-0.6,0.1-1c0.1-0.5,0-0.9-0.4-1.3c-0.3-0.2-0.5-0.5-0.7-0.8c-0.2-0.2-0.5-0.4-0.8-0.6
			c-0.3-0.2-0.5-0.5-0.6-0.8c-0.2-0.6-0.4-1.1-0.6-1.7c-0.2-0.5-0.4-1.1-0.6-1.6c-0.3-0.9-0.6-1.8-0.8-2.8c-0.1-0.4-0.1-0.7-0.1-1.1
			c0-0.7,0-1.3,0-2c0-0.3,0.1-0.5,0.1-0.8c0-0.2,0.1-0.5,0.1-0.7c0.1-0.6,0.1-1.3,0.2-1.9c0.1-0.5,0.2-1.1,0.2-1.7
			c0-0.4-0.1-0.7-0.1-1.1c-0.1-0.6-0.3-1.2-0.4-1.9c-0.1-0.5-0.1-0.9,0-1.4c0.1-0.5,0.2-1,0.3-1.5c0.1-0.4,0.3-0.7,0.4-1.1
			c0.3-0.9,0.6-1.8,0.8-2.8c0-0.2,0-0.4,0-0.6c0-0.1,0-0.2,0-0.4c0-0.1,0-0.3,0-0.4c-0.1-0.5-0.1-0.9-0.2-1.4c0-0.3-0.1-0.5-0.1-0.8
			c0-0.4,0-0.7,0.1-1.1c0.1-0.7,0.2-1.4,0.5-2.1c0.3-0.9,0.8-1.7,1.3-2.4c0,0,0,0,0.1,0c-0.1,0.8,0,1.5,0.1,2.3c0,0.1,0,0.1,0,0.2
			c-0.1,0.9-0.3,1.7-0.7,2.5c-0.2,0.5-0.4,1-0.5,1.5c0,0.1,0,0.3,0,0.4c0.1,0.4,0.2,0.7,0.4,1.1c0.5,1,0.6,1.9,0.5,3
			c-0.1,1-0.3,1.9-0.6,2.8c-0.1,0.4-0.2,0.9-0.3,1.3c-0.1,0.5-0.1,1.1,0,1.6c0.1,0.4,0.2,0.8,0.4,1.2c0.2,0.4,0.2,0.9,0.2,1.3
			c-0.1,0.5-0.2,0.9-0.3,1.4c-0.1,0.4-0.1,0.8-0.1,1.2c0,0.6,0.1,1.2,0.2,1.7c0,0.1,0,0.3,0,0.5c-0.1,0.8-0.2,1.7-0.3,2.5
			c-0.1,0.4,0,0.9,0.1,1.3c0.1,0.4,0.3,0.8,0.5,1.1c0.3,0.5,0.4,1,0.3,1.5c0,0.4-0.2,0.7-0.3,1.1c-0.1,0.4-0.2,0.8-0.2,1.2
			c0,0.4,0.1,0.8,0.3,1.1c0.2,0.2,0.4,0.4,0.7,0.6c0.1,0.1,0.3,0.2,0.5,0.4c0.1,0.1,0.3,0.2,0.4,0.3c0.3,0.3,0.5,0.7,0.3,1.1
			c-0.1,0.2-0.1,0.5-0.2,0.7c0,0.2-0.1,0.4-0.1,0.6c0,0.1,0.1,0.3,0.2,0.4c0.1,0.1,0.2,0.2,0.2,0.3c0.3,0.4,0.2,1-0.3,1.3
			c-0.1,0.1-0.2,0.1-0.3,0.2c-0.2,0.1-0.4,0.2-0.5,0.4c-0.1,0.1-0.1,0.3,0.1,0.4c0.1,0,0.1,0,0.2,0.1c0.5,0.1,1,0.1,1.5,0
			c0,0,0.1,0,0.1,0c0,0.1,0,0.2,0,0.3c0,0.3,0.1,0.5,0.1,0.8c0.1,0.2,0.2,0.4,0.4,0.6c0.2,0.2,0.5,0.3,0.7,0.5
			c0.1,0.1,0.3,0.1,0.4,0.1c0.1,0,0.1,0,0.2,0c0.3,0.1,0.6-0.1,0.5-0.4c0-0.1,0-0.2,0-0.4c0-0.3,0.1-0.5,0.3-0.8
			c0.3-0.3,0.6-0.7,0.8-1.1c0.1-0.2,0.2-0.5,0.2-0.8c0-0.3,0-0.6-0.1-0.9c0-0.2,0-0.3,0.1-0.5c0.2-0.3,0.4-0.6,0.6-0.9
			c0.3-0.3,0.5-0.6,0.5-1c0-0.2,0-0.3,0-0.5c0-0.4-0.1-0.9-0.1-1.3c0-0.4,0.2-0.7,0.4-1c0.4-0.4,0.9-0.9,1.4-1.2
			c0.8-0.6,1.2-1.4,1.3-2.4c0.1-0.4,0.1-0.8,0-1.2c-0.1-0.7-0.2-1.3-0.3-2c0-0.2-0.1-0.3-0.1-0.5c-0.1-0.5-0.3-1.1-0.4-1.6
			c-0.2-0.7-0.4-1.4-0.6-2.1c0-0.1,0-0.2-0.1-0.3c0.1,0,0.1,0,0.2,0.1c1,0.4,2,0.6,3,0.6c0.4,0,0.8,0,1.2,0c0.2,0,0.4,0,0.6-0.1
			c0.7-0.2,1.3-0.5,2-0.8c0.4-0.2,0.5-0.4,0.4-0.8c-0.1,0.1-0.2,0.1-0.3,0.2c-0.1,0.1-0.2,0.2-0.3,0.2c-0.6,0.2-1.1,0.4-1.7,0.6
			c-0.3,0.1-0.7,0.1-1,0.1c-0.4,0-0.9-0.1-1.3-0.1c-0.6,0-1.2-0.2-1.8-0.4c-0.9-0.4-1.8-0.9-2.5-1.6c-0.8-0.7-1.5-1.4-2.2-2.1
			c-0.3-0.3-0.5-0.5-0.8-0.8c-0.4-0.4-0.7-0.9-0.8-1.5c-0.1-0.3-0.2-0.6-0.3-0.9c-0.1-0.2-0.1-0.4-0.1-0.6c0-0.1,0-0.3-0.1-0.4
			c-0.1-0.5-0.2-1-0.3-1.5c0-0.1,0-0.3,0-0.4c-0.1-0.6-0.1-1.2-0.2-1.8c-0.1-0.8-0.1-1.5-0.1-2.3c0-0.4,0-0.7,0-1.1
			c0-0.6,0-1.2,0-1.8c0-0.6,0-1.2,0.1-1.8c0,0,0-0.1,0-0.1c0-0.8,0.3-1.6,0.4-2.4c0,0,0-0.1,0-0.1c0.3-0.8,0.5-1.7,0.8-2.5
			c0.2-0.5,0.4-1,0.7-1.5c0-0.1,0.2-0.2,0.3-0.3c0.3-0.2,0.7-0.3,1-0.5c0.8-0.4,1.7-0.7,2.6-0.8c1.1-0.2,2.2-0.3,3.4-0.2
			c0.1,0,0.2,0,0.3,0c0.8,0,1.6,0.1,2.3,0.3c0.8,0.2,1.6,0.4,2.4,0.7c0.8,0.2,1.5,0.6,2.2,1c0.2,0.1,0.4,0.3,0.7,0.4
			c0.4,0.2,0.5,0.5,0.6,0.9c0.1,0.5,0.2,0.9,0.4,1.4c0.3,1,0.5,1.9,0.8,2.9c0.1,0.5,0.2,0.9,0.4,1.4c0,0.1,0.1,0.3,0.1,0.4
			c0,0.6,0.1,1.1,0.1,1.7c0,0.7,0,1.4-0.1,2.1c-0.1,0.6-0.2,1.2-0.2,1.9c0,0.4,0.1,0.9,0.1,1.3c0.1,0.4,0.2,0.8,0.4,1.2
			c0.2,0.3,0.3,0.6,0.4,0.9C51.7,45.6,51.6,46.2,51.4,46.8z M32,52.2C32,52.2,32,52.2,32,52.2c0.1,0.1,0.1,0.2,0.1,0.2c0,0,0,0,0,0
			C32,52.3,32,52.3,32,52.2z M33.2,66.9C33.2,66.9,33.2,66.9,33.2,66.9c0,0.1,0,0.3,0,0.4c0,0,0,0,0,0C33.2,67.1,33.2,67,33.2,66.9z
			 M36.1,59c0.1,0.7,0.1,1.3,0.2,1.9c0,0,0,0.1,0,0.1C36.2,60.7,36.1,59.4,36.1,59z M51.7,42.1C51.7,42.1,51.6,42.1,51.7,42.1
			c0-0.1,0-0.2,0-0.3c0,0,0,0,0,0C51.7,42,51.7,42,51.7,42.1z M52,67c-0.1-0.2-0.1-0.5,0-0.7c0,0,0,0,0.1,0C52,66.6,52,66.8,52,67z
			 M52.6,49.4c0-0.1,0-0.1,0-0.2c0,0,0,0,0,0C52.6,49.3,52.6,49.3,52.6,49.4z M53,44c0-0.1,0-0.3-0.1-0.4c0,0,0,0,0.1,0
			C53,43.7,53,43.9,53,44C53,44,53,44,53,44z M53.2,45.5c0-0.2,0-0.3-0.1-0.5c0,0,0,0,0.1,0C53.2,45.1,53.2,45.3,53.2,45.5
			C53.2,45.5,53.2,45.5,53.2,45.5z M53.3,63.7c0-0.2,0.1-0.4,0.1-0.6c0,0,0,0,0.1,0C53.4,63.2,53.4,63.4,53.3,63.7
			C53.4,63.7,53.3,63.7,53.3,63.7z M53.3,38C53.3,38,53.3,38,53.3,38c0.1,0.1,0.1,0.3,0.1,0.4c0,0,0,0,0,0
			C53.3,38.3,53.3,38.1,53.3,38z M57.5,68.8c0,0.1-0.1,0.3-0.2,0.4c-0.1,0.3-0.4,0.5-0.7,0.6c-0.1-0.2,0-0.3,0-0.4
			c0.2-0.7,0.5-1.3,0.8-2c0.1-0.2,0.2-0.5,0.2-0.7c0.1-0.6,0.3-1,0.5-1.5c0.4-1.2,0.8-2.4,1.1-3.6c0.2-0.5,0.3-1.1,0.4-1.7
			c0-0.1,0-0.2,0.1-0.3c0,0,0,0,0.1,0c-0.1,0.5-0.1,0.9-0.2,1.4c-0.3,1.6-0.8,3.2-1.2,4.8C58.1,66.8,57.8,67.8,57.5,68.8z M57,56.1
			c0,0,0-0.1,0-0.1c0,0,0,0,0,0C57,56,57,56,57,56.1C57,56.1,57,56.1,57,56.1z M57.1,52.2c0.1-0.7,0.3-1.4,0.4-2.2
			C57.6,50.5,57.3,52,57.1,52.2z M58.6,48.2c0-0.3,0-0.5,0-0.8C58.6,47.7,58.7,47.9,58.6,48.2z M58.7,52c0,0.2,0.1,0.3,0,0.5
			c0,0,0,0-0.1,0C58.7,52.3,58.7,52.2,58.7,52z M58.5,43c0-0.1,0-0.3,0.1-0.4C58.6,42.8,58.6,42.8,58.5,43z M58.5,56.5
			c-0.1,0.4-0.2,0.9-0.2,1.3c0,0,0,0-0.1,0C58.2,57.3,58.3,56.9,58.5,56.5C58.5,56.5,58.5,56.5,58.5,56.5z M58.3,35.3
			c0-0.2-0.1-0.4-0.1-0.6c0,0,0,0,0,0C58.2,34.9,58.3,35.1,58.3,35.3C58.3,35.3,58.3,35.3,58.3,35.3z M58.2,54
			c0,0.2-0.1,0.4-0.1,0.7c0,0-0.1,0-0.1,0C58,54.4,58,54.2,58.2,54C58.1,54,58.1,54,58.2,54z M58.1,51.6c0,0.2-0.1,0.4-0.1,0.6
			c0,0.1,0,0.2-0.2,0.1c0-0.2,0.1-0.4,0.1-0.5c0-0.2,0.1-0.4,0.1-0.6c0,0,0,0,0,0C58.1,51.3,58.1,51.5,58.1,51.6z M59.3,47
			c0-0.4,0-0.8,0-1.1c0,0,0,0,0,0C59.3,46.3,59.3,46.7,59.3,47C59.3,47,59.3,47,59.3,47z M61.8,64.2c0,0.1-0.1,0.2-0.1,0.3
			c-0.3,0.7-0.7,1.4-1,2.1c-0.2,0.3-0.4,0.7-0.6,1c-0.2,0.3-0.4,0.5-0.8,0.6c0.7-1.6,1.7-3,2.7-4.4C61.8,64,61.8,64.1,61.8,64.2z
			 M60.8,54.1c0-0.1,0-0.1,0-0.2c0,0,0,0,0.1,0C60.9,54,60.9,54,60.8,54.1C60.8,54.1,60.8,54.1,60.8,54.1z M68.7,67.7
			c-0.1,0-0.1-0.1-0.2-0.2c-0.5-0.8-1-1.6-1.4-2.4c-0.3-0.5-0.5-1-0.7-1.5c-0.3-0.7-0.6-1.4-0.8-2.2c-0.2-0.5-0.4-1-0.6-1.5
			c0,0,0-0.1,0-0.1c-0.3-0.7-0.5-1.3-0.8-2c-0.2-0.6-0.4-1.2-0.6-1.9c-0.3-1-0.6-2-0.9-2.9c-0.3-0.9-0.5-1.8-0.7-2.7
			c-0.3-1.2-0.6-2.5-0.8-3.8c-0.1-0.5-0.1-0.9-0.2-1.4c-0.1-0.8-0.2-1.5-0.3-2.3c-0.1-0.9-0.2-1.7-0.3-2.6c-0.1-1.2-0.3-2.5-0.4-3.7
			c-0.1-0.6-0.1-1.1-0.2-1.7c-0.1-0.8-0.3-1.5-0.5-2.3c-0.3-1.2-0.6-2.4-1-3.5c-0.2-0.7-0.5-1.4-0.8-2.1c-0.4-0.7-0.8-1.5-1.3-2.1
			c-0.6-0.8-1.1-1.5-1.9-2.1c-0.3-0.2-0.6-0.5-0.9-0.7c-0.7-0.5-1.4-0.9-2.2-1.3c-0.8-0.3-1.6-0.6-2.4-0.9c-0.6-0.2-1.2-0.3-1.9-0.4
			c-0.4,0-0.8-0.1-1.2-0.1c-0.4,0-0.7,0-1.1,0.1c-0.1,0-0.2,0-0.2,0c-0.3-0.2-0.5-0.1-0.8-0.2c-0.4,0-0.7,0-1.1,0.2
			c-0.4,0.2-0.8,0.3-1.2,0.4c-0.5,0.2-0.9,0.3-1.3,0.5c-0.1,0-0.2,0.1-0.3,0.1c-0.2,0.3-0.5,0.3-0.7,0.4c-0.3,0.2-0.6,0.3-0.9,0.4
			c-0.5,0.2-1,0.5-1.4,0.9c-1,0.8-1.9,1.6-2.8,2.5c0,0-0.1,0.1-0.1,0.1c-0.4,0.6-0.9,1-1.4,1.5c-0.5,0.4-0.8,1-1.1,1.5
			c0,0.1,0,0.1-0.1,0.2c0.1,0,0.2-0.1,0.3-0.1c0.3-0.2,0.5-0.3,0.8-0.5c0.7-0.5,1.5-0.9,2.3-1.3c0.1-0.1,0.3-0.2,0.4-0.3
			c0.6-0.4,1.2-0.8,1.8-1.1c0.4-0.2,0.8-0.4,1.3-0.5c0.3,0,0.5-0.1,0.7-0.2c0.3-0.1,0.5-0.1,0.8-0.2c0.1,0,0.2-0.1,0.2-0.2
			c0.1-0.4,0.4-0.8,0.7-1.1c0.4-0.4,0.8-0.8,1.2-1.1c0.2-0.2,0.4-0.3,0.6-0.5c0.4-0.4,0.8-0.7,1.3-1c0,0,0,0.1-0.1,0.1
			c-0.2,0.2-0.4,0.4-0.6,0.6c-0.4,0.4-0.7,0.9-1,1.3c-0.3,0.5-0.6,0.9-0.8,1.4c-0.1,0.2,0,0.4,0.2,0.4c1,0.2,1.9,0.4,2.9,0.8
			c0.6,0.2,1.1,0.4,1.7,0.6c0.7,0.3,1.3,0.7,1.9,1.2c0.3,0.2,0.6,0.6,0.7,0.9c0.1,0.2,0.2,0.3,0.4,0.4c0.9,0.6,1.8,1.2,2.6,1.9
			c0.4,0.4,0.8,0.8,1.2,1.2c0.4,0.4,0.7,0.8,1.1,1.3c0.8,1,1.3,2,1.8,3.2c0.1,0.2,0.2,0.4,0.3,0.7c0.2,0.5,0.4,1.1,0.5,1.7
			c0.1,0.6,0.3,1.3,0.5,1.9c0.1,0.7,0.2,1.3,0.2,2c0.1,0.8,0.1,1.6,0.1,2.4c0,0.8-0.1,1.6-0.3,2.5c-0.4,1.6-0.7,3.2-1,4.8
			c-0.2,1.1-0.4,2.1-0.6,3.2c-0.1,0.6-0.2,1.1-0.2,1.7c-0.1,0.5,0,1.1,0.2,1.6c0.2,0.5,0.5,1,0.7,1.5c0.2,0.4,0.4,0.7,0.6,1.1
			c0.4,0.7,0.5,1.5,0.4,2.4c-0.1,1-0.4,2-0.7,2.9c-0.2,0.6-0.4,1.2-0.6,1.8c-0.2,0.7-0.5,1.4-0.7,2.2c-0.3,0.8-0.5,1.6-0.8,2.5
			c-0.1,0.2-0.3,0.5-0.6,0.7c0-0.1,0-0.2,0.1-0.3c0.2-0.5,0.3-1,0.5-1.6c0.2-0.8,0.4-1.5,0.6-2.3c0.1-0.5,0.2-1,0.4-1.5
			c0.2-0.6,0.4-1.2,0.6-1.8c0.3-0.8,0.6-1.7,0.8-2.6c0-0.3,0.1-0.6,0.1-0.9c0-0.2-0.1-0.5-0.1-0.7c-0.2-0.5-0.4-1-0.7-1.5
			c-0.4-0.6-0.7-1.2-1-1.8c-0.2-0.4-0.2-0.8-0.2-1.1c-0.1-1,0.1-2.1,0.2-3.1c0.1-0.5,0.2-1.1,0.3-1.6c0.1-0.6,0.3-1.3,0.4-1.9
			c0.2-0.8,0.4-1.5,0.6-2.3c0.3-1.3,0.5-2.6,0.4-3.9c0-0.1,0-0.2,0-0.2c0.1-1.5-0.1-3.1-0.3-4.6c-0.2-1.4-0.7-2.8-1.2-4.1
			c-0.4-1-1-2-1.7-2.8c-1-1.3-2.1-2.5-3.5-3.5c-1.1-0.8-2.3-1.6-3.6-2.1c-0.7-0.3-1.4-0.5-2.1-0.7c-1.1-0.3-2.3-0.5-3.5-0.6
			c-1-0.1-1.9,0-2.9,0.1c-0.4,0.1-0.7,0.1-1.1,0.2c-1.5,0.3-2.9,0.9-4.2,1.7c-0.8,0.5-1.5,1-2.2,1.5c-0.1,0-0.1,0.1-0.2,0.1
			c0-0.1,0-0.1,0-0.1c0.4-0.7,0.8-1.3,1.2-2c0.5-0.7,1-1.3,1.5-2c0.5-0.6,1-1.2,1.5-1.7c0.7-0.7,1.4-1.4,2.3-1.9
			c0.7-0.5,1.5-0.9,2.2-1.3c0.8-0.4,1.7-0.7,2.5-0.9c0.4-0.1,0.8-0.2,1.2-0.3c0.4-0.1,0.9-0.2,1.4-0.2c0.9,0,1.7,0,2.6,0.1
			c0.7,0.1,1.4,0.2,2,0.4c0.5,0.2,0.9,0.3,1.4,0.4c0.4,0.1,0.8,0.3,1.2,0.4c0.7,0.2,1.3,0.7,1.9,1.1c0.3,0.2,0.5,0.3,0.7,0.5
			c0.5,0.3,1,0.7,1.5,1.2c0.4,0.4,0.8,0.7,1.1,1.1c0.1,0.2,0.3,0.4,0.4,0.6c0.3,0.6,0.7,1.2,1,1.9c0.4,0.9,0.8,1.8,1.1,2.8
			c0.3,0.9,0.5,1.7,0.8,2.6c0.1,0.5,0.3,1,0.4,1.6c0.2,1,0.4,2,0.5,3c0.1,0.8,0.2,1.6,0.3,2.4c0.1,1.2,0.2,2.5,0.4,3.7
			c0.2,1.2,0.4,2.4,0.6,3.6c0.2,1,0.3,1.9,0.5,2.9c0.2,1.2,0.5,2.3,0.9,3.5c0.5,1.6,1.1,3.3,1.6,4.9c0.2,0.6,0.3,1.2,0.5,1.8
			c0.3,0.9,0.7,1.7,1.1,2.6c0.8,1.7,1.6,3.3,2.4,5c0.2,0.3,0.3,0.7,0.5,1c0,0.1,0.1,0.1,0.1,0.2C69.1,67.8,68.9,67.8,68.7,67.7z
			 M55.5,27.1c0.3,0.3,0.5,0.6,0.5,0.8c0,0,0,0-0.1,0C55.8,27.6,55.7,27.4,55.5,27.1z M55.8,30.1C55.8,30.1,55.8,30.1,55.8,30.1
			c-0.2-0.4-0.4-0.8-0.6-1.2c0,0,0,0,0.1,0C55.6,29.3,55.7,29.7,55.8,30.1z M55.1,28.7c-0.4-0.4-0.7-0.9-1.1-1.5
			C54.4,27.7,54.8,28.1,55.1,28.7z M53.2,23.6c0.3,0.2,0.5,0.4,0.7,0.7C53.5,24.2,53.4,23.9,53.2,23.6z M53.4,29.5
			C53.3,29.5,53.3,29.5,53.4,29.5c-0.1,0-0.1-0.1-0.2-0.2c0,0,0,0,0,0C53.3,29.3,53.3,29.4,53.4,29.5z M50.7,23.2
			c0,0-0.1-0.1-0.1-0.1c0,0,0,0,0.1,0c0.4,0.4,0.9,0.8,1.3,1.2c0,0,0,0,0,0c0,0-0.1,0-0.1,0C51.5,23.9,51.1,23.5,50.7,23.2z
			 M51.2,27.1c0,0-0.1-0.1-0.1-0.1c0,0,0,0,0,0C51.2,27,51.2,27,51.2,27.1z M52.2,27c0,0.1,0.1,0.1,0.1,0.2c-0.3-0.3-0.6-0.6-0.9-1
			c0,0,0.1,0,0.1,0.1C51.7,26.5,52,26.8,52.2,27z M51.4,27.2c0.4,0.4,0.8,0.9,1.2,1.3c0.1,0.1,0.2,0.3,0.4,0.4c-0.1,0.1-0.2,0-0.2,0
			c-0.5-0.6-1-1.2-1.4-1.8c0,0,0,0,0-0.1C51.3,27.1,51.3,27.2,51.4,27.2z M52.3,23.7c0.3,0.1,0.4,0.2,0.4,0.4
			C52.5,24,52.5,23.8,52.3,23.7z M52.8,26.6c0,0,0.1,0.1,0.1,0.1c0,0,0,0,0,0C52.8,26.7,52.7,26.7,52.8,26.6
			C52.7,26.6,52.7,26.6,52.8,26.6z M52.5,27.6c-0.1-0.1-0.1-0.1-0.2-0.2C52.4,27.4,52.5,27.5,52.5,27.6c0.3,0.2,0.4,0.4,0.6,0.7
			C53,28.2,52.7,27.8,52.5,27.6z M49.3,23.6c0.4,0.2,1.1,0.8,1.1,0.9c0,0,0,0,0,0C50,24.3,49.6,24,49.3,23.6z M49.3,26.7
			c-0.2-0.2-0.5-0.3-0.6-0.5C49,26.2,49.1,26.5,49.3,26.7z M48.7,26.1c-0.1,0-0.1-0.1-0.2-0.1c0,0,0,0,0,0
			C48.6,26,48.6,26,48.7,26.1z M48.2,24.8c-0.2,0-0.2,0-0.4-0.2c-0.1-0.1-0.3-0.2-0.3-0.3c0,0,0,0,0.1-0.1
			C47.8,24.4,48,24.6,48.2,24.8z M47.1,22.5c-0.2-0.1-0.3-0.2-0.4-0.3C46.9,22.3,46.9,22.3,47.1,22.5z M46.1,21.9
			C46.1,21.9,46.2,21.9,46.1,21.9c0.1,0,0.2,0.1,0.2,0.1c0,0,0,0,0,0C46.3,22,46.2,22,46.1,21.9C46.1,22,46.1,21.9,46.1,21.9z
			 M46.1,22.7C46.1,22.7,46.1,22.7,46.1,22.7c-0.4-0.1-0.7-0.3-1.1-0.5c0,0,0,0,0-0.1C45.5,22.2,45.8,22.5,46.1,22.7z M44.2,21.9
			C44.2,21.9,44.2,21.9,44.2,21.9c-0.1,0-0.1,0-0.2,0c0,0,0,0,0,0C44.1,21.8,44.1,21.8,44.2,21.9z M40,21.5c-0.2,0-0.3,0-0.4,0
			c0,0,0,0,0,0c0.1-0.1,0.2-0.1,0.4-0.2C40,21.3,40,21.4,40,21.5z M39.3,22.3c-0.3,0.1-0.3,0.1-0.5,0C39,22.3,39.1,22.3,39.3,22.3z
			 M53.7,43.6c0-0.2,0-0.4,0.1-0.6c0,0,0,0,0.1,0C53.8,43.1,53.8,43.4,53.7,43.6C53.7,43.6,53.7,43.6,53.7,43.6z"/>
		<path d="M45.5,36.6c-0.5-0.1-1-0.2-1.5,0c-0.3,0.1-0.6,0.5-0.6,0.8c0,0.3,0.2,0.7,0.6,0.9c0.5,0.3,1.1,0.3,1.6,0.2
			c0.5-0.1,0.7-0.6,0.6-1C46.1,37,45.9,36.7,45.5,36.6z"/>
		<path d="M36.2,37.1c-0.1-0.3-0.3-0.6-0.6-0.8c-0.2-0.1-0.5-0.1-0.8-0.2c-0.3,0.1-0.6,0.2-0.8,0.3c-0.3,0.1-0.4,0.3-0.5,0.5
			c-0.1,0.1,0,0.2,0,0.3c0.5,1,1.4,1.2,2.3,0.8C36,37.9,36.3,37.4,36.2,37.1z"/>
		<path d="M42,47.5c-0.3,0-0.5-0.1-0.8,0c-0.5,0-1,0.1-1.5,0.1c-0.4,0-0.9,0.1-1.3-0.1c-0.6-0.2-1.3-0.2-2-0.3c-0.1,0-0.1,0-0.2,0
			c-0.2,0.1-0.2,0.2-0.1,0.3c0.1,0.2,0.3,0.3,0.5,0.3c0.4,0,0.9,0.1,1.3,0.2c0.5,0.1,0.9,0.3,1.4,0.1c0.1,0,0.3,0,0.5,0
			c0.1,0,0.2,0,0.3,0c0.5,0,1.1-0.1,1.6-0.2c0,0,0,0,0,0c0.1,0,0.1,0,0.2,0c0.2,0,0.3-0.1,0.3-0.3C42.3,47.6,42.2,47.5,42,47.5z"/>
		<path d="M36.8,42.8c0,0,0,0.1,0,0.1c0,0.1,0.1,0.2,0.2,0.1c0.1-0.1,0.3-0.1,0.4-0.3c0.2-0.5,0.4-0.9,0.5-1.4
			c0.1-0.8,0.3-1.6,0.4-2.4c0-0.3,0.1-0.6,0.1-0.9c0-0.4-0.1-0.5-0.5-0.6c0,0.1-0.1,0.2-0.1,0.3c0,0.2-0.1,0.4-0.1,0.6
			c-0.1,0.6-0.2,1.2-0.3,1.8C37.2,41.2,37.1,42,36.8,42.8z"/>
		<path d="M43.9,34.3c0,0,0-0.1,0.1-0.1c-0.1-0.1-0.1-0.1-0.2-0.2c-0.2-0.1-0.4-0.1-0.6,0c-0.2,0.1-0.5,0.1-0.7,0.2
			c-0.2,0-0.4,0.1-0.5,0.1c-0.2,0.1-0.2,0.2,0,0.3c0.1,0.1,0.3,0.2,0.4,0.3c0.1,0.1,0.3,0.2,0.5,0.1c0.3-0.2,0.6-0.3,1-0.5
			C43.7,34.4,43.8,34.4,43.9,34.3z"/>
		<path d="M36.3,34.9c0.2,0.1,0.5,0.2,0.7,0.1c0.1,0,0.2,0,0.3-0.1c0.1-0.1,0-0.2-0.1-0.3c-0.1-0.1-0.2-0.3-0.3-0.4
			c-0.1-0.2-0.3-0.3-0.5-0.3c-0.2,0-0.3,0.1-0.3,0.4c-0.2,0-0.4-0.1-0.6,0.2c0.1,0.1,0.2,0.1,0.2,0.2C36,34.8,36.1,34.9,36.3,34.9z"
			/>
		<path d="M37.6,43.3c-0.1,0.1-0.2,0.2-0.1,0.3c0.1,0.2,0.2,0.3,0.4,0.4c0.1,0.1,0.2,0.1,0.4,0.2c0.1-0.1,0.2-0.1,0.3-0.2
			c0.1-0.1,0-0.2-0.1-0.3c0-0.1-0.1-0.1-0.1-0.2C38.2,43.3,37.9,43.2,37.6,43.3z"/>
		<path d="M39.5,44.2c0.1,0,0.2,0.1,0.3,0c0.2-0.1,0.3-0.2,0.5-0.3c0.1-0.1,0.1-0.2,0-0.3c0-0.1-0.1-0.1-0.1-0.2
			c-0.3,0.1-0.5,0.2-0.7,0.4C39.3,44,39.3,44.1,39.5,44.2z"/>
		<path d="M70.1,117.1c-0.4-0.4-0.8-0.9-1.2-1.3c-0.6-0.6-1.3-0.9-2-1.3c-0.7-0.4-1.5-0.7-2.2-1.1c-0.3-0.1-0.5-0.2-0.8-0.3
			c-0.2-0.1-0.3,0-0.4,0.3c0,0.2,0.2,0.3,0.3,0.4c0.8,0.4,1.5,0.8,2.3,1.2c0.6,0.3,1.1,0.5,1.7,0.9c0.5,0.3,0.9,0.7,1.3,1.1
			c0.2,0.2,0.4,0.5,0.7,0.6c0.1,0.1,0.2,0.1,0.3,0c0.1-0.1,0.1-0.2,0.1-0.3C70.2,117.2,70.1,117.1,70.1,117.1z"/>
		<path d="M59.8,117.8c-0.4-0.9-0.8-1.7-1.5-2.5c-0.5-0.6-1-1.1-1.6-1.7c-0.1-0.1-0.2-0.2-0.3-0.3c-0.2,0.3-0.1,0.5,0.1,0.7
			c0.1,0.1,0.2,0.3,0.3,0.4c0.3,0.3,0.5,0.7,0.8,1c0.6,0.6,1,1.3,1.4,2c0.3,0.6,0.5,1.2,0.7,1.8c0,0.1,0.1,0.3,0.2,0.4
			c0.1,0.2,0.3,0.2,0.3,0c0-0.1,0-0.3,0-0.4C60.2,118.9,60,118.3,59.8,117.8z"/>
		<path d="M57.5,117.9c-0.2-0.1-0.4-0.3-0.6-0.4c-0.6-0.3-1.2-0.7-1.8-1c-0.4-0.2-0.8-0.4-1.3-0.6c-0.1-0.1-0.2-0.1-0.3-0.1
			c-0.2,0-0.2,0-0.3,0.1c-0.1,0.1,0,0.3,0.1,0.4c0.1,0.1,0.3,0.2,0.4,0.2c0.5,0.2,1,0.4,1.4,0.7c0.7,0.4,1.5,0.8,2.2,1.1
			c0.1,0,0.2,0.1,0.2,0.1c0.2,0,0.3-0.1,0.2-0.2C57.8,118.1,57.7,118,57.5,117.9z"/>
		<path d="M66.5,117.7c-0.5-0.8-0.9-1.5-1.4-2.3c-0.1-0.2-0.3-0.3-0.4-0.5c-0.3,0.2-0.3,0.3-0.2,0.5c0,0.1,0.1,0.1,0.1,0.2
			c0.3,0.5,0.6,0.9,0.9,1.4c0.2,0.3,0.4,0.6,0.6,0.9c0.1,0.1,0.3,0.3,0.4,0.4c0,0,0.1,0,0.2,0c0-0.1,0-0.2,0-0.2
			C66.7,118,66.6,117.9,66.5,117.7z"/>
		<path d="M26.6,103.2c-0.1,0-0.1,0-0.2,0c-0.4,0.1-0.8,0.3-1.1,0.6c-1,0.8-2,1.6-3,2.4c-0.5,0.4-1.1,0.8-1.7,1.1
			c-0.1,0-0.1,0.1-0.2,0.1c0,0,0,0,0,0c0.3-0.3,0.6-0.6,0.9-0.9c0.3-0.3,0.6-0.7,0.9-1c0.2-0.3,0.4-0.6,0.7-0.9
			c0.2-0.2,0.4-0.5,0.6-0.7c0.3-0.3,0.6-0.7,0.7-1.1c0-0.2,0-0.3,0-0.5c0-0.2-0.1-0.3-0.3-0.3c-0.2,0-0.4,0-0.6,0
			c-0.6,0-1.2,0.2-1.8,0.4c-1,0.4-2,0.7-3.1,0.9c-0.1,0-0.2,0-0.3,0c0,0,0,0,0-0.1c0.2-0.2,0.4-0.5,0.7-0.7c0.4-0.3,0.7-0.6,1.2-0.7
			c0.1,0,0.2-0.1,0.2-0.1c0.2-0.1,0.4-0.2,0.5-0.3c0.3-0.1,0.6-0.2,0.9-0.3c0.4-0.2,0.8-0.1,1.2-0.1c0.6,0,1.1,0,1.7,0
			c0.1,0,0.2-0.1,0.3-0.1c0.2-0.1,0.1-0.3,0-0.3c-0.1-0.1-0.3-0.1-0.4-0.1c-0.6-0.1-1.1-0.1-1.7-0.2c-0.2,0-0.3,0-0.5,0
			c-1.3,0.2-2.5,0.7-3.5,1.5c-0.3,0.2-0.5,0.5-0.7,0.7c-0.2,0.2-0.4,0.4-0.4,0.8c0,0.3,0.3,0.8,0.6,0.8c0.2,0,0.4,0,0.6,0
			c0.2,0,0.3-0.1,0.5-0.1c0.4,0,0.8-0.2,1.2-0.3c0.5-0.1,0.9-0.4,1.4-0.5c0.3-0.1,0.7-0.2,1-0.3c0.2-0.1,0.3,0,0.5,0
			c0,0.1,0,0.1-0.1,0.1c-0.3,0.4-0.6,0.8-0.9,1.2c-0.5,0.7-1.1,1.4-1.7,2c-0.4,0.3-0.6,0.7-0.8,1.1c-0.2,0.3-0.1,0.6,0,0.9
			c0,0.1,0.1,0.1,0.1,0.1c0.2,0.1,0.5,0.1,0.7,0c0.5-0.3,1-0.6,1.5-1c1.3-0.9,2.6-1.9,3.7-3c0.2-0.2,0.5-0.3,0.8-0.4
			c-0.1,0.2-0.1,0.4-0.2,0.5c-0.1,0.3-0.3,0.6-0.4,1c-0.2,0.5-0.3,1-0.6,1.5c-0.1,0.2-0.1,0.4,0.2,0.6c0.2-0.3,0.4-0.6,0.6-1
			c0.2-0.5,0.4-1,0.6-1.6c0.1-0.3,0.2-0.5,0.3-0.8c0.1-0.2,0.1-0.3,0.1-0.5C27.3,103.5,27.1,103.2,26.6,103.2z"/>
	</g>
	<use xlink:href="#SVGID_1_"  style="overflow:visible;fill:none;stroke:#000000;stroke-width:3;stroke-miterlimit:10;"/>
</g>
<g>
	<path d="M158.1,29.2c1.6,0,3.2,0,4.8,0c0,0.1,0,0.2,0,0.4c0,1.4,0,2.8,0,4.2c0,2.1,0.2,4.1,0.4,6.2c0.2,2.6,0.6,5.2,1.1,7.8
		c0.6,2.9,1.3,5.7,2.2,8.4c0.6,1.8,1.2,3.6,1.9,5.4c0.3,0.7,0.6,1.4,0.9,2.1c0,0.1,0.1,0.1,0.2,0.3c0.1-0.3,0.3-0.6,0.4-0.8
		c1.5-3.8,2.9-7.6,3.9-11.6c0.6-2.3,1.1-4.6,1.4-7c0.2-1.7,0.5-3.4,0.6-5.1c0.1-1.3,0.2-2.5,0.2-3.8c0.2-2.8,0.1-5.6,0.1-8.4
		c0-0.2,0-0.4,0-0.5c0-0.3-0.2-0.5-0.5-0.5c-0.1,0-0.3,0-0.4,0c-6.2,0-12.4,0-18.6,0c-0.6,0-1.3,0-2,0c0-1.6,0-3.2,0-4.9
		c0.1,0,0.2,0,0.3,0c3.8,0,7.5,0,11.3,0c0.1,0,0.3,0,0.4,0c0.2,0,0.3-0.2,0.4-0.4c0-0.1,0-0.2,0-0.3c0-1.9,0-3.9,0-5.8
		c0-0.1,0-0.2,0-0.3c1.6,0,3.2,0,4.8,0c0,0.1,0,0.2,0,0.4c0,1.8,0,3.6,0,5.4c0,0.2,0,0.4,0,0.6c0,0.3,0.2,0.5,0.6,0.5
		c0.2,0,0.3,0,0.5,0c3.9,0,7.8,0,11.7,0c0.1,0,0.1,0,0.2,0c0,1.6,0,3.2,0,4.9c-0.1,0-0.2,0-0.3,0c-0.9,0-1.8,0-2.8,0
		c-0.1,0-0.2,0-0.3,0c-0.2,0-0.3,0.1-0.3,0.3c0,0.2,0,0.5,0,0.7c0,2.2,0,4.4,0,6.5c0,1.8-0.1,3.6-0.3,5.4c-0.2,1.9-0.4,3.7-0.6,5.6
		c-0.5,3.4-1.2,6.8-2.2,10.1c-0.5,1.9-1.1,3.7-1.8,5.6c-0.9,2.3-1.8,4.6-2.8,6.8c-0.3,0.7-0.6,1.4-1,2.1c-0.1,0.2-0.1,0.4,0,0.7
		c1.1,2.2,2.1,4.4,3.3,6.5c1.2,2.1,2.3,4.2,3.4,6.3c1.3,2.3,2.6,4.5,3.9,6.8c0.9,1.5,1.8,2.9,2.7,4.4c0,0,0.1,0.1,0.1,0.2
		c-0.1,0-0.2,0-0.2,0c-1.7,0-3.5,0-5.2,0c-0.3,0-0.4-0.1-0.5-0.3c-1.8-3-3.5-6.1-5.3-9.1c-1.4-2.5-2.8-5-4.1-7.5
		c-0.3-0.5-0.6-1.1-0.8-1.6c0-0.1-0.1-0.1-0.2-0.2c-0.1,0.1-0.1,0.1-0.1,0.2c-0.9,1.8-1.8,3.6-2.7,5.3c-0.8,1.4-1.5,2.8-2.3,4.3
		c-1.6,2.8-3.1,5.6-4.7,8.4c-0.1,0.2-0.2,0.5-0.4,0.6c-0.2,0.1-0.5,0-0.7,0c-1.3,0-2.7,0-4,0c-0.2,0-0.4,0-0.7,0c-0.1,0-0.2,0-0.4,0
		c0.1-0.2,0.2-0.4,0.3-0.5c0.6-0.8,1.1-1.7,1.6-2.6c1.4-2.5,2.9-5.1,4.3-7.6c0.8-1.4,1.6-2.9,2.3-4.3c1.1-2.1,2.2-4.2,3.3-6.3
		c0.5-0.9,0.9-1.8,1.4-2.7c0.1-0.3,0.1-0.5,0-0.8c-0.6-1.3-1.2-2.6-1.7-4c-1-2.4-1.9-4.8-2.7-7.3c-1.1-3.3-1.9-6.6-2.6-10
		c-0.3-1.7-0.6-3.4-0.8-5.1c-0.2-1.4-0.3-2.8-0.4-4.2c-0.3-3.2-0.3-6.4-0.3-9.6C158.1,29.3,158.1,29.3,158.1,29.2z"/>
	<path d="M141.7,94.2c-1.5,0-3,0-4.5,0c0-0.2,0-0.3,0-0.5c0-2.9,0-5.9,0-8.8c0-2.9,0-5.9,0-8.8c0-5.4,0-10.9,0-16.3
		c0-4.3,0-8.5,0-12.8c0-0.9,0-1.8,0-2.8c0-0.7-0.1-0.8-0.8-0.8c-0.7,0-1.5,0-2.2,0c-0.6,0-0.7,0.1-0.7,0.7c0,3,0,6.1,0,9.1
		c0,2.6,0,5.2,0,7.8c0,2.3-0.1,4.6-0.2,6.9c-0.1,1.4-0.1,2.7-0.2,4.1c-0.1,1.2-0.2,2.5-0.3,3.7c-0.1,0.9-0.1,1.8-0.2,2.6
		c-0.1,1.2-0.2,2.3-0.4,3.5c-0.3,2.2-0.6,4.4-0.9,6.6c-0.3,1.8-0.6,3.6-0.9,5.3c0,0.1-0.1,0.2-0.1,0.3c-1.5,0-3,0-4.4,0
		c0.1-0.5,0.2-1,0.3-1.5c0.5-2.4,0.9-4.8,1.2-7.2c0.3-2.4,0.6-4.9,0.8-7.3c0.2-1.6,0.3-3.1,0.4-4.7c0.1-1.8,0.2-3.7,0.3-5.5
		c0.3-5.3,0.2-10.7,0.2-16c0-8.9,0-17.8,0-26.7c0-1.6,0-3.2,0-4.8c0-0.1,0-0.2,0-0.3c4.9-1.8,9.7-3.6,14.5-5.4c0.1,1.8,0,3.5,0,5.3
		c-0.8,0.3-1.5,0.6-2.2,0.9c-1.3,0.5-2.5,1-3.8,1.4c-1,0.4-2,0.7-3,1.1c-0.2,0.1-0.4,0.1-0.6,0.2c-0.2,0.1-0.3,0.3-0.4,0.5
		c0,0.1,0,0.2,0,0.2c0,4.3,0,8.6,0,12.9c0,0.2,0,0.4,0,0.7c0,0.5,0.2,0.7,0.7,0.7c1.4,0,2.7,0,4.1,0c1.9,0,3.8,0,5.7,0
		c0.1,0,0.2,0,0.3,0c0.1,0.3,0.1,4.3,0,4.9c-0.1,0-0.2,0-0.3,0c-0.5,0-1,0-1.5,0c-0.1,0-0.2,0-0.3,0c-0.4,0-0.5,0.2-0.5,0.6
		c0,2.5,0,5.1,0,7.6c0,7.5,0,15.1,0,22.6c0,3.3,0,6.5,0,9.8c0,3.3,0,6.5,0,9.8C141.7,94,141.7,94.1,141.7,94.2z"/>
	<path d="M111.2,29.2c1.4,0,2.8,0,4.2,0c0.1,0.4,0.2,0.9,0.3,1.3c0.6,2.9,1.2,5.8,1.8,8.6c0.1,0.3,0.1,0.6,0.2,0.9
		c0.1,0.3,0.1,0.3,0.4,0.3c0.3,0,0.7,0,1,0c0.3,0,0.4,0,0.4-0.4c0.1-0.4,0.2-0.9,0.3-1.3c0.4-1.9,0.8-3.9,1.2-5.9
		c0.2-1.2,0.4-2.3,0.7-3.5c0-0.1,0-0.1,0.1-0.2c1.4,0,2.8,0,4.2,0c0,0.1,0,0.2,0,0.3c-0.6,2.5-1.1,4.9-1.7,7.4
		c-0.2,0.9-0.4,1.8-0.6,2.7c0,0.1-0.1,0.3-0.1,0.4c0,0.2,0.1,0.3,0.3,0.3c0.2,0,0.4,0,0.5,0c0.8,0,1.5,0,2.3,0c0.1,0,0.2,0,0.4,0
		c0,1.6,0,3.2,0,4.8c-0.1,0-0.2,0-0.4,0c-1.7,0-3.3,0-5,0c-0.6,0-0.7,0.1-0.7,0.7c0,2.3,0,4.6,0,6.9c0,0.5,0.1,0.8,0.7,0.8
		c1.6,0,3.3,0,4.9,0c0.1,0,0.2,0,0.4,0c0,1.6,0,3.2,0,4.9c-0.1,0-0.3,0-0.4,0c-1.6,0-3.3,0-4.9,0c-0.1,0-0.1,0-0.2,0
		c-0.4,0-0.5,0.1-0.5,0.5c0,0.4,0,0.9,0,1.3c0,3.4,0,6.8,0,10.1c0,7.8,0,15.7,0,23.5c0,0.1,0,0.2,0,0.3c-0.1,0-0.1,0-0.1,0
		c-1.5,0-2.9,0-4.4,0c-0.2,0-0.3-0.1-0.3-0.2c-0.5-1-1-2-1.5-3c-0.5-1-1-1.9-1.5-2.9c-0.1-0.1-0.1-0.2-0.2-0.4c0.1,0,0.3,0,0.4,0
		c0.9,0,1.7,0,2.6,0c0.4,0,0.5-0.1,0.5-0.5c0-0.2,0-0.4,0-0.6c0-6.1,0-12.3,0-18.4c0-3.1,0-6.1,0-9.2c0-0.1,0-0.2,0-0.3
		c0-0.2-0.2-0.3-0.4-0.3c-0.3,0-0.5,0-0.8,0c-1.6,0-3.3,0-4.9,0c0,0-0.1,0-0.2,0c0-1.6,0-3.2,0-4.8c0.1,0,0.2,0,0.4,0
		c1.7,0,3.4,0,5.1,0c0.7,0,0.8-0.1,0.8-0.8c0-2.3,0-4.6,0-6.9c0-0.7-0.1-0.7-0.7-0.7c-1.6,0-3.2,0-4.9,0c-0.2,0-0.5,0-0.7,0
		c0-1.6,0-3.2,0-4.8c0.1,0,0.2,0,0.3,0c1,0,2.1,0,3.1,0c0.1,0,0.1,0,0.2,0c0.3,0,0.4-0.1,0.4-0.5c0-0.2-0.1-0.3-0.1-0.5
		c-0.4-1.6-0.7-3.3-1.1-4.9c-0.4-1.6-0.8-3.2-1.2-4.8C111.3,29.6,111.3,29.4,111.2,29.2z"/>
	<g>
		<path d="M226.4,89c0,1.8,0,3.5,0,5.3c-9.8,0-19.6,0-29.4,0c0-0.1,0-0.2,0-0.3c0-2.5,0-4.9,0-7.4c0-0.2,0.1-0.4,0.1-0.6
			c1.3-2.8,2.6-5.6,3.9-8.5c1.5-3.2,3-6.5,4.5-9.7c1.2-2.6,2.5-5.3,3.7-7.9c1.3-2.8,2.7-5.7,4-8.5c1.5-3.1,3-6.3,4.5-9.4
			c0.1-0.2,0.2-0.4,0.3-0.7c0.1-0.4-0.1-0.7-0.5-0.8c-0.2,0-0.5,0-0.7,0c-6.1,0-12.3,0-18.4,0c-0.1,0-0.1,0-0.2,0c0-1.7,0-3.4,0-5
			c8.5,0,17,0,25.5,0c0,0.1,0,0.2,0,0.2c0,1.8,0,3.6,0,5.3c0,0.3-0.1,0.5-0.2,0.7c-0.9,1.9-1.8,3.8-2.7,5.7c-0.6,1.3-1.3,2.6-1.9,4
			c-0.9,1.9-1.8,3.7-2.6,5.6c-1.1,2.2-2.1,4.4-3.2,6.6c-0.7,1.5-1.4,3-2.1,4.5c-0.9,1.9-1.8,3.8-2.6,5.6c-1.4,2.9-2.7,5.9-4.1,8.8
			c-0.6,1.3-1.2,2.6-1.8,4c-0.2,0.4-0.3,0.7-0.3,1.1c0,0.2,0.1,0.5,0.1,0.7c0.1,0.3,0.4,0.5,0.7,0.5c0.2,0,0.3,0,0.5,0
			c4.1,0,8.2,0,12.3,0c3.2,0,6.5,0,9.7,0C225.8,89,226.1,89,226.4,89z"/>
		<path d="M215,14.6c1.6,0,3.2,0,4.7,0c0,0.1,0,0.2,0,0.2c0,1.4,0,2.8,0,4.2c0,0.5,0,1,0,1.5c0,0.1,0,0.3,0,0.4
			c0.1,0.3,0.2,0.4,0.5,0.5c0.1,0,0.2,0,0.3,0c2,0,4,0,5.9,0c0.1,0,0.2,0,0.3,0c0,1.6,0,3.2,0,4.8c-0.1,0-0.1,0-0.1,0
			c-2.1,0-4.2,0-6.3,0c-0.1,0-0.2,0-0.2,0c-0.2,0-0.4,0.1-0.4,0.4c0,0.2,0,0.3,0,0.5c0,1.7,0,3.4,0,5.1c0,0,0,0.1,0,0.1
			c-1.6,0-3.1,0-4.7,0C215,26.4,215,20.5,215,14.6z"/>
		<path d="M202.9,14.6c1.6,0,3.2,0,4.7,0c0.1,0.2,0.1,17.2,0,17.7c-1.6,0-3.1,0-4.7,0c0-0.1,0-0.3,0-0.4c0-1.7,0-3.3,0-5
			c0-0.6-0.1-0.7-0.7-0.7c-1.7,0-3.5,0-5.2,0c-0.3,0-0.6,0-1,0c0-1.6,0-3.2,0-4.8c0.1,0,0.2,0,0.4,0c1.9,0,3.9,0,5.8,0
			c0.1,0,0.2,0,0.3,0c0.3,0,0.4-0.2,0.4-0.4c0-0.1,0-0.3,0-0.4c0-1.9,0-3.8,0-5.7C202.9,14.8,202.9,14.7,202.9,14.6z"/>
	</g>
	<path d="M109.9,26.3c0-1.6,0-3.2,0-4.8c0.1,0,0.2,0,0.3,0c1.7,0,3.5,0,5.2,0c0.6,0,0.8-0.1,0.8-0.7c0-1.9,0-3.8,0-5.7
		c0-0.1,0-0.2,0-0.4c1.5,0,3.1,0,4.6,0c0,0.1,0,0.3,0,0.4c0,1.9,0,3.8,0,5.7c0,0.7,0.1,0.7,0.7,0.7c1.7,0,3.3,0,5,0
		c0.1,0,0.2,0,0.3,0c0,1.6,0,3.2,0,4.8C121.2,26.3,115.6,26.3,109.9,26.3z"/>
	<path d="M111.2,62.4c1.2,0,2.4,0,3.6,0c-0.3,7.6-0.8,15.1-1.7,22.6c-1.2,0-2.5,0-3.7,0C110.3,77.5,110.8,70,111.2,62.4z"/>
	<path d="M122.1,62.4c1.2,0,2.3,0,3.5,0c0,0.3,0,0.5,0.1,0.8c0.1,1.4,0.1,2.8,0.2,4.2c0.1,2.1,0.3,4.1,0.4,6.2
		c0.1,1.4,0.2,2.9,0.3,4.3c0.1,1.3,0.2,2.6,0.3,3.9c0,0.2,0,0.5,0,0.7c-1.1,0-2.3,0-3.4,0C122.9,75.8,122.5,69.1,122.1,62.4z"/>
</g>
</svg>
